%TF.GenerationSoftware,KiCad,Pcbnew,10.0.0*%
%TF.CreationDate,2026-06-28T19:00:57+05:30*%
%TF.ProjectId,Node Zero,4e6f6465-205a-4657-926f-2e6b69636164,rev?*%
%TF.SameCoordinates,Original*%
%TF.FileFunction,Soldermask,Bot*%
%TF.FilePolarity,Negative*%
%FSLAX46Y46*%
G04 Gerber Fmt 4.6, Leading zero omitted, Abs format (unit mm)*
G04 Created by KiCad (PCBNEW 10.0.0) date 2026-06-28 19:00:57*
%MOMM*%
%LPD*%
G01*
G04 APERTURE LIST*
%ADD10R,1.700000X1.700000*%
%ADD11C,1.700000*%
%ADD12C,0.650000*%
%ADD13O,1.000000X2.100000*%
%ADD14O,1.000000X1.600000*%
G04 APERTURE END LIST*
D10*
%TO.C,J4*%
X128386267Y-98685000D03*
D11*
X130926267Y-98685000D03*
X133466267Y-98685000D03*
%TD*%
D10*
%TO.C,J3*%
X139816267Y-50665000D03*
D11*
X139816267Y-53205000D03*
X139816267Y-55745000D03*
X139816267Y-58285000D03*
X139816267Y-60825000D03*
X139816267Y-63365000D03*
X139816267Y-65905000D03*
X139816267Y-68445000D03*
X139816267Y-70985000D03*
X139816267Y-73525000D03*
X139816267Y-76065000D03*
X139816267Y-78605000D03*
X139816267Y-81145000D03*
X139816267Y-83685000D03*
X139816267Y-86225000D03*
X139816267Y-88765000D03*
X139816267Y-91305000D03*
X139816267Y-93845000D03*
X139816267Y-96385000D03*
X139816267Y-98925000D03*
%TD*%
D12*
%TO.C,J1*%
X133816267Y-54395000D03*
X128036267Y-54395000D03*
D13*
X135246267Y-54925000D03*
D14*
X135246267Y-50745000D03*
D13*
X126606267Y-54925000D03*
D14*
X126606267Y-50745000D03*
%TD*%
D10*
%TO.C,J2*%
X122036267Y-50665000D03*
D11*
X122036267Y-53205000D03*
X122036267Y-55745000D03*
X122036267Y-58285000D03*
X122036267Y-60825000D03*
X122036267Y-63365000D03*
X122036267Y-65905000D03*
X122036267Y-68445000D03*
X122036267Y-70985000D03*
X122036267Y-73525000D03*
X122036267Y-76065000D03*
X122036267Y-78605000D03*
X122036267Y-81145000D03*
X122036267Y-83685000D03*
X122036267Y-86225000D03*
X122036267Y-88765000D03*
X122036267Y-91305000D03*
X122036267Y-93845000D03*
X122036267Y-96385000D03*
X122036267Y-98925000D03*
%TD*%
M02*
