%TF.GenerationSoftware,KiCad,Pcbnew,10.0.0*%
%TF.CreationDate,2026-06-28T19:00:57+05:30*%
%TF.ProjectId,Node Zero,4e6f6465-205a-4657-926f-2e6b69636164,rev?*%
%TF.SameCoordinates,Original*%
%TF.FileFunction,Paste,Top*%
%TF.FilePolarity,Positive*%
%FSLAX46Y46*%
G04 Gerber Fmt 4.6, Leading zero omitted, Abs format (unit mm)*
G04 Created by KiCad (PCBNEW 10.0.0) date 2026-06-28 19:00:57*
%MOMM*%
%LPD*%
G01*
G04 APERTURE LIST*
G04 Aperture macros list*
%AMRoundRect*
0 Rectangle with rounded corners*
0 $1 Rounding radius*
0 $2 $3 $4 $5 $6 $7 $8 $9 X,Y pos of 4 corners*
0 Add a 4 corners polygon primitive as box body*
4,1,4,$2,$3,$4,$5,$6,$7,$8,$9,$2,$3,0*
0 Add four circle primitives for the rounded corners*
1,1,$1+$1,$2,$3*
1,1,$1+$1,$4,$5*
1,1,$1+$1,$6,$7*
1,1,$1+$1,$8,$9*
0 Add four rect primitives between the rounded corners*
20,1,$1+$1,$2,$3,$4,$5,0*
20,1,$1+$1,$4,$5,$6,$7,0*
20,1,$1+$1,$6,$7,$8,$9,0*
20,1,$1+$1,$8,$9,$2,$3,0*%
G04 Aperture macros list end*
%ADD10RoundRect,0.140000X0.140000X0.170000X-0.140000X0.170000X-0.140000X-0.170000X0.140000X-0.170000X0*%
%ADD11RoundRect,0.225000X0.225000X0.250000X-0.225000X0.250000X-0.225000X-0.250000X0.225000X-0.250000X0*%
%ADD12RoundRect,0.135000X0.135000X0.185000X-0.135000X0.185000X-0.135000X-0.185000X0.135000X-0.185000X0*%
%ADD13R,1.400000X1.200000*%
%ADD14RoundRect,0.140000X0.170000X-0.140000X0.170000X0.140000X-0.170000X0.140000X-0.170000X-0.140000X0*%
%ADD15RoundRect,0.218750X0.218750X0.256250X-0.218750X0.256250X-0.218750X-0.256250X0.218750X-0.256250X0*%
%ADD16RoundRect,0.135000X-0.185000X0.135000X-0.185000X-0.135000X0.185000X-0.135000X0.185000X0.135000X0*%
%ADD17RoundRect,0.135000X-0.135000X-0.185000X0.135000X-0.185000X0.135000X0.185000X-0.135000X0.185000X0*%
%ADD18RoundRect,0.140000X-0.140000X-0.170000X0.140000X-0.170000X0.140000X0.170000X-0.140000X0.170000X0*%
%ADD19RoundRect,0.200000X-0.200000X-0.800000X0.200000X-0.800000X0.200000X0.800000X-0.200000X0.800000X0*%
%ADD20R,0.600000X1.450000*%
%ADD21R,0.300000X1.450000*%
%ADD22RoundRect,0.040000X-0.040000X-0.605000X0.040000X-0.605000X0.040000X0.605000X-0.040000X0.605000X0*%
%ADD23RoundRect,0.062500X-0.387500X-0.062500X0.387500X-0.062500X0.387500X0.062500X-0.387500X0.062500X0*%
%ADD24RoundRect,0.249999X-0.395001X-0.395001X0.395001X-0.395001X0.395001X0.395001X-0.395001X0.395001X0*%
%ADD25RoundRect,0.050000X-0.387500X-0.050000X0.387500X-0.050000X0.387500X0.050000X-0.387500X0.050000X0*%
%ADD26RoundRect,0.050000X-0.050000X-0.387500X0.050000X-0.387500X0.050000X0.387500X-0.050000X0.387500X0*%
%ADD27RoundRect,0.150000X0.150000X-0.587500X0.150000X0.587500X-0.150000X0.587500X-0.150000X-0.587500X0*%
%ADD28RoundRect,0.087500X-0.187500X-0.087500X0.187500X-0.087500X0.187500X0.087500X-0.187500X0.087500X0*%
%ADD29RoundRect,0.087500X-0.087500X-0.187500X0.087500X-0.187500X0.087500X0.187500X-0.087500X0.187500X0*%
%ADD30RoundRect,0.218750X-0.218750X-0.256250X0.218750X-0.256250X0.218750X0.256250X-0.218750X0.256250X0*%
%ADD31RoundRect,0.225000X-0.250000X0.225000X-0.250000X-0.225000X0.250000X-0.225000X0.250000X0.225000X0*%
%ADD32RoundRect,0.140000X-0.170000X0.140000X-0.170000X-0.140000X0.170000X-0.140000X0.170000X0.140000X0*%
G04 APERTURE END LIST*
D10*
%TO.C,C11*%
X129726267Y-92095000D03*
X128766267Y-92095000D03*
%TD*%
D11*
%TO.C,C14*%
X128501267Y-62095000D03*
X126951267Y-62095000D03*
%TD*%
D12*
%TO.C,R8*%
X136961267Y-65375000D03*
X135941267Y-65375000D03*
%TD*%
D13*
%TO.C,Y1*%
X130926267Y-93445000D03*
X128726267Y-93445000D03*
X128726267Y-95145000D03*
X130926267Y-95145000D03*
%TD*%
D14*
%TO.C,C12*%
X133626267Y-81975000D03*
X133626267Y-81015000D03*
%TD*%
D15*
%TO.C,D2*%
X135313767Y-69795000D03*
X133738767Y-69795000D03*
%TD*%
D16*
%TO.C,R1*%
X132926267Y-57485000D03*
X132926267Y-58505000D03*
%TD*%
D14*
%TO.C,C4*%
X134626267Y-81955000D03*
X134626267Y-80995000D03*
%TD*%
D16*
%TO.C,R3*%
X131626267Y-81025000D03*
X131626267Y-82045000D03*
%TD*%
D17*
%TO.C,R10*%
X136416267Y-93695000D03*
X137436267Y-93695000D03*
%TD*%
D10*
%TO.C,C2*%
X125526267Y-84895000D03*
X124566267Y-84895000D03*
%TD*%
D18*
%TO.C,C19*%
X129426267Y-72295000D03*
X130386267Y-72295000D03*
%TD*%
%TO.C,C8*%
X135546267Y-83995000D03*
X136506267Y-83995000D03*
%TD*%
D16*
%TO.C,R2*%
X130626267Y-57585000D03*
X130626267Y-58605000D03*
%TD*%
D17*
%TO.C,R5*%
X126816267Y-92095000D03*
X127836267Y-92095000D03*
%TD*%
D16*
%TO.C,R4*%
X132626267Y-81025000D03*
X132626267Y-82045000D03*
%TD*%
D12*
%TO.C,R6*%
X128246267Y-71095000D03*
X127226267Y-71095000D03*
%TD*%
D19*
%TO.C,SW1*%
X132826267Y-62295000D03*
X137026267Y-62295000D03*
%TD*%
D20*
%TO.C,J1*%
X134176267Y-55840000D03*
X133376267Y-55840000D03*
D21*
X132176267Y-55840000D03*
X131176267Y-55840000D03*
X130676267Y-55840000D03*
X129676267Y-55840000D03*
D20*
X128476267Y-55840000D03*
X127676267Y-55840000D03*
X127676267Y-55840000D03*
X128476267Y-55840000D03*
D21*
X129176267Y-55840000D03*
X130176267Y-55840000D03*
X131676267Y-55840000D03*
X132676267Y-55840000D03*
D20*
X133376267Y-55840000D03*
X134176267Y-55840000D03*
%TD*%
D22*
%TO.C,U3*%
X127676267Y-79295000D03*
D23*
X126251267Y-78545000D03*
X126251267Y-79045000D03*
X126251267Y-79545000D03*
X126251267Y-80045000D03*
X129101267Y-80045000D03*
X129101267Y-79545000D03*
X129101267Y-79045000D03*
X129101267Y-78545000D03*
%TD*%
D24*
%TO.C,U1*%
X130126267Y-85995000D03*
X130126267Y-87595000D03*
X131726267Y-85995000D03*
X131726267Y-87595000D03*
D25*
X127488767Y-84195000D03*
X127488767Y-84595000D03*
X127488767Y-84995000D03*
X127488767Y-85395000D03*
X127488767Y-85795000D03*
X127488767Y-86195000D03*
X127488767Y-86595000D03*
X127488767Y-86995000D03*
X127488767Y-87395000D03*
X127488767Y-87795000D03*
X127488767Y-88195000D03*
X127488767Y-88595000D03*
X127488767Y-88995000D03*
X127488767Y-89395000D03*
D26*
X128326267Y-90232500D03*
X128726267Y-90232500D03*
X129126267Y-90232500D03*
X129526267Y-90232500D03*
X129926267Y-90232500D03*
X130326267Y-90232500D03*
X130726267Y-90232500D03*
X131126267Y-90232500D03*
X131526267Y-90232500D03*
X131926267Y-90232500D03*
X132326267Y-90232500D03*
X132726267Y-90232500D03*
X133126267Y-90232500D03*
X133526267Y-90232500D03*
D25*
X134363767Y-89395000D03*
X134363767Y-88995000D03*
X134363767Y-88595000D03*
X134363767Y-88195000D03*
X134363767Y-87795000D03*
X134363767Y-87395000D03*
X134363767Y-86995000D03*
X134363767Y-86595000D03*
X134363767Y-86195000D03*
X134363767Y-85795000D03*
X134363767Y-85395000D03*
X134363767Y-84995000D03*
X134363767Y-84595000D03*
X134363767Y-84195000D03*
D26*
X133526267Y-83357500D03*
X133126267Y-83357500D03*
X132726267Y-83357500D03*
X132326267Y-83357500D03*
X131926267Y-83357500D03*
X131526267Y-83357500D03*
X131126267Y-83357500D03*
X130726267Y-83357500D03*
X130326267Y-83357500D03*
X129926267Y-83357500D03*
X129526267Y-83357500D03*
X129126267Y-83357500D03*
X128726267Y-83357500D03*
X128326267Y-83357500D03*
%TD*%
D27*
%TO.C,U2*%
X127476267Y-60170000D03*
X129376267Y-60170000D03*
X128426267Y-58295000D03*
%TD*%
D28*
%TO.C,U4*%
X129701267Y-73795000D03*
X129701267Y-74295000D03*
X129701267Y-74795000D03*
X129701267Y-75295000D03*
X129701267Y-75795000D03*
D29*
X130426267Y-76020000D03*
X130926267Y-76020000D03*
X131426267Y-76020000D03*
D28*
X132151267Y-75795000D03*
X132151267Y-75295000D03*
X132151267Y-74795000D03*
X132151267Y-74295000D03*
X132151267Y-73795000D03*
D29*
X131426267Y-73570000D03*
X130926267Y-73570000D03*
X130426267Y-73570000D03*
%TD*%
D14*
%TO.C,C16*%
X132426267Y-94155000D03*
X132426267Y-93195000D03*
%TD*%
D18*
%TO.C,C18*%
X131426267Y-72295000D03*
X132386267Y-72295000D03*
%TD*%
D10*
%TO.C,C7*%
X125526267Y-83895000D03*
X124566267Y-83895000D03*
%TD*%
%TO.C,C10*%
X131606267Y-92095000D03*
X130646267Y-92095000D03*
%TD*%
D30*
%TO.C,D3*%
X135751267Y-95095000D03*
X137326267Y-95095000D03*
%TD*%
D12*
%TO.C,R9*%
X135036267Y-68395000D03*
X134016267Y-68395000D03*
%TD*%
D31*
%TO.C,C13*%
X125826267Y-58045000D03*
X125826267Y-59595000D03*
%TD*%
D30*
%TO.C,D1*%
X133051267Y-65295000D03*
X134626267Y-65295000D03*
%TD*%
D10*
%TO.C,C6*%
X126306267Y-87495000D03*
X125346267Y-87495000D03*
%TD*%
D17*
%TO.C,R7*%
X126216267Y-77295000D03*
X127236267Y-77295000D03*
%TD*%
D18*
%TO.C,C17*%
X130446267Y-78545000D03*
X131406267Y-78545000D03*
%TD*%
D32*
%TO.C,C15*%
X127226267Y-94215000D03*
X127226267Y-95175000D03*
%TD*%
D14*
%TO.C,C1*%
X132526267Y-78975000D03*
X132526267Y-78015000D03*
%TD*%
D10*
%TO.C,C3*%
X125606267Y-86495000D03*
X124646267Y-86495000D03*
%TD*%
D18*
%TO.C,C9*%
X136546267Y-88795000D03*
X137506267Y-88795000D03*
%TD*%
D32*
%TO.C,C20*%
X128426267Y-72585000D03*
X128426267Y-73545000D03*
%TD*%
%TO.C,C21*%
X127176267Y-72565000D03*
X127176267Y-73525000D03*
%TD*%
D18*
%TO.C,C5*%
X136446267Y-87795000D03*
X137406267Y-87795000D03*
%TD*%
M02*
