%TF.GenerationSoftware,KiCad,Pcbnew,10.0.0*%
%TF.CreationDate,2026-06-28T19:00:57+05:30*%
%TF.ProjectId,Node Zero,4e6f6465-205a-4657-926f-2e6b69636164,rev?*%
%TF.SameCoordinates,Original*%
%TF.FileFunction,Copper,L1,Top*%
%TF.FilePolarity,Positive*%
%FSLAX46Y46*%
G04 Gerber Fmt 4.6, Leading zero omitted, Abs format (unit mm)*
G04 Created by KiCad (PCBNEW 10.0.0) date 2026-06-28 19:00:57*
%MOMM*%
%LPD*%
G01*
G04 APERTURE LIST*
G04 Aperture macros list*
%AMRoundRect*
0 Rectangle with rounded corners*
0 $1 Rounding radius*
0 $2 $3 $4 $5 $6 $7 $8 $9 X,Y pos of 4 corners*
0 Add a 4 corners polygon primitive as box body*
4,1,4,$2,$3,$4,$5,$6,$7,$8,$9,$2,$3,0*
0 Add four circle primitives for the rounded corners*
1,1,$1+$1,$2,$3*
1,1,$1+$1,$4,$5*
1,1,$1+$1,$6,$7*
1,1,$1+$1,$8,$9*
0 Add four rect primitives between the rounded corners*
20,1,$1+$1,$2,$3,$4,$5,0*
20,1,$1+$1,$4,$5,$6,$7,0*
20,1,$1+$1,$6,$7,$8,$9,0*
20,1,$1+$1,$8,$9,$2,$3,0*%
G04 Aperture macros list end*
%TA.AperFunction,ComponentPad*%
%ADD10R,1.700000X1.700000*%
%TD*%
%TA.AperFunction,ComponentPad*%
%ADD11C,1.700000*%
%TD*%
%TA.AperFunction,SMDPad,CuDef*%
%ADD12RoundRect,0.140000X0.140000X0.170000X-0.140000X0.170000X-0.140000X-0.170000X0.140000X-0.170000X0*%
%TD*%
%TA.AperFunction,SMDPad,CuDef*%
%ADD13RoundRect,0.225000X0.225000X0.250000X-0.225000X0.250000X-0.225000X-0.250000X0.225000X-0.250000X0*%
%TD*%
%TA.AperFunction,SMDPad,CuDef*%
%ADD14RoundRect,0.135000X0.135000X0.185000X-0.135000X0.185000X-0.135000X-0.185000X0.135000X-0.185000X0*%
%TD*%
%TA.AperFunction,SMDPad,CuDef*%
%ADD15R,1.400000X1.200000*%
%TD*%
%TA.AperFunction,SMDPad,CuDef*%
%ADD16RoundRect,0.140000X0.170000X-0.140000X0.170000X0.140000X-0.170000X0.140000X-0.170000X-0.140000X0*%
%TD*%
%TA.AperFunction,SMDPad,CuDef*%
%ADD17RoundRect,0.218750X0.218750X0.256250X-0.218750X0.256250X-0.218750X-0.256250X0.218750X-0.256250X0*%
%TD*%
%TA.AperFunction,SMDPad,CuDef*%
%ADD18RoundRect,0.135000X-0.185000X0.135000X-0.185000X-0.135000X0.185000X-0.135000X0.185000X0.135000X0*%
%TD*%
%TA.AperFunction,SMDPad,CuDef*%
%ADD19RoundRect,0.135000X-0.135000X-0.185000X0.135000X-0.185000X0.135000X0.185000X-0.135000X0.185000X0*%
%TD*%
%TA.AperFunction,SMDPad,CuDef*%
%ADD20RoundRect,0.140000X-0.140000X-0.170000X0.140000X-0.170000X0.140000X0.170000X-0.140000X0.170000X0*%
%TD*%
%TA.AperFunction,SMDPad,CuDef*%
%ADD21RoundRect,0.200000X-0.200000X-0.800000X0.200000X-0.800000X0.200000X0.800000X-0.200000X0.800000X0*%
%TD*%
%TA.AperFunction,SMDPad,CuDef*%
%ADD22R,0.600000X1.450000*%
%TD*%
%TA.AperFunction,SMDPad,CuDef*%
%ADD23R,0.300000X1.450000*%
%TD*%
%TA.AperFunction,HeatsinkPad*%
%ADD24O,1.000000X2.100000*%
%TD*%
%TA.AperFunction,HeatsinkPad*%
%ADD25O,1.000000X1.600000*%
%TD*%
%TA.AperFunction,SMDPad,CuDef*%
%ADD26RoundRect,0.062500X-0.387500X-0.062500X0.387500X-0.062500X0.387500X0.062500X-0.387500X0.062500X0*%
%TD*%
%TA.AperFunction,HeatsinkPad*%
%ADD27R,0.200000X1.600000*%
%TD*%
%TA.AperFunction,SMDPad,CuDef*%
%ADD28RoundRect,0.050000X-0.387500X-0.050000X0.387500X-0.050000X0.387500X0.050000X-0.387500X0.050000X0*%
%TD*%
%TA.AperFunction,SMDPad,CuDef*%
%ADD29RoundRect,0.050000X-0.050000X-0.387500X0.050000X-0.387500X0.050000X0.387500X-0.050000X0.387500X0*%
%TD*%
%TA.AperFunction,HeatsinkPad*%
%ADD30R,3.200000X3.200000*%
%TD*%
%TA.AperFunction,SMDPad,CuDef*%
%ADD31RoundRect,0.150000X0.150000X-0.587500X0.150000X0.587500X-0.150000X0.587500X-0.150000X-0.587500X0*%
%TD*%
%TA.AperFunction,SMDPad,CuDef*%
%ADD32RoundRect,0.087500X-0.187500X-0.087500X0.187500X-0.087500X0.187500X0.087500X-0.187500X0.087500X0*%
%TD*%
%TA.AperFunction,SMDPad,CuDef*%
%ADD33RoundRect,0.087500X-0.087500X-0.187500X0.087500X-0.187500X0.087500X0.187500X-0.087500X0.187500X0*%
%TD*%
%TA.AperFunction,SMDPad,CuDef*%
%ADD34RoundRect,0.218750X-0.218750X-0.256250X0.218750X-0.256250X0.218750X0.256250X-0.218750X0.256250X0*%
%TD*%
%TA.AperFunction,SMDPad,CuDef*%
%ADD35RoundRect,0.225000X-0.250000X0.225000X-0.250000X-0.225000X0.250000X-0.225000X0.250000X0.225000X0*%
%TD*%
%TA.AperFunction,SMDPad,CuDef*%
%ADD36RoundRect,0.140000X-0.170000X0.140000X-0.170000X-0.140000X0.170000X-0.140000X0.170000X0.140000X0*%
%TD*%
%TA.AperFunction,ViaPad*%
%ADD37C,0.600000*%
%TD*%
%TA.AperFunction,Conductor*%
%ADD38C,0.200000*%
%TD*%
G04 APERTURE END LIST*
D10*
%TO.P,J4,1,Pin_1*%
%TO.N,SWCLK*%
X128386267Y-98685000D03*
D11*
%TO.P,J4,2,Pin_2*%
%TO.N,GND*%
X130926267Y-98685000D03*
%TO.P,J4,3,Pin_3*%
%TO.N,SWD*%
X133466267Y-98685000D03*
%TD*%
D10*
%TO.P,J3,1,Pin_1*%
%TO.N,VBUS*%
X139816267Y-50665000D03*
D11*
%TO.P,J3,2,Pin_2*%
%TO.N,GPIO29_ADC3*%
X139816267Y-53205000D03*
%TO.P,J3,3,Pin_3*%
%TO.N,GND*%
X139816267Y-55745000D03*
%TO.P,J3,4,Pin_4*%
%TO.N,GPIO28_ADC2*%
X139816267Y-58285000D03*
%TO.P,J3,5,Pin_5*%
%TO.N,+3V3*%
X139816267Y-60825000D03*
%TO.P,J3,6,Pin_6*%
%TO.N,GPIO27_ADC1*%
X139816267Y-63365000D03*
%TO.P,J3,7,Pin_7*%
%TO.N,GPIO26_ADC0*%
X139816267Y-65905000D03*
%TO.P,J3,8,Pin_8*%
%TO.N,GND*%
X139816267Y-68445000D03*
%TO.P,J3,9,Pin_9*%
%TO.N,GPIO24*%
X139816267Y-70985000D03*
%TO.P,J3,10,Pin_10*%
%TO.N,GPIO23*%
X139816267Y-73525000D03*
%TO.P,J3,11,Pin_11*%
%TO.N,RUN*%
X139816267Y-76065000D03*
%TO.P,J3,12,Pin_12*%
%TO.N,GPIO22*%
X139816267Y-78605000D03*
%TO.P,J3,13,Pin_13*%
%TO.N,GND*%
X139816267Y-81145000D03*
%TO.P,J3,14,Pin_14*%
%TO.N,GPIO21*%
X139816267Y-83685000D03*
%TO.P,J3,15,Pin_15*%
%TO.N,GPIO20*%
X139816267Y-86225000D03*
%TO.P,J3,16,Pin_16*%
%TO.N,GPIO19*%
X139816267Y-88765000D03*
%TO.P,J3,17,Pin_17*%
%TO.N,GPIO18*%
X139816267Y-91305000D03*
%TO.P,J3,18,Pin_18*%
%TO.N,GND*%
X139816267Y-93845000D03*
%TO.P,J3,19,Pin_19*%
%TO.N,GPIO17*%
X139816267Y-96385000D03*
%TO.P,J3,20,Pin_20*%
%TO.N,GPIO16*%
X139816267Y-98925000D03*
%TD*%
D12*
%TO.P,C11,1*%
%TO.N,+1V1*%
X129726267Y-92095000D03*
%TO.P,C11,2*%
%TO.N,GND*%
X128766267Y-92095000D03*
%TD*%
D13*
%TO.P,C14,1*%
%TO.N,+3V3*%
X128501267Y-62095000D03*
%TO.P,C14,2*%
%TO.N,GND*%
X126951267Y-62095000D03*
%TD*%
D14*
%TO.P,R8,1*%
%TO.N,+3V3*%
X136961267Y-65375000D03*
%TO.P,R8,2*%
%TO.N,Net-(D1-A)*%
X135941267Y-65375000D03*
%TD*%
D15*
%TO.P,Y1,1,1*%
%TO.N,Net-(C16-Pad2)*%
X130926267Y-93445000D03*
%TO.P,Y1,2,2*%
%TO.N,GND*%
X128726267Y-93445000D03*
%TO.P,Y1,3,3*%
%TO.N,XIN*%
X128726267Y-95145000D03*
%TO.P,Y1,4,4*%
%TO.N,GND*%
X130926267Y-95145000D03*
%TD*%
D16*
%TO.P,C12,1*%
%TO.N,+1V1*%
X133626267Y-81975000D03*
%TO.P,C12,2*%
%TO.N,GND*%
X133626267Y-81015000D03*
%TD*%
D17*
%TO.P,D2,1,K*%
%TO.N,RUN*%
X135313767Y-69795000D03*
%TO.P,D2,2,A*%
%TO.N,Net-(D2-A)*%
X133738767Y-69795000D03*
%TD*%
D18*
%TO.P,R1,1*%
%TO.N,Net-(J1-CC1)*%
X132926267Y-57485000D03*
%TO.P,R1,2*%
%TO.N,GND*%
X132926267Y-58505000D03*
%TD*%
D16*
%TO.P,C4,1*%
%TO.N,+3V3*%
X134626267Y-81955000D03*
%TO.P,C4,2*%
%TO.N,GND*%
X134626267Y-80995000D03*
%TD*%
D18*
%TO.P,R3,1*%
%TO.N,USB_D+*%
X131626267Y-81025000D03*
%TO.P,R3,2*%
%TO.N,Net-(U1-USB_DP)*%
X131626267Y-82045000D03*
%TD*%
D19*
%TO.P,R10,1*%
%TO.N,GPIO25*%
X136416267Y-93695000D03*
%TO.P,R10,2*%
%TO.N,Net-(D3-A)*%
X137436267Y-93695000D03*
%TD*%
D12*
%TO.P,C2,1*%
%TO.N,+3V3*%
X125526267Y-84895000D03*
%TO.P,C2,2*%
%TO.N,GND*%
X124566267Y-84895000D03*
%TD*%
D20*
%TO.P,C19,1*%
%TO.N,+3V3*%
X129426267Y-72295000D03*
%TO.P,C19,2*%
%TO.N,GND*%
X130386267Y-72295000D03*
%TD*%
%TO.P,C8,1*%
%TO.N,+3V3*%
X135546267Y-83995000D03*
%TO.P,C8,2*%
%TO.N,GND*%
X136506267Y-83995000D03*
%TD*%
D18*
%TO.P,R2,1*%
%TO.N,Net-(J1-CC2)*%
X130626267Y-57585000D03*
%TO.P,R2,2*%
%TO.N,GND*%
X130626267Y-58605000D03*
%TD*%
D19*
%TO.P,R5,1*%
%TO.N,Net-(C16-Pad2)*%
X126816267Y-92095000D03*
%TO.P,R5,2*%
%TO.N,XOUT*%
X127836267Y-92095000D03*
%TD*%
D18*
%TO.P,R4,1*%
%TO.N,USB_D-*%
X132626267Y-81025000D03*
%TO.P,R4,2*%
%TO.N,Net-(U1-USB_DM)*%
X132626267Y-82045000D03*
%TD*%
D14*
%TO.P,R6,1*%
%TO.N,+3V3*%
X128246267Y-71095000D03*
%TO.P,R6,2*%
%TO.N,QSPI_SS*%
X127226267Y-71095000D03*
%TD*%
D21*
%TO.P,SW1,1,1*%
%TO.N,GND*%
X132826267Y-62295000D03*
%TO.P,SW1,2,2*%
%TO.N,Net-(R7-Pad2)*%
X137026267Y-62295000D03*
%TD*%
D22*
%TO.P,J1,A1,GND*%
%TO.N,GND*%
X134176267Y-55840000D03*
%TO.P,J1,A4,VBUS*%
%TO.N,VBUS*%
X133376267Y-55840000D03*
D23*
%TO.P,J1,A5,CC1*%
%TO.N,Net-(J1-CC1)*%
X132176267Y-55840000D03*
%TO.P,J1,A6,D+*%
%TO.N,USB_D+*%
X131176267Y-55840000D03*
%TO.P,J1,A7,D-*%
%TO.N,USB_D-*%
X130676267Y-55840000D03*
%TO.P,J1,A8*%
%TO.N,N/C*%
X129676267Y-55840000D03*
D22*
%TO.P,J1,A9,VBUS*%
%TO.N,VBUS*%
X128476267Y-55840000D03*
%TO.P,J1,A12,GND*%
%TO.N,GND*%
X127676267Y-55840000D03*
%TO.P,J1,B1,GND*%
X127676267Y-55840000D03*
%TO.P,J1,B4,VBUS*%
%TO.N,VBUS*%
X128476267Y-55840000D03*
D23*
%TO.P,J1,B5,CC2*%
%TO.N,Net-(J1-CC2)*%
X129176267Y-55840000D03*
%TO.P,J1,B6,D+*%
%TO.N,USB_D+*%
X130176267Y-55840000D03*
%TO.P,J1,B7,D-*%
%TO.N,USB_D-*%
X131676267Y-55840000D03*
%TO.P,J1,B8*%
%TO.N,N/C*%
X132676267Y-55840000D03*
D22*
%TO.P,J1,B9,VBUS*%
%TO.N,VBUS*%
X133376267Y-55840000D03*
%TO.P,J1,B12,GND*%
%TO.N,GND*%
X134176267Y-55840000D03*
D24*
%TO.P,J1,S1,SHIELD*%
X135246267Y-54925000D03*
D25*
X135246267Y-50745000D03*
D24*
X126606267Y-54925000D03*
D25*
X126606267Y-50745000D03*
%TD*%
D26*
%TO.P,U3,1,~{CS}*%
%TO.N,QSPI_SS*%
X126251267Y-78545000D03*
%TO.P,U3,2,DO/IO_{1}*%
%TO.N,QSPI_SD1*%
X126251267Y-79045000D03*
%TO.P,U3,3,~{WP}/IO_{2}*%
%TO.N,QSPI_SD2*%
X126251267Y-79545000D03*
%TO.P,U3,4,GND*%
%TO.N,GND*%
X126251267Y-80045000D03*
%TO.P,U3,5,DI/IO_{0}*%
%TO.N,QSPI_SD0*%
X129101267Y-80045000D03*
%TO.P,U3,6,CLK*%
%TO.N,QSPI_CLK*%
X129101267Y-79545000D03*
%TO.P,U3,7,~{HOLD}/~{RESET}/IO_{3}*%
%TO.N,QSPI_SD3*%
X129101267Y-79045000D03*
%TO.P,U3,8,VCC*%
%TO.N,+3V3*%
X129101267Y-78545000D03*
D27*
%TO.P,U3,9*%
%TO.N,N/C*%
X127676267Y-79295000D03*
%TD*%
D28*
%TO.P,U1,1,IOVDD*%
%TO.N,+3V3*%
X127488767Y-84195000D03*
%TO.P,U1,2,GPIO0*%
%TO.N,GPIO0*%
X127488767Y-84595000D03*
%TO.P,U1,3,GPIO1*%
%TO.N,GPIO1*%
X127488767Y-84995000D03*
%TO.P,U1,4,GPIO2*%
%TO.N,GPIO2*%
X127488767Y-85395000D03*
%TO.P,U1,5,GPIO3*%
%TO.N,GPIO3*%
X127488767Y-85795000D03*
%TO.P,U1,6,GPIO4*%
%TO.N,GPIO4*%
X127488767Y-86195000D03*
%TO.P,U1,7,GPIO5*%
%TO.N,GPIO5*%
X127488767Y-86595000D03*
%TO.P,U1,8,GPIO6*%
%TO.N,GPIO6*%
X127488767Y-86995000D03*
%TO.P,U1,9,GPIO7*%
%TO.N,GPIO7*%
X127488767Y-87395000D03*
%TO.P,U1,10,IOVDD*%
%TO.N,+3V3*%
X127488767Y-87795000D03*
%TO.P,U1,11,GPIO8*%
%TO.N,GPIO8*%
X127488767Y-88195000D03*
%TO.P,U1,12,GPIO9*%
%TO.N,GPIO9*%
X127488767Y-88595000D03*
%TO.P,U1,13,GPIO10*%
%TO.N,GPIO10*%
X127488767Y-88995000D03*
%TO.P,U1,14,GPIO11*%
%TO.N,GPIO11*%
X127488767Y-89395000D03*
D29*
%TO.P,U1,15,GPIO12*%
%TO.N,GPIO12*%
X128326267Y-90232500D03*
%TO.P,U1,16,GPIO13*%
%TO.N,GPIO13*%
X128726267Y-90232500D03*
%TO.P,U1,17,GPIO14*%
%TO.N,GPIO14*%
X129126267Y-90232500D03*
%TO.P,U1,18,GPIO15*%
%TO.N,GPIO15*%
X129526267Y-90232500D03*
%TO.P,U1,19,TESTEN*%
%TO.N,GND*%
X129926267Y-90232500D03*
%TO.P,U1,20,XIN*%
%TO.N,XIN*%
X130326267Y-90232500D03*
%TO.P,U1,21,XOUT*%
%TO.N,XOUT*%
X130726267Y-90232500D03*
%TO.P,U1,22,IOVDD*%
%TO.N,+3V3*%
X131126267Y-90232500D03*
%TO.P,U1,23,DVDD*%
%TO.N,+1V1*%
X131526267Y-90232500D03*
%TO.P,U1,24,SWCLK*%
%TO.N,SWCLK*%
X131926267Y-90232500D03*
%TO.P,U1,25,SWD*%
%TO.N,SWD*%
X132326267Y-90232500D03*
%TO.P,U1,26,RUN*%
%TO.N,RUN*%
X132726267Y-90232500D03*
%TO.P,U1,27,GPIO16*%
%TO.N,GPIO16*%
X133126267Y-90232500D03*
%TO.P,U1,28,GPIO17*%
%TO.N,GPIO17*%
X133526267Y-90232500D03*
D28*
%TO.P,U1,29,GPIO18*%
%TO.N,GPIO18*%
X134363767Y-89395000D03*
%TO.P,U1,30,GPIO19*%
%TO.N,GPIO19*%
X134363767Y-88995000D03*
%TO.P,U1,31,GPIO20*%
%TO.N,GPIO20*%
X134363767Y-88595000D03*
%TO.P,U1,32,GPIO21*%
%TO.N,GPIO21*%
X134363767Y-88195000D03*
%TO.P,U1,33,IOVDD*%
%TO.N,+3V3*%
X134363767Y-87795000D03*
%TO.P,U1,34,GPIO22*%
%TO.N,GPIO22*%
X134363767Y-87395000D03*
%TO.P,U1,35,GPIO23*%
%TO.N,GPIO23*%
X134363767Y-86995000D03*
%TO.P,U1,36,GPIO24*%
%TO.N,GPIO24*%
X134363767Y-86595000D03*
%TO.P,U1,37,GPIO25*%
%TO.N,GPIO25*%
X134363767Y-86195000D03*
%TO.P,U1,38,GPIO26_ADC0*%
%TO.N,GPIO26_ADC0*%
X134363767Y-85795000D03*
%TO.P,U1,39,GPIO27_ADC1*%
%TO.N,GPIO27_ADC1*%
X134363767Y-85395000D03*
%TO.P,U1,40,GPIO28_ADC2*%
%TO.N,GPIO28_ADC2*%
X134363767Y-84995000D03*
%TO.P,U1,41,GPIO29_ADC3*%
%TO.N,GPIO29_ADC3*%
X134363767Y-84595000D03*
%TO.P,U1,42,IOVDD*%
%TO.N,+3V3*%
X134363767Y-84195000D03*
D29*
%TO.P,U1,43,ADC_AVDD*%
X133526267Y-83357500D03*
%TO.P,U1,44,VREG_IN*%
X133126267Y-83357500D03*
%TO.P,U1,45,VREG_VOUT*%
%TO.N,+1V1*%
X132726267Y-83357500D03*
%TO.P,U1,46,USB_DM*%
%TO.N,Net-(U1-USB_DM)*%
X132326267Y-83357500D03*
%TO.P,U1,47,USB_DP*%
%TO.N,Net-(U1-USB_DP)*%
X131926267Y-83357500D03*
%TO.P,U1,48,USB_VDD*%
%TO.N,+3V3*%
X131526267Y-83357500D03*
%TO.P,U1,49,IOVDD*%
X131126267Y-83357500D03*
%TO.P,U1,50,DVDD*%
%TO.N,+1V1*%
X130726267Y-83357500D03*
%TO.P,U1,51,QSPI_SD3*%
%TO.N,QSPI_SD3*%
X130326267Y-83357500D03*
%TO.P,U1,52,QSPI_SCLK*%
%TO.N,QSPI_CLK*%
X129926267Y-83357500D03*
%TO.P,U1,53,QSPI_SD0*%
%TO.N,QSPI_SD0*%
X129526267Y-83357500D03*
%TO.P,U1,54,QSPI_SD2*%
%TO.N,QSPI_SD2*%
X129126267Y-83357500D03*
%TO.P,U1,55,QSPI_SD1*%
%TO.N,QSPI_SD1*%
X128726267Y-83357500D03*
%TO.P,U1,56,QSPI_SS*%
%TO.N,QSPI_SS*%
X128326267Y-83357500D03*
D30*
%TO.P,U1,57,GND*%
%TO.N,GND*%
X130926267Y-86795000D03*
%TD*%
D31*
%TO.P,U2,1,GND*%
%TO.N,GND*%
X127476267Y-60170000D03*
%TO.P,U2,2,VO*%
%TO.N,+3V3*%
X129376267Y-60170000D03*
%TO.P,U2,3,VI*%
%TO.N,VBUS*%
X128426267Y-58295000D03*
%TD*%
D32*
%TO.P,U4,1,VDDIO*%
%TO.N,+3V3*%
X129701267Y-73795000D03*
%TO.P,U4,2,SCL/SPC*%
%TO.N,GPIO2*%
X129701267Y-74295000D03*
%TO.P,U4,3,SDA/SDI*%
%TO.N,GPIO3*%
X129701267Y-74795000D03*
%TO.P,U4,4,SAO/SD0*%
%TO.N,GPIO4*%
X129701267Y-75295000D03*
%TO.P,U4,5,~{CS}*%
%TO.N,GPIO5*%
X129701267Y-75795000D03*
D33*
%TO.P,U4,6,INT*%
%TO.N,unconnected-(U4-INT-Pad6)*%
X130426267Y-76020000D03*
%TO.P,U4,7,RESV*%
%TO.N,unconnected-(U4-RESV-Pad7)*%
X130926267Y-76020000D03*
%TO.P,U4,8,FSYNC*%
%TO.N,GND*%
X131426267Y-76020000D03*
D32*
%TO.P,U4,9,GND*%
X132151267Y-75795000D03*
%TO.P,U4,10,GND*%
X132151267Y-75295000D03*
%TO.P,U4,11,GND*%
X132151267Y-74795000D03*
%TO.P,U4,12,GND*%
X132151267Y-74295000D03*
%TO.P,U4,13,GND*%
X132151267Y-73795000D03*
D33*
%TO.P,U4,14,REGOUT*%
%TO.N,Net-(U4-REGOUT)*%
X131426267Y-73570000D03*
%TO.P,U4,15,GND*%
%TO.N,GND*%
X130926267Y-73570000D03*
%TO.P,U4,16,VDD*%
%TO.N,+3V3*%
X130426267Y-73570000D03*
%TD*%
D16*
%TO.P,C16,1*%
%TO.N,GND*%
X132426267Y-94155000D03*
%TO.P,C16,2*%
%TO.N,Net-(C16-Pad2)*%
X132426267Y-93195000D03*
%TD*%
D20*
%TO.P,C18,1*%
%TO.N,Net-(U4-REGOUT)*%
X131426267Y-72295000D03*
%TO.P,C18,2*%
%TO.N,GND*%
X132386267Y-72295000D03*
%TD*%
D12*
%TO.P,C7,1*%
%TO.N,+3V3*%
X125526267Y-83895000D03*
%TO.P,C7,2*%
%TO.N,GND*%
X124566267Y-83895000D03*
%TD*%
%TO.P,C10,1*%
%TO.N,+1V1*%
X131606267Y-92095000D03*
%TO.P,C10,2*%
%TO.N,GND*%
X130646267Y-92095000D03*
%TD*%
D34*
%TO.P,D3,1,K*%
%TO.N,GND*%
X135751267Y-95095000D03*
%TO.P,D3,2,A*%
%TO.N,Net-(D3-A)*%
X137326267Y-95095000D03*
%TD*%
D14*
%TO.P,R9,1*%
%TO.N,+3V3*%
X135036267Y-68395000D03*
%TO.P,R9,2*%
%TO.N,Net-(D2-A)*%
X134016267Y-68395000D03*
%TD*%
D35*
%TO.P,C13,1*%
%TO.N,VBUS*%
X125826267Y-58045000D03*
%TO.P,C13,2*%
%TO.N,GND*%
X125826267Y-59595000D03*
%TD*%
D34*
%TO.P,D1,1,K*%
%TO.N,GND*%
X133051267Y-65295000D03*
%TO.P,D1,2,A*%
%TO.N,Net-(D1-A)*%
X134626267Y-65295000D03*
%TD*%
D12*
%TO.P,C6,1*%
%TO.N,+3V3*%
X126306267Y-87495000D03*
%TO.P,C6,2*%
%TO.N,GND*%
X125346267Y-87495000D03*
%TD*%
D19*
%TO.P,R7,1*%
%TO.N,QSPI_SS*%
X126216267Y-77295000D03*
%TO.P,R7,2*%
%TO.N,Net-(R7-Pad2)*%
X127236267Y-77295000D03*
%TD*%
D20*
%TO.P,C17,1*%
%TO.N,+3V3*%
X130446267Y-78545000D03*
%TO.P,C17,2*%
%TO.N,GND*%
X131406267Y-78545000D03*
%TD*%
D36*
%TO.P,C15,1*%
%TO.N,GND*%
X127226267Y-94215000D03*
%TO.P,C15,2*%
%TO.N,XIN*%
X127226267Y-95175000D03*
%TD*%
D16*
%TO.P,C1,1*%
%TO.N,+3V3*%
X132526267Y-78975000D03*
%TO.P,C1,2*%
%TO.N,GND*%
X132526267Y-78015000D03*
%TD*%
D12*
%TO.P,C3,1*%
%TO.N,+3V3*%
X125606267Y-86495000D03*
%TO.P,C3,2*%
%TO.N,GND*%
X124646267Y-86495000D03*
%TD*%
D20*
%TO.P,C9,1*%
%TO.N,+3V3*%
X136546267Y-88795000D03*
%TO.P,C9,2*%
%TO.N,GND*%
X137506267Y-88795000D03*
%TD*%
D36*
%TO.P,C20,1*%
%TO.N,GND*%
X128426267Y-72585000D03*
%TO.P,C20,2*%
%TO.N,+3V3*%
X128426267Y-73545000D03*
%TD*%
%TO.P,C21,1*%
%TO.N,GND*%
X127176267Y-72565000D03*
%TO.P,C21,2*%
%TO.N,+3V3*%
X127176267Y-73525000D03*
%TD*%
D10*
%TO.P,J2,1,Pin_1*%
%TO.N,GPIO0*%
X122036267Y-50665000D03*
D11*
%TO.P,J2,2,Pin_2*%
%TO.N,GPIO1*%
X122036267Y-53205000D03*
%TO.P,J2,3,Pin_3*%
%TO.N,GND*%
X122036267Y-55745000D03*
%TO.P,J2,4,Pin_4*%
%TO.N,GPIO2*%
X122036267Y-58285000D03*
%TO.P,J2,5,Pin_5*%
%TO.N,GPIO3*%
X122036267Y-60825000D03*
%TO.P,J2,6,Pin_6*%
%TO.N,GPIO4*%
X122036267Y-63365000D03*
%TO.P,J2,7,Pin_7*%
%TO.N,GPIO5*%
X122036267Y-65905000D03*
%TO.P,J2,8,Pin_8*%
%TO.N,GND*%
X122036267Y-68445000D03*
%TO.P,J2,9,Pin_9*%
%TO.N,GPIO6*%
X122036267Y-70985000D03*
%TO.P,J2,10,Pin_10*%
%TO.N,GPIO7*%
X122036267Y-73525000D03*
%TO.P,J2,11,Pin_11*%
%TO.N,GPIO8*%
X122036267Y-76065000D03*
%TO.P,J2,12,Pin_12*%
%TO.N,GPIO9*%
X122036267Y-78605000D03*
%TO.P,J2,13,Pin_13*%
%TO.N,GND*%
X122036267Y-81145000D03*
%TO.P,J2,14,Pin_14*%
%TO.N,GPIO10*%
X122036267Y-83685000D03*
%TO.P,J2,15,Pin_15*%
%TO.N,GPIO11*%
X122036267Y-86225000D03*
%TO.P,J2,16,Pin_16*%
%TO.N,GPIO12*%
X122036267Y-88765000D03*
%TO.P,J2,17,Pin_17*%
%TO.N,GPIO13*%
X122036267Y-91305000D03*
%TO.P,J2,18,Pin_18*%
%TO.N,GND*%
X122036267Y-93845000D03*
%TO.P,J2,19,Pin_19*%
%TO.N,GPIO14*%
X122036267Y-96385000D03*
%TO.P,J2,20,Pin_20*%
%TO.N,GPIO15*%
X122036267Y-98925000D03*
%TD*%
D20*
%TO.P,C5,1*%
%TO.N,+3V3*%
X136446267Y-87795000D03*
%TO.P,C5,2*%
%TO.N,GND*%
X137406267Y-87795000D03*
%TD*%
D37*
%TO.N,GPIO7*%
X128483181Y-88248501D03*
%TO.N,XIN*%
X130526267Y-89315229D03*
%TO.N,GPIO2*%
X126381247Y-85285000D03*
%TO.N,GND*%
X131226267Y-95595000D03*
%TO.N,+3V3*%
X129326267Y-77995000D03*
%TO.N,GND*%
X131526267Y-76695000D03*
%TO.N,+3V3*%
X130426267Y-59395000D03*
%TO.N,GND*%
X130646267Y-92095000D03*
X127326267Y-82195000D03*
%TO.N,GPIO25*%
X135526267Y-93695000D03*
%TO.N,GND*%
X130938416Y-58780421D03*
%TO.N,GPIO4*%
X126426267Y-86495000D03*
%TO.N,RUN*%
X138725267Y-69795000D03*
%TO.N,+1V1*%
X131726267Y-89315229D03*
%TO.N,QSPI_SS*%
X127773996Y-70371649D03*
%TO.N,GND*%
X129525532Y-92902792D03*
X132526267Y-78015000D03*
%TO.N,+3V3*%
X135921268Y-68934071D03*
%TO.N,GND*%
X128456794Y-72052733D03*
%TO.N,GPIO6*%
X128672210Y-87192413D03*
%TO.N,GPIO14*%
X125399960Y-91672779D03*
%TO.N,GND*%
X137126267Y-90695000D03*
%TO.N,GPIO28_ADC2*%
X133026026Y-85097820D03*
%TO.N,+3V3*%
X135921267Y-70695000D03*
%TO.N,GPIO1*%
X129918511Y-84694998D03*
%TO.N,GND*%
X137406267Y-87795000D03*
%TO.N,+1V1*%
X131326267Y-84395000D03*
%TO.N,GPIO29_ADC3*%
X133446496Y-84395000D03*
%TO.N,GPIO0*%
X128421364Y-84319780D03*
%TO.N,GPIO25*%
X133027269Y-87589486D03*
%TO.N,GND*%
X132426267Y-72295000D03*
%TO.N,+3V3*%
X136322267Y-59495000D03*
%TO.N,GND*%
X138226267Y-60195000D03*
X133826267Y-58895000D03*
%TO.N,GPIO5*%
X128419703Y-86393033D03*
%TO.N,GPIO27_ADC1*%
X133284753Y-85854830D03*
%TO.N,GND*%
X131026267Y-77895000D03*
X128626267Y-69695000D03*
X138327267Y-63695000D03*
%TO.N,GPIO26_ADC0*%
X135219436Y-85849688D03*
%TO.N,GND*%
X130426267Y-72395000D03*
X134426267Y-80095000D03*
%TO.N,+3V3*%
X127031267Y-83395000D03*
%TO.N,GND*%
X128726267Y-93445000D03*
%TO.N,GPIO11*%
X124020532Y-89895000D03*
%TO.N,+3V3*%
X133424236Y-88330271D03*
%TO.N,GND*%
X130026702Y-88690379D03*
%TO.N,XIN*%
X127026267Y-93195000D03*
%TO.N,GND*%
X132826267Y-62295000D03*
X127827267Y-72495000D03*
X135950532Y-78770735D03*
X123502002Y-76119265D03*
%TO.N,+3V3*%
X130526267Y-74995000D03*
%TO.N,GPIO3*%
X128826268Y-85520780D03*
%TO.N,Net-(R7-Pad2)*%
X132826267Y-77195000D03*
%TO.N,GND*%
X135751267Y-95095000D03*
%TO.N,QSPI_SS*%
X128127267Y-76395000D03*
%TO.N,GND*%
X127226267Y-94215000D03*
X125259817Y-67895000D03*
%TO.N,+3V3*%
X134026267Y-83595000D03*
%TO.N,GND*%
X135527501Y-81902586D03*
X137626267Y-57895000D03*
%TO.N,GPIO13*%
X128426267Y-89046474D03*
%TO.N,GND*%
X138326267Y-56995000D03*
%TO.N,RUN*%
X133432757Y-89130228D03*
%TO.N,+3V3*%
X131126267Y-79495000D03*
%TO.N,GPIO14*%
X129220677Y-88952061D03*
%TO.N,Net-(R7-Pad2)*%
X136226267Y-64095000D03*
%TO.N,GND*%
X128426267Y-77895000D03*
X133051267Y-65295000D03*
%TO.N,GPIO22*%
X138740191Y-80329791D03*
%TD*%
%TO.N,USB_D+*%
D38*
X131176267Y-56795000D02*
X131176267Y-55840000D01*
%TO.N,+3V3*%
X134626267Y-81955000D02*
X135026267Y-81555000D01*
%TO.N,GND*%
X132151267Y-75795000D02*
X132151267Y-75295000D01*
%TO.N,USB_D-*%
X131676267Y-56845000D02*
X132226267Y-57395000D01*
X133826267Y-78284154D02*
X133826267Y-78934154D01*
%TO.N,+1V1*%
X132326267Y-84395000D02*
X132726267Y-83995000D01*
%TO.N,GPIO2*%
X126381247Y-85286415D02*
X126489832Y-85395000D01*
%TO.N,GND*%
X130351115Y-88690379D02*
X130926267Y-88115227D01*
%TO.N,GPIO28_ADC2*%
X133128846Y-84995000D02*
X133026026Y-85097820D01*
%TO.N,+3V3*%
X135036267Y-68395000D02*
X136126267Y-68395000D01*
X131005267Y-79616000D02*
X131126267Y-79495000D01*
%TO.N,GPIO4*%
X123856817Y-68476143D02*
X123856817Y-67313857D01*
%TO.N,GPIO8*%
X124026267Y-84497450D02*
X124026267Y-84292550D01*
%TO.N,+3V3*%
X135026267Y-81555000D02*
X135026267Y-81532550D01*
%TO.N,GPIO11*%
X127488767Y-89395000D02*
X127488767Y-89831500D01*
%TO.N,GPIO23*%
X135226267Y-78895000D02*
X135226267Y-76195000D01*
%TO.N,GPIO10*%
X123187267Y-88356000D02*
X123187267Y-88288240D01*
%TO.N,GND*%
X132151267Y-74795000D02*
X132151267Y-74295000D01*
%TO.N,Net-(D2-A)*%
X134016267Y-68395000D02*
X134016267Y-69517500D01*
%TO.N,GPIO24*%
X135326267Y-86595000D02*
X135626267Y-86295000D01*
%TO.N,GND*%
X128726267Y-92135000D02*
X128766267Y-92095000D01*
%TO.N,+3V3*%
X136961267Y-67430000D02*
X136961267Y-65375000D01*
%TO.N,GPIO20*%
X135126267Y-88595000D02*
X135526267Y-88995000D01*
%TO.N,GPIO10*%
X124470475Y-89495000D02*
X124269475Y-89294000D01*
%TO.N,GPIO22*%
X138665267Y-85088900D02*
X137726267Y-86027900D01*
%TO.N,GND*%
X131936267Y-78015000D02*
X131406267Y-78545000D01*
%TO.N,GPIO11*%
X127226267Y-90094000D02*
X127027267Y-89895000D01*
%TO.N,USB_D-*%
X131676267Y-54863000D02*
X131676267Y-55840000D01*
%TO.N,GPIO20*%
X138226267Y-91595000D02*
X138226267Y-89695000D01*
%TO.N,GND*%
X129926267Y-87795000D02*
X130926267Y-86795000D01*
%TO.N,GPIO24*%
X137726267Y-82395000D02*
X135428267Y-80097000D01*
%TO.N,GPIO21*%
X138264267Y-89057000D02*
X138264267Y-86057000D01*
%TO.N,GPIO29_ADC3*%
X134363767Y-84595000D02*
X133646496Y-84595000D01*
%TO.N,GPIO17*%
X135716267Y-96385000D02*
X139816267Y-96385000D01*
%TO.N,+3V3*%
X129101267Y-78545000D02*
X129101267Y-78220000D01*
%TO.N,GPIO28_ADC2*%
X134363767Y-84995000D02*
X133128846Y-84995000D01*
%TO.N,+1V1*%
X129726267Y-92095000D02*
X129726267Y-92077450D01*
%TO.N,+3V3*%
X131126267Y-83357500D02*
X131126267Y-82822226D01*
%TO.N,GPIO15*%
X124626267Y-96335000D02*
X122036267Y-98925000D01*
%TO.N,GND*%
X126251267Y-80045000D02*
X126949267Y-80045000D01*
%TO.N,GPIO22*%
X136126267Y-87095000D02*
X135826267Y-87395000D01*
%TO.N,VBUS*%
X128261267Y-58460000D02*
X128426267Y-58295000D01*
%TO.N,USB_D-*%
X133235237Y-80052429D02*
X132977738Y-80309927D01*
%TO.N,GPIO8*%
X124026267Y-78055000D02*
X122036267Y-76065000D01*
%TO.N,+3V3*%
X127176267Y-73525000D02*
X128406267Y-73525000D01*
%TO.N,XOUT*%
X128216268Y-91395000D02*
X127836267Y-91775001D01*
%TO.N,QSPI_SD2*%
X129126267Y-83357500D02*
X129126267Y-81295000D01*
%TO.N,+3V3*%
X131126267Y-83357500D02*
X131526267Y-83357500D01*
X133424236Y-88189852D02*
X133819088Y-87795000D01*
%TO.N,GPIO19*%
X135126267Y-89195000D02*
X135126267Y-91295000D01*
X135126267Y-91295000D02*
X136225267Y-92394000D01*
%TO.N,GPIO22*%
X138665267Y-80404715D02*
X138665267Y-85088900D01*
%TO.N,GPIO2*%
X124327267Y-64695000D02*
X124327267Y-60576000D01*
%TO.N,+1V1*%
X132726267Y-82795000D02*
X132726267Y-83357500D01*
%TO.N,GND*%
X138226267Y-60195000D02*
X138226267Y-58495000D01*
X122036267Y-81145000D02*
X122076267Y-81145000D01*
%TO.N,Net-(C16-Pad2)*%
X130916267Y-93435000D02*
X130926267Y-93445000D01*
%TO.N,GPIO5*%
X123455817Y-68642243D02*
X123455817Y-67824550D01*
%TO.N,GND*%
X139126324Y-68445000D02*
X139816267Y-68445000D01*
%TO.N,GPIO23*%
X137896267Y-73525000D02*
X139816267Y-73525000D01*
%TO.N,GPIO8*%
X123985267Y-84538450D02*
X124026267Y-84497450D01*
%TO.N,GPIO5*%
X125026267Y-75795000D02*
X124526267Y-75295000D01*
%TO.N,VBUS*%
X134096275Y-53719000D02*
X133536259Y-53719000D01*
%TO.N,USB_D-*%
X132113203Y-60994000D02*
X132026267Y-61080936D01*
%TO.N,GPIO16*%
X133126267Y-90232500D02*
X133126267Y-91127900D01*
%TO.N,GPIO7*%
X128416320Y-88181640D02*
X128416320Y-87785053D01*
%TO.N,QSPI_SS*%
X128127267Y-76395000D02*
X128101818Y-76395000D01*
%TO.N,GPIO2*%
X124658817Y-68143943D02*
X124658817Y-67646057D01*
%TO.N,GPIO24*%
X135428267Y-79679957D02*
X134628267Y-78879957D01*
%TO.N,GPIO12*%
X128063767Y-90495000D02*
X123766267Y-90495000D01*
%TO.N,GPIO3*%
X124825267Y-74194000D02*
X124825267Y-68877493D01*
%TO.N,Net-(C16-Pad2)*%
X132176267Y-93445000D02*
X132426267Y-93195000D01*
%TO.N,GPIO16*%
X133126267Y-91127900D02*
X133867267Y-91868900D01*
%TO.N,+3V3*%
X137727267Y-62914000D02*
X139816267Y-60825000D01*
%TO.N,USB_D-*%
X130676267Y-54882000D02*
X130744267Y-54814000D01*
%TO.N,GPIO8*%
X124026267Y-85292550D02*
X123985267Y-85251550D01*
%TO.N,Net-(C16-Pad2)*%
X130724267Y-93445000D02*
X129727267Y-94442000D01*
%TO.N,+1V1*%
X132902267Y-82619000D02*
X132726267Y-82795000D01*
%TO.N,Net-(U1-USB_DM)*%
X132326267Y-83357500D02*
X132326267Y-82345000D01*
%TO.N,GPIO8*%
X124026267Y-88095000D02*
X124026267Y-85292550D01*
%TO.N,GND*%
X135526649Y-82288282D02*
X135947267Y-82708900D01*
X128426267Y-72083260D02*
X128456794Y-72052733D01*
%TO.N,QSPI_SD2*%
X125426267Y-80195000D02*
X125426267Y-79795000D01*
%TO.N,GND*%
X127226267Y-78243000D02*
X127574267Y-77895000D01*
X131406267Y-78545000D02*
X131406267Y-78275000D01*
X130926267Y-95295000D02*
X131226267Y-95595000D01*
%TO.N,VBUS*%
X125826267Y-58045000D02*
X128176267Y-58045000D01*
%TO.N,GND*%
X131526267Y-76695000D02*
X131526267Y-76120000D01*
%TO.N,USB_D+*%
X133426267Y-71513198D02*
X133426267Y-79225000D01*
%TO.N,GPIO4*%
X124424267Y-66293000D02*
X122826267Y-64695000D01*
%TO.N,+3V3*%
X135237267Y-80668450D02*
X135026267Y-80457450D01*
%TO.N,GPIO23*%
X137325267Y-85696000D02*
X138126267Y-84895000D01*
%TO.N,GPIO2*%
X125493367Y-74295000D02*
X125226267Y-74027900D01*
%TO.N,USB_D-*%
X131676267Y-55840000D02*
X131676267Y-56845000D01*
%TO.N,VBUS*%
X137150275Y-50665000D02*
X134096275Y-53719000D01*
%TO.N,+1V1*%
X133626267Y-81975000D02*
X133626267Y-81985340D01*
%TO.N,GPIO6*%
X128672210Y-87192413D02*
X128672210Y-87001046D01*
%TO.N,GPIO9*%
X127488767Y-88595000D02*
X126426267Y-88595000D01*
%TO.N,GPIO14*%
X122587267Y-95834000D02*
X122036267Y-96385000D01*
%TO.N,GND*%
X125259817Y-67895000D02*
X127059817Y-69695000D01*
%TO.N,GPIO21*%
X135326267Y-88195000D02*
X135926267Y-88795000D01*
%TO.N,GND*%
X139341191Y-80080848D02*
X138989134Y-79728791D01*
%TO.N,GPIO27_ADC1*%
X133284753Y-85854830D02*
X133280088Y-85850165D01*
%TO.N,+3V3*%
X129701267Y-73795000D02*
X130201267Y-73795000D01*
%TO.N,USB_D-*%
X130676267Y-55840000D02*
X130676267Y-54882000D01*
%TO.N,+3V3*%
X135575338Y-68934071D02*
X135036267Y-68395000D01*
%TO.N,GPIO9*%
X124824267Y-88893000D02*
X124092367Y-88893000D01*
%TO.N,+3V3*%
X131126267Y-79495000D02*
X132006267Y-79495000D01*
%TO.N,GND*%
X135947267Y-82720000D02*
X136506267Y-83279000D01*
%TO.N,Net-(D1-A)*%
X134626267Y-65295000D02*
X135861267Y-65295000D01*
%TO.N,GPIO8*%
X123985267Y-84251550D02*
X123985267Y-83538450D01*
%TO.N,GND*%
X139816267Y-80585000D02*
X139341191Y-80109924D01*
%TO.N,GPIO29_ADC3*%
X133646496Y-84595000D02*
X133446496Y-84395000D01*
%TO.N,+3V3*%
X136126267Y-68395000D02*
X137026267Y-67495000D01*
%TO.N,GND*%
X130626267Y-58605000D02*
X130762995Y-58605000D01*
X126606267Y-50745000D02*
X135246267Y-50745000D01*
X123502002Y-70470735D02*
X122626267Y-69595000D01*
%TO.N,USB_D-*%
X132026267Y-61080936D02*
X132026267Y-65786100D01*
%TO.N,GPIO8*%
X124326267Y-88395000D02*
X124026267Y-88095000D01*
%TO.N,GPIO7*%
X128416320Y-87785053D02*
X128026267Y-87395000D01*
%TO.N,GPIO10*%
X126726267Y-88995000D02*
X126226267Y-89495000D01*
%TO.N,VBUS*%
X133140267Y-55604000D02*
X133376267Y-55840000D01*
%TO.N,Net-(R7-Pad2)*%
X132726267Y-77295000D02*
X132826267Y-77195000D01*
%TO.N,GPIO23*%
X137325267Y-86596000D02*
X137325267Y-85696000D01*
%TO.N,QSPI_SS*%
X127901818Y-76595000D02*
X126916267Y-76595000D01*
%TO.N,USB_D-*%
X132126267Y-60994000D02*
X132113203Y-60994000D01*
%TO.N,GPIO10*%
X127488767Y-88995000D02*
X126726267Y-88995000D01*
%TO.N,Net-(C16-Pad2)*%
X130926267Y-93445000D02*
X132176267Y-93445000D01*
%TO.N,SWD*%
X132326267Y-90895000D02*
X133466267Y-92035000D01*
%TO.N,GPIO6*%
X128666164Y-86995000D02*
X127488767Y-86995000D01*
%TO.N,QSPI_SD1*%
X128726267Y-83357500D02*
X128726267Y-81695000D01*
%TO.N,GND*%
X133626267Y-80895000D02*
X134426267Y-80095000D01*
%TO.N,QSPI_CLK*%
X129926267Y-79904202D02*
X129926267Y-83357500D01*
%TO.N,GND*%
X123807307Y-55176040D02*
X123926267Y-55057081D01*
X127757267Y-72565000D02*
X127827267Y-72495000D01*
%TO.N,GPIO10*%
X123187267Y-88288240D02*
X122626267Y-87727240D01*
X123187267Y-88555000D02*
X123187267Y-88288240D01*
%TO.N,SWCLK*%
X129537267Y-97534000D02*
X128386267Y-98685000D01*
%TO.N,GPIO4*%
X123856817Y-67313857D02*
X124424267Y-66746407D01*
%TO.N,Net-(J1-CC1)*%
X132176267Y-56735000D02*
X132176267Y-55840000D01*
%TO.N,GPIO14*%
X129126267Y-88963760D02*
X129126267Y-90232500D01*
%TO.N,GPIO10*%
X122626267Y-87727240D02*
X122626267Y-87262760D01*
%TO.N,GPIO14*%
X124225267Y-92847472D02*
X125399960Y-91672779D01*
%TO.N,+3V3*%
X137652267Y-60825000D02*
X139816267Y-60825000D01*
X135026267Y-81532550D02*
X135237267Y-81321550D01*
%TO.N,GPIO8*%
X123985267Y-85251550D02*
X123985267Y-84538450D01*
%TO.N,GND*%
X133626267Y-81015000D02*
X133626267Y-80895000D01*
X135246267Y-50745000D02*
X135246267Y-51075000D01*
%TO.N,+3V3*%
X128676267Y-73795000D02*
X128426267Y-73545000D01*
%TO.N,GPIO25*%
X133027269Y-87589486D02*
X133026269Y-87588486D01*
%TO.N,GPIO8*%
X127488767Y-88195000D02*
X126226267Y-88195000D01*
%TO.N,+1V1*%
X131515267Y-91484000D02*
X131526267Y-91495000D01*
%TO.N,+3V3*%
X129376267Y-60170000D02*
X129376267Y-71095000D01*
%TO.N,XOUT*%
X130153617Y-91083000D02*
X129841617Y-91395000D01*
%TO.N,GPIO19*%
X134363767Y-88995000D02*
X134926267Y-88995000D01*
%TO.N,GND*%
X130926267Y-73570000D02*
X130926267Y-72895000D01*
%TO.N,+3V3*%
X126606267Y-87795000D02*
X126306267Y-87495000D01*
%TO.N,XIN*%
X126526267Y-94475000D02*
X126526267Y-93695000D01*
%TO.N,QSPI_SD2*%
X128626267Y-80795000D02*
X126026267Y-80795000D01*
%TO.N,+3V3*%
X136446267Y-87795000D02*
X134363767Y-87795000D01*
%TO.N,QSPI_SS*%
X126251267Y-77330000D02*
X126216267Y-77295000D01*
%TO.N,+3V3*%
X135027267Y-79846057D02*
X134227267Y-79046057D01*
%TO.N,GPIO15*%
X128050168Y-90994000D02*
X127574338Y-91469830D01*
%TO.N,QSPI_SD1*%
X128226267Y-81195000D02*
X125826267Y-81195000D01*
%TO.N,GPIO8*%
X124893367Y-88395000D02*
X124326267Y-88395000D01*
%TO.N,+3V3*%
X125606267Y-84975000D02*
X125526267Y-84895000D01*
%TO.N,GND*%
X123502002Y-76119265D02*
X123502002Y-70470735D01*
%TO.N,GPIO14*%
X124225267Y-95596000D02*
X124225267Y-93595000D01*
%TO.N,GND*%
X124646267Y-86495000D02*
X124646267Y-84975000D01*
%TO.N,USB_D+*%
X130176267Y-55840000D02*
X130176267Y-56817000D01*
%TO.N,VBUS*%
X133140267Y-54114992D02*
X133140267Y-55604000D01*
%TO.N,GPIO19*%
X138665267Y-91888900D02*
X138665267Y-89916000D01*
%TO.N,GPIO2*%
X125010874Y-67294000D02*
X125226267Y-67294000D01*
%TO.N,GND*%
X131436267Y-95145000D02*
X132426267Y-94155000D01*
%TO.N,GPIO2*%
X125226267Y-65594000D02*
X124327267Y-64695000D01*
%TO.N,+3V3*%
X129701267Y-73795000D02*
X128676267Y-73795000D01*
%TO.N,+1V1*%
X133626267Y-81985340D02*
X132992607Y-82619000D01*
%TO.N,USB_D-*%
X133826267Y-79461397D02*
G75*
G03*
X133826247Y-79628184I83333J-83403D01*
G01*
%TO.N,+3V3*%
X133526267Y-83055000D02*
X134626267Y-81955000D01*
%TO.N,GPIO18*%
X134363767Y-89395000D02*
X134363767Y-91165400D01*
%TO.N,GPIO12*%
X128326267Y-90232500D02*
X128063767Y-90495000D01*
%TO.N,GPIO24*%
X135626267Y-86295000D02*
X136626267Y-86295000D01*
%TO.N,GPIO23*%
X137226267Y-86695000D02*
X137325267Y-86596000D01*
%TO.N,GPIO1*%
X129025267Y-84919780D02*
X128577325Y-84919780D01*
%TO.N,+3V3*%
X136961267Y-65375000D02*
X137727267Y-64609000D01*
X134227267Y-79046057D02*
X134227267Y-72389000D01*
%TO.N,GPIO5*%
X123455817Y-67824550D02*
X122826267Y-67195000D01*
%TO.N,GPIO24*%
X136924267Y-85997000D02*
X136924267Y-85497000D01*
%TO.N,Net-(J1-CC2)*%
X130626267Y-57585000D02*
X129944267Y-57585000D01*
%TO.N,GPIO9*%
X123526267Y-80095000D02*
X122036267Y-78605000D01*
%TO.N,GPIO18*%
X134727267Y-91528900D02*
X134727267Y-91596000D01*
%TO.N,GND*%
X123238348Y-55745000D02*
X123807307Y-55176040D01*
%TO.N,SWCLK*%
X133037267Y-94784000D02*
X130287267Y-97534000D01*
%TO.N,GND*%
X139776267Y-93845000D02*
X139526267Y-94095000D01*
%TO.N,GPIO20*%
X136524267Y-91993000D02*
X137828267Y-91993000D01*
%TO.N,GPIO27_ADC1*%
X133426267Y-85546109D02*
X133577376Y-85395000D01*
%TO.N,GPIO15*%
X129526267Y-90232500D02*
X129526267Y-90795000D01*
%TO.N,GPIO4*%
X122826267Y-64155000D02*
X122036267Y-63365000D01*
%TO.N,XOUT*%
X130726267Y-90895000D02*
X130538267Y-91083000D01*
%TO.N,GND*%
X133826267Y-58895000D02*
X133316267Y-58895000D01*
%TO.N,VBUS*%
X128476267Y-56545000D02*
X128426267Y-56595000D01*
%TO.N,GPIO2*%
X126381247Y-85285000D02*
X126381247Y-85286415D01*
%TO.N,GPIO15*%
X129526267Y-90795000D02*
X129327267Y-90994000D01*
%TO.N,GPIO20*%
X135526267Y-90995000D02*
X136524267Y-91993000D01*
%TO.N,RUN*%
X133265815Y-89297170D02*
X132850914Y-89297170D01*
%TO.N,+3V3*%
X134026267Y-83595000D02*
X134026267Y-83857500D01*
%TO.N,QSPI_SD1*%
X125026267Y-80395000D02*
X125026267Y-79445000D01*
%TO.N,GPIO23*%
X138126267Y-81795000D02*
X135226267Y-78895000D01*
%TO.N,+3V3*%
X137727267Y-64609000D02*
X137727267Y-62914000D01*
%TO.N,USB_D-*%
X133402003Y-80052429D02*
G75*
G03*
X133235237Y-80052429I-83383J-83388D01*
G01*
%TO.N,GPIO21*%
X137226267Y-91495000D02*
X137726267Y-90995000D01*
%TO.N,GPIO9*%
X123326267Y-87795000D02*
X123326267Y-87295000D01*
%TO.N,GPIO25*%
X135526267Y-93695000D02*
X136416267Y-93695000D01*
%TO.N,USB_D+*%
X131176267Y-55840000D02*
X131176267Y-56927501D01*
%TO.N,GND*%
X138325267Y-63697000D02*
X138325267Y-67643943D01*
%TO.N,GPIO20*%
X137828267Y-91993000D02*
X138226267Y-91595000D01*
%TO.N,GND*%
X131426267Y-76020000D02*
X131926267Y-76020000D01*
X127226267Y-94215000D02*
X127956267Y-94215000D01*
%TO.N,USB_D+*%
X131567168Y-57318402D02*
X131567168Y-69654099D01*
%TO.N,QSPI_SS*%
X127773996Y-70547271D02*
X127226267Y-71095000D01*
%TO.N,USB_D+*%
X131567168Y-69654099D02*
X133426267Y-71513198D01*
%TO.N,USB_D-*%
X132126267Y-60980936D02*
X132126267Y-60994000D01*
%TO.N,QSPI_CLK*%
X129567065Y-79545000D02*
X129926267Y-79904202D01*
%TO.N,GPIO0*%
X128421364Y-84399903D02*
X128226267Y-84595000D01*
%TO.N,GPIO5*%
X122826267Y-67195000D02*
X122826267Y-66695000D01*
%TO.N,GPIO19*%
X136225267Y-92394000D02*
X138160167Y-92394000D01*
%TO.N,GPIO10*%
X123187267Y-86701760D02*
X123187267Y-85748240D01*
%TO.N,XIN*%
X127226267Y-95175000D02*
X128696267Y-95175000D01*
%TO.N,GND*%
X124566267Y-84895000D02*
X124566267Y-83895000D01*
%TO.N,+3V3*%
X125606267Y-86495000D02*
X125606267Y-84975000D01*
%TO.N,GPIO5*%
X122826267Y-66695000D02*
X122036267Y-65905000D01*
%TO.N,GPIO9*%
X124092367Y-88893000D02*
X123626267Y-88426900D01*
%TO.N,GPIO3*%
X123926267Y-64995000D02*
X123926267Y-63195000D01*
%TO.N,GND*%
X139816267Y-81145000D02*
X139816267Y-81901564D01*
%TO.N,QSPI_SD3*%
X129101267Y-79045000D02*
X129634165Y-79045000D01*
%TO.N,VBUS*%
X128176267Y-58045000D02*
X128426267Y-58295000D01*
%TO.N,+3V3*%
X129376267Y-60170000D02*
X129651267Y-60170000D01*
X133126267Y-83357500D02*
X133526267Y-83357500D01*
%TO.N,QSPI_SD3*%
X129634165Y-79045000D02*
X130326267Y-79737102D01*
%TO.N,QSPI_CLK*%
X129101267Y-79545000D02*
X129567065Y-79545000D01*
%TO.N,QSPI_SS*%
X126916267Y-76595000D02*
X126216267Y-77295000D01*
%TO.N,GND*%
X133626267Y-81015000D02*
X134606267Y-81015000D01*
%TO.N,GPIO10*%
X123187267Y-85748240D02*
X122626267Y-85187240D01*
%TO.N,GND*%
X130386267Y-72295000D02*
X130386267Y-72355000D01*
%TO.N,GPIO21*%
X137726267Y-90995000D02*
X137726267Y-89595000D01*
%TO.N,USB_D-*%
X131627267Y-54814000D02*
X131676267Y-54863000D01*
%TO.N,QSPI_SS*%
X127773996Y-70371649D02*
X127773996Y-70547271D01*
%TO.N,+3V3*%
X130201267Y-73795000D02*
X130426267Y-73570000D01*
%TO.N,Net-(C16-Pad2)*%
X129727267Y-96046000D02*
X126977267Y-96046000D01*
%TO.N,GPIO8*%
X124026267Y-84292550D02*
X123985267Y-84251550D01*
%TO.N,GPIO4*%
X122826267Y-64695000D02*
X122826267Y-64155000D01*
X125126267Y-75295000D02*
X124726267Y-74895000D01*
%TO.N,Net-(D3-A)*%
X137326267Y-93805000D02*
X137436267Y-93695000D01*
%TO.N,GPIO9*%
X123526267Y-85520140D02*
X123526267Y-80095000D01*
%TO.N,GND*%
X125346267Y-87495000D02*
X125346267Y-87195000D01*
%TO.N,USB_D+*%
X131176267Y-56927501D02*
X131567168Y-57318402D01*
%TO.N,GPIO14*%
X124225267Y-93595000D02*
X124225267Y-92847472D01*
%TO.N,+3V3*%
X136526267Y-88875000D02*
X136446267Y-88795000D01*
%TO.N,QSPI_SS*%
X128326267Y-83357500D02*
X128326267Y-81995000D01*
%TO.N,GND*%
X134176267Y-55840000D02*
X134331267Y-55840000D01*
%TO.N,GPIO22*%
X135826267Y-87395000D02*
X134363767Y-87395000D01*
%TO.N,+3V3*%
X129101267Y-78220000D02*
X129326267Y-77995000D01*
%TO.N,XIN*%
X128696267Y-95175000D02*
X128726267Y-95145000D01*
%TO.N,+1V1*%
X131726267Y-89315229D02*
X131707038Y-89315229D01*
%TO.N,GPIO27_ADC1*%
X133426267Y-85695002D02*
X133426267Y-85546109D01*
%TO.N,GPIO15*%
X129327267Y-90994000D02*
X128050168Y-90994000D01*
%TO.N,GPIO18*%
X135926267Y-92795000D02*
X138326267Y-92795000D01*
%TO.N,GPIO0*%
X128421364Y-84319780D02*
X128421364Y-84399903D01*
%TO.N,Net-(U4-REGOUT)*%
X131426267Y-72295000D02*
X131426267Y-73570000D01*
%TO.N,XOUT*%
X129841617Y-91395000D02*
X128216268Y-91395000D01*
%TO.N,+3V3*%
X135921268Y-68934071D02*
X135575338Y-68934071D01*
%TO.N,GND*%
X134176267Y-57255000D02*
X134176267Y-55840000D01*
%TO.N,GPIO1*%
X128577325Y-84919780D02*
X128502105Y-84995000D01*
%TO.N,GPIO3*%
X125426267Y-74795000D02*
X124825267Y-74194000D01*
%TO.N,GPIO23*%
X138126267Y-84895000D02*
X138126267Y-81795000D01*
%TO.N,GND*%
X134606267Y-81015000D02*
X134626267Y-80995000D01*
%TO.N,GPIO5*%
X128419703Y-86393033D02*
X128217736Y-86595000D01*
%TO.N,GPIO2*%
X124658817Y-67646057D02*
X125010874Y-67294000D01*
%TO.N,GND*%
X139816267Y-81145000D02*
X139816267Y-80585000D01*
%TO.N,Net-(R7-Pad2)*%
X127236267Y-77295000D02*
X132726267Y-77295000D01*
%TO.N,QSPI_SS*%
X127926267Y-81595000D02*
X125626267Y-81595000D01*
%TO.N,Net-(R7-Pad2)*%
X137026267Y-63295000D02*
X137026267Y-62295000D01*
%TO.N,GND*%
X127676267Y-55840000D02*
X127521267Y-55840000D01*
%TO.N,GPIO3*%
X128826268Y-85520780D02*
X128645371Y-85520780D01*
%TO.N,GND*%
X131926267Y-76020000D02*
X132151267Y-75795000D01*
%TO.N,GPIO12*%
X123766267Y-90495000D02*
X122036267Y-88765000D01*
%TO.N,GPIO22*%
X138740191Y-80329791D02*
X138665267Y-80404715D01*
%TO.N,GPIO27_ADC1*%
X133280088Y-85841181D02*
X133426267Y-85695002D01*
%TO.N,GND*%
X138960058Y-79728791D02*
X138002002Y-78770735D01*
%TO.N,QSPI_SD0*%
X129526267Y-80470000D02*
X129101267Y-80045000D01*
%TO.N,+3V3*%
X133424236Y-88330271D02*
X133290996Y-88330271D01*
X130426267Y-74895000D02*
X130426267Y-73570000D01*
X130526267Y-74995000D02*
X130426267Y-74895000D01*
%TO.N,GPIO17*%
X134326267Y-91695000D02*
X134326267Y-94995000D01*
%TO.N,GND*%
X127226267Y-79768000D02*
X127226267Y-78243000D01*
X130926267Y-73896848D02*
X130926267Y-73570000D01*
%TO.N,QSPI_SS*%
X124626267Y-80595000D02*
X124626267Y-79195000D01*
%TO.N,QSPI_SD1*%
X125826267Y-81195000D02*
X125026267Y-80395000D01*
%TO.N,VBUS*%
X128476267Y-55840000D02*
X128476267Y-56545000D01*
%TO.N,USB_D-*%
X130744267Y-54814000D02*
X131627267Y-54814000D01*
X133568769Y-80052430D02*
G75*
G02*
X133402016Y-80052416I-83369J83430D01*
G01*
%TO.N,GPIO9*%
X125926267Y-89095000D02*
X125026267Y-89095000D01*
%TO.N,GPIO24*%
X136626267Y-86295000D02*
X136924267Y-85997000D01*
%TO.N,GPIO23*%
X135926267Y-86695000D02*
X137226267Y-86695000D01*
%TO.N,+3V3*%
X128246267Y-71095000D02*
X129376267Y-71095000D01*
%TO.N,GND*%
X128726267Y-93445000D02*
X128726267Y-92135000D01*
%TO.N,GPIO18*%
X134727267Y-91596000D02*
X135926267Y-92795000D01*
%TO.N,+1V1*%
X131526267Y-91495000D02*
X131526267Y-92015000D01*
%TO.N,GPIO5*%
X124325267Y-75061100D02*
X124325267Y-74828200D01*
%TO.N,+3V3*%
X135546267Y-82875000D02*
X134626267Y-81955000D01*
%TO.N,GND*%
X138226267Y-58495000D02*
X137626267Y-57895000D01*
%TO.N,GPIO3*%
X122726267Y-61515000D02*
X122036267Y-60825000D01*
%TO.N,VBUS*%
X128426267Y-56595000D02*
X128426267Y-58295000D01*
%TO.N,GPIO9*%
X123326267Y-87295000D02*
X123626267Y-86995000D01*
%TO.N,GPIO4*%
X127488767Y-86195000D02*
X126726267Y-86195000D01*
%TO.N,GPIO20*%
X134363767Y-88595000D02*
X135126267Y-88595000D01*
%TO.N,GPIO10*%
X124626267Y-89495000D02*
X124470475Y-89495000D01*
%TO.N,GPIO1*%
X129918511Y-84694998D02*
X129719509Y-84894000D01*
%TO.N,Net-(C16-Pad2)*%
X129727267Y-94442000D02*
X129727267Y-96046000D01*
%TO.N,GPIO2*%
X126489832Y-85395000D02*
X127488767Y-85395000D01*
%TO.N,GPIO1*%
X129719509Y-84894000D02*
X129025267Y-84894000D01*
%TO.N,GPIO9*%
X123626267Y-88095000D02*
X123326267Y-87795000D01*
%TO.N,GPIO10*%
X126226267Y-89495000D02*
X124626267Y-89495000D01*
%TO.N,GND*%
X130926267Y-95145000D02*
X131436267Y-95145000D01*
%TO.N,GPIO5*%
X124526267Y-75262100D02*
X124325267Y-75061100D01*
%TO.N,+3V3*%
X131126267Y-88995000D02*
X131126267Y-90232500D01*
%TO.N,GND*%
X124646267Y-84975000D02*
X124566267Y-84895000D01*
%TO.N,GPIO7*%
X128026267Y-87395000D02*
X127488767Y-87395000D01*
%TO.N,GPIO14*%
X123436267Y-96385000D02*
X123726267Y-96095000D01*
%TO.N,GND*%
X139341191Y-80109924D02*
X139341191Y-80080848D01*
%TO.N,GPIO24*%
X134628267Y-78879957D02*
X134628267Y-76173000D01*
%TO.N,GPIO9*%
X123626267Y-88426900D02*
X123626267Y-88095000D01*
%TO.N,GPIO5*%
X129701267Y-75795000D02*
X125026267Y-75795000D01*
%TO.N,USB_D-*%
X132926267Y-70376802D02*
X133826267Y-71276802D01*
%TO.N,GPIO26_ADC0*%
X135213820Y-85849688D02*
X135159132Y-85795000D01*
%TO.N,GPIO21*%
X139816267Y-84505000D02*
X139816267Y-83685000D01*
%TO.N,GND*%
X135526649Y-81903438D02*
X135527501Y-81902586D01*
X122036267Y-55745000D02*
X123238348Y-55745000D01*
%TO.N,GPIO19*%
X138160167Y-92394000D02*
X138665267Y-91888900D01*
%TO.N,RUN*%
X133432757Y-89130228D02*
X133265815Y-89297170D01*
%TO.N,GPIO21*%
X135926267Y-88795000D02*
X135926267Y-90795000D01*
%TO.N,GPIO25*%
X133026269Y-87588486D02*
X133026269Y-86995000D01*
%TO.N,+3V3*%
X133526267Y-83357500D02*
X133526267Y-83055000D01*
%TO.N,GND*%
X130762995Y-58605000D02*
X130938416Y-58780421D01*
%TO.N,XIN*%
X130326267Y-89515230D02*
X130326267Y-90232500D01*
%TO.N,GPIO24*%
X134628267Y-76173000D02*
X139816267Y-70985000D01*
%TO.N,GPIO15*%
X127574338Y-91469830D02*
X126451437Y-91469830D01*
%TO.N,QSPI_SD2*%
X126026267Y-80795000D02*
X125426267Y-80195000D01*
%TO.N,GND*%
X127521267Y-55840000D02*
X126606267Y-54925000D01*
%TO.N,GPIO13*%
X128426267Y-89046474D02*
X128426268Y-89046475D01*
%TO.N,GND*%
X130386267Y-72355000D02*
X130426267Y-72395000D01*
%TO.N,USB_D+*%
X133426267Y-79225000D02*
X131626267Y-81025000D01*
%TO.N,GND*%
X131406267Y-78275000D02*
X131026267Y-77895000D01*
%TO.N,+3V3*%
X125526267Y-83895000D02*
X127188767Y-83895000D01*
X126531267Y-83895000D02*
X127031267Y-83395000D01*
%TO.N,GPIO10*%
X124269475Y-89294000D02*
X123926267Y-89294000D01*
X122626267Y-84275000D02*
X122036267Y-83685000D01*
%TO.N,GND*%
X127574267Y-77895000D02*
X127275267Y-78194000D01*
%TO.N,GPIO2*%
X125226267Y-74027900D02*
X125226267Y-68496000D01*
%TO.N,GND*%
X122626267Y-69035000D02*
X122036267Y-68445000D01*
%TO.N,GPIO22*%
X137726267Y-86895000D02*
X137526267Y-87095000D01*
%TO.N,Net-(C16-Pad2)*%
X126977267Y-96046000D02*
X126125267Y-95194000D01*
%TO.N,GPIO17*%
X134326267Y-94995000D02*
X135716267Y-96385000D01*
%TO.N,QSPI_SD2*%
X129126267Y-81295000D02*
X128626267Y-80795000D01*
%TO.N,+3V3*%
X129376267Y-72245000D02*
X129426267Y-72295000D01*
X136526267Y-88815000D02*
X136546267Y-88795000D01*
%TO.N,GPIO4*%
X124424267Y-69043593D02*
X123856817Y-68476143D01*
%TO.N,GPIO20*%
X138665267Y-89256000D02*
X138665267Y-87376000D01*
%TO.N,GND*%
X132151267Y-75295000D02*
X132151267Y-74795000D01*
%TO.N,GPIO3*%
X124257817Y-68310043D02*
X124257817Y-67479957D01*
%TO.N,GND*%
X138002002Y-78770735D02*
X135950532Y-78770735D01*
%TO.N,XOUT*%
X127836267Y-91775001D02*
X127836267Y-92095000D01*
%TO.N,+3V3*%
X134363767Y-84195000D02*
X135346267Y-84195000D01*
%TO.N,GND*%
X127275267Y-78986798D02*
X126967065Y-79295000D01*
%TO.N,GPIO7*%
X128483181Y-88248501D02*
X128416320Y-88181640D01*
%TO.N,GPIO8*%
X123985267Y-83538450D02*
X124026267Y-83497450D01*
%TO.N,GPIO3*%
X124825267Y-65894000D02*
X123926267Y-64995000D01*
%TO.N,GPIO11*%
X127027267Y-89895000D02*
X124020532Y-89895000D01*
%TO.N,GPIO2*%
X125010874Y-68496000D02*
X124658817Y-68143943D01*
%TO.N,USB_D-*%
X132977738Y-80309927D02*
X132626267Y-80661397D01*
%TO.N,GPIO3*%
X129701267Y-74795000D02*
X125426267Y-74795000D01*
%TO.N,GPIO2*%
X125226267Y-68496000D02*
X125010874Y-68496000D01*
%TO.N,RUN*%
X132726267Y-89421817D02*
X132726267Y-90232500D01*
%TO.N,SWCLK*%
X133037267Y-92206000D02*
X133037267Y-94784000D01*
%TO.N,VBUS*%
X133536259Y-53719000D02*
X133140267Y-54114992D01*
%TO.N,GND*%
X137506267Y-88795000D02*
X137506267Y-87895000D01*
%TO.N,+3V3*%
X135346267Y-84195000D02*
X135546267Y-83995000D01*
%TO.N,VBUS*%
X128476267Y-55840000D02*
X128476267Y-55063000D01*
%TO.N,XIN*%
X126526267Y-93695000D02*
X127026267Y-93195000D01*
%TO.N,GND*%
X132151267Y-74295000D02*
X132151267Y-73795000D01*
%TO.N,QSPI_SD2*%
X125426267Y-79795000D02*
X125676267Y-79545000D01*
%TO.N,GPIO8*%
X125193367Y-88695000D02*
X124893367Y-88395000D01*
%TO.N,GND*%
X127275267Y-78194000D02*
X127275267Y-78986798D01*
%TO.N,+3V3*%
X132006267Y-79495000D02*
X132526267Y-78975000D01*
%TO.N,Net-(C16-Pad2)*%
X126125267Y-92786000D02*
X126816267Y-92095000D01*
%TO.N,USB_D-*%
X132926267Y-66686100D02*
X132926267Y-70376802D01*
%TO.N,GND*%
X137506267Y-87895000D02*
X137406267Y-87795000D01*
%TO.N,Net-(D2-A)*%
X134016267Y-69517500D02*
X133738767Y-69795000D01*
%TO.N,GND*%
X128726267Y-93445000D02*
X128983324Y-93445000D01*
X127176267Y-72565000D02*
X127757267Y-72565000D01*
%TO.N,GPIO17*%
X133526267Y-90232500D02*
X133526267Y-90895000D01*
%TO.N,GPIO2*%
X129701267Y-74295000D02*
X125493367Y-74295000D01*
%TO.N,GPIO24*%
X136924267Y-85497000D02*
X137726267Y-84695000D01*
%TO.N,GPIO13*%
X128426268Y-89046475D02*
X128442174Y-89046475D01*
%TO.N,GPIO21*%
X135926267Y-90795000D02*
X136626267Y-91495000D01*
%TO.N,+3V3*%
X127488767Y-87795000D02*
X126606267Y-87795000D01*
%TO.N,USB_D-*%
X132226267Y-60880936D02*
X132126267Y-60980936D01*
%TO.N,+3V3*%
X135446267Y-83895000D02*
X135546267Y-83995000D01*
%TO.N,GPIO17*%
X133526267Y-90895000D02*
X134326267Y-91695000D01*
%TO.N,GND*%
X126266267Y-82195000D02*
X127326267Y-82195000D01*
%TO.N,+3V3*%
X135237267Y-81321550D02*
X135237267Y-80668450D01*
%TO.N,GND*%
X122036267Y-68445000D02*
X122036267Y-69005000D01*
%TO.N,+3V3*%
X125606267Y-86795000D02*
X126306267Y-87495000D01*
%TO.N,GPIO20*%
X138665267Y-87376000D02*
X139816267Y-86225000D01*
%TO.N,GPIO4*%
X129701267Y-75295000D02*
X125126267Y-75295000D01*
%TO.N,GPIO22*%
X137726267Y-86027900D02*
X137726267Y-86895000D01*
%TO.N,+3V3*%
X131126267Y-82822226D02*
X131005267Y-82701226D01*
%TO.N,Net-(U1-USB_DP)*%
X131926267Y-82345000D02*
X131626267Y-82045000D01*
%TO.N,GPIO3*%
X124825267Y-68877493D02*
X124257817Y-68310043D01*
%TO.N,GND*%
X127574267Y-77895000D02*
X128426267Y-77895000D01*
%TO.N,GPIO23*%
X134363767Y-86995000D02*
X135626267Y-86995000D01*
%TO.N,GPIO5*%
X128217736Y-86595000D02*
X127488767Y-86595000D01*
%TO.N,QSPI_SD1*%
X125426267Y-79045000D02*
X126251267Y-79045000D01*
%TO.N,+1V1*%
X130726267Y-83357500D02*
X130726267Y-83995000D01*
%TO.N,GPIO5*%
X124023267Y-74526200D02*
X124023267Y-69209693D01*
%TO.N,+3V3*%
X130446267Y-78545000D02*
X129101267Y-78545000D01*
%TO.N,GPIO16*%
X133867267Y-97436000D02*
X135356267Y-98925000D01*
%TO.N,USB_D-*%
X132226267Y-57395000D02*
X132226267Y-60880936D01*
%TO.N,VBUS*%
X128476267Y-55063000D02*
X129820267Y-53719000D01*
%TO.N,GND*%
X132151267Y-74295000D02*
X131324419Y-74295000D01*
%TO.N,+3V3*%
X135026267Y-80344943D02*
X135027267Y-80343943D01*
%TO.N,GPIO8*%
X125726267Y-88695000D02*
X125193367Y-88695000D01*
%TO.N,QSPI_SS*%
X125276267Y-78545000D02*
X126251267Y-78545000D01*
X128326267Y-81995000D02*
X127926267Y-81595000D01*
%TO.N,GPIO3*%
X124825267Y-66912507D02*
X124825267Y-65894000D01*
%TO.N,+3V3*%
X137026267Y-67495000D02*
X136961267Y-67430000D01*
%TO.N,GND*%
X127059817Y-69695000D02*
X128626267Y-69695000D01*
%TO.N,GPIO5*%
X124526267Y-75295000D02*
X124526267Y-75262100D01*
%TO.N,RUN*%
X135313767Y-69795000D02*
X138725267Y-69795000D01*
%TO.N,+1V1*%
X131126267Y-84395000D02*
X132326267Y-84395000D01*
%TO.N,GPIO9*%
X125026267Y-89095000D02*
X124824267Y-88893000D01*
%TO.N,SWD*%
X133466267Y-92035000D02*
X133466267Y-98685000D01*
%TO.N,+1V1*%
X132992607Y-82619000D02*
X132902267Y-82619000D01*
%TO.N,GND*%
X132526267Y-78015000D02*
X131936267Y-78015000D01*
%TO.N,XIN*%
X130526267Y-89315229D02*
X130326267Y-89515230D01*
%TO.N,GND*%
X138327267Y-63695000D02*
X138325267Y-63697000D01*
%TO.N,Net-(C16-Pad2)*%
X126125267Y-95194000D02*
X126125267Y-92786000D01*
%TO.N,Net-(R7-Pad2)*%
X136226267Y-64095000D02*
X137026267Y-63295000D01*
%TO.N,GPIO23*%
X135626267Y-86995000D02*
X135926267Y-86695000D01*
%TO.N,GND*%
X137506267Y-88795000D02*
X137126267Y-89175000D01*
%TO.N,USB_D+*%
X131105267Y-56866000D02*
X131176267Y-56795000D01*
%TO.N,GND*%
X135526649Y-82288282D02*
X135526649Y-81903438D01*
X130026702Y-88690379D02*
X130351115Y-88690379D01*
X131324419Y-74295000D02*
X130926267Y-73896848D01*
X134331267Y-55840000D02*
X135246267Y-54925000D01*
%TO.N,+3V3*%
X136566267Y-87815000D02*
X136546267Y-87795000D01*
%TO.N,GPIO3*%
X128371151Y-85795000D02*
X127488767Y-85795000D01*
%TO.N,GPIO19*%
X134926267Y-88995000D02*
X135126267Y-89195000D01*
%TO.N,GND*%
X132926267Y-58505000D02*
X134176267Y-57255000D01*
%TO.N,+1V1*%
X131526267Y-89496000D02*
X131526267Y-90232500D01*
%TO.N,+3V3*%
X133424236Y-88330271D02*
X133424236Y-88189852D01*
%TO.N,GPIO6*%
X128672210Y-87001046D02*
X128666164Y-86995000D01*
%TO.N,GPIO25*%
X133826269Y-86195000D02*
X134363767Y-86195000D01*
%TO.N,QSPI_SS*%
X126251267Y-78545000D02*
X126251267Y-77330000D01*
%TO.N,GPIO18*%
X138326267Y-92795000D02*
X139816267Y-91305000D01*
%TO.N,SWCLK*%
X131926267Y-91095000D02*
X133037267Y-92206000D01*
X131926267Y-90232500D02*
X131926267Y-91095000D01*
%TO.N,+3V3*%
X131005267Y-82701226D02*
X131005267Y-79616000D01*
%TO.N,GPIO8*%
X124026267Y-83497450D02*
X124026267Y-78055000D01*
%TO.N,GPIO24*%
X137726267Y-84695000D02*
X137726267Y-82395000D01*
%TO.N,GPIO2*%
X124327267Y-60576000D02*
X122036267Y-58285000D01*
%TO.N,USB_D+*%
X130225267Y-56866000D02*
X131105267Y-56866000D01*
%TO.N,+3V3*%
X135027267Y-80343943D02*
X135027267Y-79846057D01*
X134227267Y-72389000D02*
X135921267Y-70695000D01*
%TO.N,GPIO13*%
X128726267Y-89330568D02*
X128726267Y-90232500D01*
%TO.N,XOUT*%
X130538267Y-91083000D02*
X130153617Y-91083000D01*
%TO.N,GPIO18*%
X134363767Y-91165400D02*
X134727267Y-91528900D01*
%TO.N,GPIO20*%
X138226267Y-89695000D02*
X138665267Y-89256000D01*
%TO.N,QSPI_SD2*%
X125676267Y-79545000D02*
X126251267Y-79545000D01*
%TO.N,+3V3*%
X134026267Y-83857500D02*
X134363767Y-84195000D01*
%TO.N,GND*%
X130926267Y-95145000D02*
X130926267Y-95295000D01*
X128426267Y-72585000D02*
X128426267Y-72083260D01*
%TO.N,GPIO26_ADC0*%
X135219436Y-85849688D02*
X135213820Y-85849688D01*
%TO.N,GPIO21*%
X138264267Y-86057000D02*
X139816267Y-84505000D01*
%TO.N,GPIO4*%
X124424267Y-66746407D02*
X124424267Y-66293000D01*
%TO.N,SWD*%
X132326267Y-90232500D02*
X132326267Y-90895000D01*
%TO.N,GPIO10*%
X122626267Y-87262760D02*
X123187267Y-86701760D01*
%TO.N,GPIO9*%
X126426267Y-88595000D02*
X125926267Y-89095000D01*
%TO.N,USB_D-*%
X132026267Y-65786100D02*
X132926267Y-66686100D01*
%TO.N,Net-(J1-CC1)*%
X132926267Y-57485000D02*
X132176267Y-56735000D01*
%TO.N,GPIO26_ADC0*%
X135159132Y-85795000D02*
X134363767Y-85795000D01*
%TO.N,XIN*%
X127226267Y-95175000D02*
X126526267Y-94475000D01*
%TO.N,+3V3*%
X131126267Y-79495000D02*
X131126267Y-79225000D01*
%TO.N,QSPI_SD3*%
X130326267Y-79737102D02*
X130326267Y-83357500D01*
%TO.N,GPIO20*%
X135526267Y-88995000D02*
X135526267Y-90995000D01*
%TO.N,GPIO3*%
X128645371Y-85520780D02*
X128371151Y-85795000D01*
%TO.N,USB_D-*%
X133826267Y-79794931D02*
X133568769Y-80052430D01*
%TO.N,+1V1*%
X130319717Y-91484000D02*
X131515267Y-91484000D01*
%TO.N,GND*%
X132386267Y-72295000D02*
X132426267Y-72295000D01*
X127956267Y-94215000D02*
X128726267Y-93445000D01*
%TO.N,+3V3*%
X136446267Y-88795000D02*
X136446267Y-87795000D01*
X131425267Y-88696000D02*
X131126267Y-88995000D01*
%TO.N,GND*%
X130926267Y-88115227D02*
X130926267Y-86795000D01*
%TO.N,USB_D+*%
X130176267Y-56817000D02*
X130225267Y-56866000D01*
%TO.N,+1V1*%
X131526267Y-92015000D02*
X131606267Y-92095000D01*
%TO.N,GND*%
X138325267Y-67643943D02*
X139126324Y-68445000D01*
%TO.N,GPIO14*%
X129137966Y-88952061D02*
X129126267Y-88963760D01*
%TO.N,GND*%
X126606267Y-50745000D02*
X126606267Y-54925000D01*
%TO.N,GPIO4*%
X126726267Y-86195000D02*
X126426267Y-86495000D01*
%TO.N,GND*%
X126606267Y-52377080D02*
X126606267Y-50745000D01*
%TO.N,+3V3*%
X125526267Y-84895000D02*
X125526267Y-83895000D01*
X129651267Y-60170000D02*
X130426267Y-59395000D01*
%TO.N,GPIO4*%
X124726267Y-74895000D02*
X124726267Y-74662100D01*
%TO.N,GND*%
X135947267Y-82708900D02*
X135947267Y-82720000D01*
%TO.N,+3V3*%
X128406267Y-73525000D02*
X128426267Y-73545000D01*
X129426267Y-72570000D02*
X130426267Y-73570000D01*
%TO.N,GPIO23*%
X135226267Y-76195000D02*
X137896267Y-73525000D01*
%TO.N,Net-(U1-USB_DP)*%
X131926267Y-83357500D02*
X131926267Y-82345000D01*
%TO.N,GND*%
X133316267Y-58895000D02*
X132926267Y-58505000D01*
%TO.N,+3V3*%
X133290996Y-88330271D02*
X132925267Y-88696000D01*
%TO.N,SWCLK*%
X130287267Y-97534000D02*
X129537267Y-97534000D01*
%TO.N,GPIO9*%
X123626267Y-85595000D02*
X123601127Y-85595000D01*
%TO.N,GPIO8*%
X126226267Y-88195000D02*
X125726267Y-88695000D01*
%TO.N,USB_D-*%
X132626267Y-80661397D02*
X132626267Y-81025000D01*
%TO.N,GPIO2*%
X125226267Y-67294000D02*
X125226267Y-65594000D01*
%TO.N,GPIO27_ADC1*%
X133280088Y-85850165D02*
X133280088Y-85841181D01*
%TO.N,GPIO21*%
X136626267Y-91495000D02*
X137226267Y-91495000D01*
%TO.N,GND*%
X136256267Y-54925000D02*
X138326267Y-56995000D01*
%TO.N,Net-(U1-USB_DM)*%
X132326267Y-82345000D02*
X132626267Y-82045000D01*
%TO.N,GND*%
X131526267Y-76120000D02*
X131426267Y-76020000D01*
%TO.N,+3V3*%
X127188767Y-83895000D02*
X127488767Y-84195000D01*
%TO.N,GPIO16*%
X135356267Y-98925000D02*
X139816267Y-98925000D01*
%TO.N,GPIO10*%
X122626267Y-85187240D02*
X122626267Y-84275000D01*
%TO.N,QSPI_SD1*%
X125026267Y-79445000D02*
X125426267Y-79045000D01*
%TO.N,GPIO24*%
X134363767Y-86595000D02*
X135326267Y-86595000D01*
%TO.N,+3V3*%
X135026267Y-80457450D02*
X135026267Y-80344943D01*
X129376267Y-71095000D02*
X129376267Y-72245000D01*
%TO.N,GPIO25*%
X133026269Y-86995000D02*
X133826269Y-86195000D01*
%TO.N,VBUS*%
X129820267Y-53719000D02*
X133536259Y-53719000D01*
%TO.N,GND*%
X135246267Y-54925000D02*
X136256267Y-54925000D01*
%TO.N,GPIO15*%
X126451437Y-91469830D02*
X124626267Y-93295000D01*
%TO.N,+1V1*%
X130726267Y-83995000D02*
X131126267Y-84395000D01*
%TO.N,Net-(J1-CC2)*%
X129944267Y-57585000D02*
X129176267Y-56817000D01*
%TO.N,GPIO19*%
X138665267Y-89916000D02*
X139816267Y-88765000D01*
%TO.N,QSPI_SS*%
X128101818Y-76395000D02*
X127901818Y-76595000D01*
%TO.N,+1V1*%
X131526267Y-90232500D02*
X131526267Y-91495000D01*
X131707038Y-89315229D02*
X131526267Y-89496000D01*
%TO.N,Net-(D3-A)*%
X137326267Y-95095000D02*
X137326267Y-93805000D01*
%TO.N,+1V1*%
X131326267Y-84395000D02*
X131126267Y-84395000D01*
%TO.N,GPIO21*%
X137726267Y-89595000D02*
X138264267Y-89057000D01*
%TO.N,GND*%
X125346267Y-87195000D02*
X124646267Y-86495000D01*
%TO.N,+3V3*%
X125606267Y-86495000D02*
X125606267Y-86795000D01*
%TO.N,GPIO3*%
X124257817Y-67479957D02*
X124825267Y-66912507D01*
%TO.N,GPIO9*%
X123601127Y-85595000D02*
X123526267Y-85520140D01*
%TO.N,GPIO10*%
X123926267Y-89294000D02*
X123187267Y-88555000D01*
%TO.N,USB_D-*%
X133826267Y-71276802D02*
X133826267Y-78284154D01*
X133826266Y-79628165D02*
G75*
G02*
X133826219Y-79794882I-83366J-83335D01*
G01*
%TO.N,+3V3*%
X129426267Y-72295000D02*
X129426267Y-72570000D01*
%TO.N,GPIO13*%
X128442174Y-89046475D02*
X128726267Y-89330568D01*
%TO.N,GPIO4*%
X124726267Y-74662100D02*
X124424267Y-74360100D01*
%TO.N,GPIO9*%
X123626267Y-86995000D02*
X123626267Y-85595000D01*
%TO.N,+3V3*%
X136322267Y-59495000D02*
X137652267Y-60825000D01*
X131126267Y-79225000D02*
X130446267Y-78545000D01*
%TO.N,GPIO4*%
X124424267Y-74360100D02*
X124424267Y-69043593D01*
%TO.N,XOUT*%
X130726267Y-90232500D02*
X130726267Y-90895000D01*
%TO.N,GPIO24*%
X135428267Y-80097000D02*
X135428267Y-79679957D01*
%TO.N,+3V3*%
X128501267Y-62095000D02*
X128501267Y-61045000D01*
%TO.N,GND*%
X137126267Y-89175000D02*
X137126267Y-90695000D01*
%TO.N,GPIO0*%
X128226267Y-84595000D02*
X127488767Y-84595000D01*
%TO.N,GPIO21*%
X134363767Y-88195000D02*
X135326267Y-88195000D01*
%TO.N,GND*%
X139816267Y-93845000D02*
X139776267Y-93845000D01*
%TO.N,GPIO3*%
X122726267Y-61995000D02*
X122726267Y-61515000D01*
%TO.N,+1V1*%
X129726267Y-92077450D02*
X130319717Y-91484000D01*
%TO.N,VBUS*%
X139816267Y-50665000D02*
X137150275Y-50665000D01*
%TO.N,GPIO1*%
X128502105Y-84995000D02*
X127488767Y-84995000D01*
%TO.N,GPIO15*%
X124626267Y-93295000D02*
X124626267Y-96335000D01*
%TO.N,GPIO14*%
X129220677Y-88952061D02*
X129137966Y-88952061D01*
%TO.N,QSPI_SS*%
X124626267Y-79195000D02*
X125276267Y-78545000D01*
X125626267Y-81595000D02*
X124626267Y-80595000D01*
%TO.N,QSPI_SD1*%
X128726267Y-81695000D02*
X128226267Y-81195000D01*
%TO.N,GPIO1*%
X129025267Y-84894000D02*
X129025267Y-84919780D01*
%TO.N,GPIO5*%
X124023267Y-69209693D02*
X123455817Y-68642243D01*
%TO.N,GPIO27_ADC1*%
X133577376Y-85395000D02*
X134363767Y-85395000D01*
%TO.N,+3V3*%
X132925267Y-88696000D02*
X131425267Y-88696000D01*
%TO.N,GND*%
X136506267Y-83279000D02*
X136506267Y-83995000D01*
X128983324Y-93445000D02*
X129525532Y-92902792D01*
X130926267Y-72895000D02*
X130426267Y-72395000D01*
%TO.N,RUN*%
X132850914Y-89297170D02*
X132726267Y-89421817D01*
%TO.N,GPIO5*%
X124325267Y-74828200D02*
X124023267Y-74526200D01*
%TO.N,+3V3*%
X135546267Y-83995000D02*
X135546267Y-82875000D01*
%TO.N,Net-(C16-Pad2)*%
X130926267Y-93445000D02*
X130724267Y-93445000D01*
%TO.N,+3V3*%
X128501267Y-61045000D02*
X129376267Y-60170000D01*
%TO.N,GPIO22*%
X137526267Y-87095000D02*
X136126267Y-87095000D01*
%TO.N,GND*%
X138989134Y-79728791D02*
X138960058Y-79728791D01*
X126949267Y-80045000D02*
X127226267Y-79768000D01*
%TO.N,GPIO16*%
X133867267Y-91868900D02*
X133867267Y-97436000D01*
%TO.N,GPIO14*%
X122036267Y-96385000D02*
X123436267Y-96385000D01*
%TO.N,GND*%
X129926267Y-90232500D02*
X129926267Y-87795000D01*
X124566267Y-83895000D02*
X126266267Y-82195000D01*
X122626267Y-69595000D02*
X122626267Y-69035000D01*
%TO.N,+3V3*%
X133819088Y-87795000D02*
X134363767Y-87795000D01*
%TO.N,GPIO14*%
X123726267Y-96095000D02*
X124225267Y-95596000D01*
%TO.N,+1V1*%
X132726267Y-83995000D02*
X132726267Y-83357500D01*
%TO.N,GPIO3*%
X123926267Y-63195000D02*
X122726267Y-61995000D01*
%TO.N,+3V3*%
X125526267Y-83895000D02*
X126531267Y-83895000D01*
%TO.N,GPIO11*%
X127488767Y-89831500D02*
X127226267Y-90094000D01*
%TO.N,USB_D-*%
X133826267Y-78934154D02*
X133826267Y-79461397D01*
%TO.N,QSPI_SD0*%
X129526267Y-83357500D02*
X129526267Y-80470000D01*
%TO.N,Net-(J1-CC2)*%
X129176267Y-56817000D02*
X129176267Y-55840000D01*
%TO.N,GND*%
X123807307Y-55176040D02*
X126606267Y-52377080D01*
%TD*%
%TA.AperFunction,Conductor*%
%TO.N,GND*%
G36*
X130460342Y-98877993D02*
G01*
X130526168Y-98992007D01*
X130619260Y-99085099D01*
X130733274Y-99150925D01*
X130796857Y-99167962D01*
X130307733Y-99657085D01*
X130308024Y-99660771D01*
X130293660Y-99729149D01*
X130244608Y-99778905D01*
X130184406Y-99794500D01*
X129851153Y-99794500D01*
X129784114Y-99774815D01*
X129738359Y-99722011D01*
X129728415Y-99652853D01*
X129730327Y-99642765D01*
X129730357Y-99642485D01*
X129730358Y-99642483D01*
X129736767Y-99582873D01*
X129736766Y-99385920D01*
X129756450Y-99318883D01*
X129809254Y-99273128D01*
X129878412Y-99263184D01*
X129941968Y-99292209D01*
X129952220Y-99303378D01*
X129954180Y-99303533D01*
X130443304Y-98814408D01*
X130460342Y-98877993D01*
G37*
%TD.AperFunction*%
%TA.AperFunction,Conductor*%
G36*
X131898352Y-99303533D02*
G01*
X131898352Y-99303532D01*
X131909833Y-99287732D01*
X131976818Y-99156270D01*
X132024793Y-99105474D01*
X132092614Y-99088679D01*
X132158749Y-99111217D01*
X132202200Y-99165932D01*
X132205234Y-99174247D01*
X132214711Y-99203414D01*
X132311218Y-99392820D01*
X132436157Y-99564786D01*
X132454190Y-99582819D01*
X132487675Y-99644142D01*
X132482691Y-99713834D01*
X132440819Y-99769767D01*
X132375355Y-99794184D01*
X132366509Y-99794500D01*
X131668128Y-99794500D01*
X131601089Y-99774815D01*
X131555334Y-99722011D01*
X131544510Y-99660774D01*
X131544800Y-99657085D01*
X131055677Y-99167962D01*
X131119260Y-99150925D01*
X131233274Y-99085099D01*
X131326366Y-98992007D01*
X131392192Y-98877993D01*
X131409229Y-98814410D01*
X131898352Y-99303533D01*
G37*
%TD.AperFunction*%
%TA.AperFunction,Conductor*%
G36*
X132785101Y-95987914D02*
G01*
X132841034Y-96029786D01*
X132865451Y-96095250D01*
X132865767Y-96104096D01*
X132865767Y-97399281D01*
X132846082Y-97466320D01*
X132798062Y-97509765D01*
X132758452Y-97529947D01*
X132758451Y-97529948D01*
X132586480Y-97654890D01*
X132436157Y-97805213D01*
X132311218Y-97977179D01*
X132214711Y-98166583D01*
X132205234Y-98195753D01*
X132165796Y-98253428D01*
X132101437Y-98280626D01*
X132032590Y-98268711D01*
X131981115Y-98221466D01*
X131976818Y-98213729D01*
X131909838Y-98082275D01*
X131909833Y-98082267D01*
X131898352Y-98066466D01*
X131409229Y-98555589D01*
X131392192Y-98492007D01*
X131326366Y-98377993D01*
X131233274Y-98284901D01*
X131119260Y-98219075D01*
X131055675Y-98202037D01*
X131544800Y-97712913D01*
X131528997Y-97701431D01*
X131367714Y-97619253D01*
X131321301Y-97604172D01*
X131263626Y-97564734D01*
X131236428Y-97500375D01*
X131248343Y-97431529D01*
X131271933Y-97398567D01*
X132654087Y-96016413D01*
X132715409Y-95982930D01*
X132785101Y-95987914D01*
G37*
%TD.AperFunction*%
%TA.AperFunction,Conductor*%
G36*
X138635557Y-93354188D02*
G01*
X138693419Y-93393350D01*
X138720924Y-93457578D01*
X138715732Y-93510617D01*
X138694584Y-93575704D01*
X138666267Y-93754493D01*
X138666267Y-93935506D01*
X138694584Y-94114293D01*
X138750518Y-94286444D01*
X138750519Y-94286447D01*
X138832698Y-94447730D01*
X138844180Y-94463532D01*
X138844180Y-94463533D01*
X139333304Y-93974408D01*
X139350342Y-94037993D01*
X139416168Y-94152007D01*
X139509260Y-94245099D01*
X139623274Y-94310925D01*
X139686857Y-94327962D01*
X139197733Y-94817085D01*
X139197733Y-94817086D01*
X139213534Y-94828566D01*
X139213542Y-94828571D01*
X139344996Y-94895551D01*
X139395792Y-94943526D01*
X139412587Y-95011347D01*
X139390049Y-95077482D01*
X139335334Y-95120933D01*
X139327028Y-95123964D01*
X139316983Y-95127227D01*
X139297850Y-95133444D01*
X139108446Y-95229951D01*
X138936480Y-95354890D01*
X138786157Y-95505213D01*
X138661215Y-95677184D01*
X138661214Y-95677185D01*
X138641032Y-95716795D01*
X138593058Y-95767591D01*
X138530548Y-95784500D01*
X138330882Y-95784500D01*
X138263843Y-95764815D01*
X138218088Y-95712011D01*
X138208144Y-95642853D01*
X138213176Y-95621496D01*
X138215020Y-95615931D01*
X138254203Y-95497685D01*
X138264267Y-95399174D01*
X138264267Y-94790826D01*
X138254203Y-94692315D01*
X138201316Y-94532713D01*
X138201312Y-94532707D01*
X138201311Y-94532704D01*
X138113050Y-94389612D01*
X138108570Y-94383946D01*
X138110212Y-94382646D01*
X138081692Y-94330415D01*
X138086676Y-94260723D01*
X138096122Y-94240943D01*
X138159136Y-94134393D01*
X138203932Y-93980204D01*
X138206767Y-93944181D01*
X138206766Y-93519500D01*
X138226450Y-93452462D01*
X138279254Y-93406707D01*
X138330766Y-93395501D01*
X138405321Y-93395501D01*
X138405324Y-93395501D01*
X138558052Y-93354577D01*
X138558054Y-93354575D01*
X138565707Y-93352525D01*
X138635557Y-93354188D01*
G37*
%TD.AperFunction*%
%TA.AperFunction,Conductor*%
G36*
X123540809Y-91056272D02*
G01*
X123646286Y-91084534D01*
X123687209Y-91095500D01*
X123687210Y-91095500D01*
X124590944Y-91095500D01*
X124657983Y-91115185D01*
X124703738Y-91167989D01*
X124713682Y-91237147D01*
X124694046Y-91288392D01*
X124690566Y-91293599D01*
X124690562Y-91293606D01*
X124630224Y-91439277D01*
X124630221Y-91439287D01*
X124599322Y-91594627D01*
X124566937Y-91656538D01*
X124565386Y-91658116D01*
X123856553Y-92366950D01*
X123744748Y-92478754D01*
X123744747Y-92478756D01*
X123706790Y-92544500D01*
X123665690Y-92615687D01*
X123624766Y-92768415D01*
X123624766Y-92768417D01*
X123624766Y-92936518D01*
X123624767Y-92936531D01*
X123624767Y-95295902D01*
X123605082Y-95362941D01*
X123588448Y-95383583D01*
X123357548Y-95614483D01*
X123342722Y-95629308D01*
X123281398Y-95662791D01*
X123211707Y-95657804D01*
X123155774Y-95615931D01*
X123147657Y-95603624D01*
X123146844Y-95602215D01*
X123067787Y-95465284D01*
X122955983Y-95353480D01*
X122819052Y-95274423D01*
X122819046Y-95274421D01*
X122811544Y-95271314D01*
X122811735Y-95270850D01*
X122778670Y-95255077D01*
X122760192Y-95241653D01*
X122744083Y-95229949D01*
X122554679Y-95133443D01*
X122525513Y-95123966D01*
X122467838Y-95084529D01*
X122440640Y-95020171D01*
X122452555Y-94951324D01*
X122499799Y-94899849D01*
X122507537Y-94895551D01*
X122638999Y-94828566D01*
X122654799Y-94817085D01*
X122654800Y-94817085D01*
X122165677Y-94327962D01*
X122229260Y-94310925D01*
X122343274Y-94245099D01*
X122436366Y-94152007D01*
X122502192Y-94037993D01*
X122519229Y-93974409D01*
X123008352Y-94463532D01*
X123019835Y-94447730D01*
X123102012Y-94286452D01*
X123102015Y-94286444D01*
X123157949Y-94114293D01*
X123186267Y-93935506D01*
X123186267Y-93754493D01*
X123157949Y-93575706D01*
X123102015Y-93403555D01*
X123102014Y-93403552D01*
X123019838Y-93242275D01*
X123019833Y-93242267D01*
X123008352Y-93226466D01*
X122519229Y-93715589D01*
X122502192Y-93652007D01*
X122436366Y-93537993D01*
X122343274Y-93444901D01*
X122229260Y-93379075D01*
X122165676Y-93362037D01*
X122654800Y-92872913D01*
X122638994Y-92861429D01*
X122507536Y-92794447D01*
X122456741Y-92746473D01*
X122439946Y-92678651D01*
X122462484Y-92612517D01*
X122517199Y-92569066D01*
X122525483Y-92566043D01*
X122554679Y-92556557D01*
X122744083Y-92460051D01*
X122820188Y-92404758D01*
X122916053Y-92335109D01*
X122916055Y-92335106D01*
X122916059Y-92335104D01*
X123066371Y-92184792D01*
X123066373Y-92184788D01*
X123066376Y-92184786D01*
X123191315Y-92012820D01*
X123191314Y-92012820D01*
X123191318Y-92012816D01*
X123287824Y-91823412D01*
X123353513Y-91621243D01*
X123386767Y-91411287D01*
X123386767Y-91198713D01*
X123386250Y-91195450D01*
X123386411Y-91194200D01*
X123386385Y-91193862D01*
X123386456Y-91193856D01*
X123395201Y-91126158D01*
X123440195Y-91072704D01*
X123506945Y-91052061D01*
X123540809Y-91056272D01*
G37*
%TD.AperFunction*%
%TA.AperFunction,Conductor*%
G36*
X140788351Y-94463532D02*
G01*
X140792039Y-94463242D01*
X140860416Y-94477606D01*
X140910172Y-94526658D01*
X140925767Y-94586860D01*
X140925767Y-95285242D01*
X140906082Y-95352281D01*
X140853278Y-95398036D01*
X140784120Y-95407980D01*
X140720564Y-95378955D01*
X140714086Y-95372923D01*
X140696053Y-95354890D01*
X140524087Y-95229951D01*
X140334681Y-95133444D01*
X140334680Y-95133443D01*
X140334679Y-95133443D01*
X140305513Y-95123966D01*
X140247838Y-95084529D01*
X140220640Y-95020171D01*
X140232555Y-94951324D01*
X140279799Y-94899849D01*
X140287537Y-94895551D01*
X140418999Y-94828566D01*
X140434799Y-94817085D01*
X140434800Y-94817085D01*
X139945677Y-94327962D01*
X140009260Y-94310925D01*
X140123274Y-94245099D01*
X140216366Y-94152007D01*
X140282192Y-94037993D01*
X140299229Y-93974410D01*
X140788351Y-94463532D01*
G37*
%TD.AperFunction*%
%TA.AperFunction,Conductor*%
G36*
X121570342Y-94037993D02*
G01*
X121636168Y-94152007D01*
X121729260Y-94245099D01*
X121843274Y-94310925D01*
X121906857Y-94327962D01*
X121417733Y-94817085D01*
X121417733Y-94817086D01*
X121433534Y-94828566D01*
X121433542Y-94828571D01*
X121564996Y-94895551D01*
X121615792Y-94943526D01*
X121632587Y-95011347D01*
X121610049Y-95077482D01*
X121555334Y-95120933D01*
X121547028Y-95123964D01*
X121536983Y-95127227D01*
X121517850Y-95133444D01*
X121328446Y-95229951D01*
X121156480Y-95354890D01*
X121156476Y-95354894D01*
X121138448Y-95372923D01*
X121077125Y-95406408D01*
X121007433Y-95401424D01*
X120951500Y-95359552D01*
X120927083Y-95294088D01*
X120926767Y-95285242D01*
X120926767Y-94586861D01*
X120946452Y-94519822D01*
X120999256Y-94474067D01*
X121060496Y-94463243D01*
X121064180Y-94463533D01*
X121553304Y-93974409D01*
X121570342Y-94037993D01*
G37*
%TD.AperFunction*%
%TA.AperFunction,Conductor*%
G36*
X121131970Y-92311045D02*
G01*
X121138448Y-92317077D01*
X121156480Y-92335109D01*
X121328446Y-92460048D01*
X121328448Y-92460049D01*
X121328451Y-92460051D01*
X121517855Y-92556557D01*
X121547020Y-92566033D01*
X121604693Y-92605468D01*
X121631892Y-92669826D01*
X121619979Y-92738673D01*
X121572736Y-92790149D01*
X121564997Y-92794447D01*
X121433536Y-92861431D01*
X121417733Y-92872912D01*
X121417733Y-92872913D01*
X121906858Y-93362037D01*
X121843274Y-93379075D01*
X121729260Y-93444901D01*
X121636168Y-93537993D01*
X121570342Y-93652007D01*
X121553304Y-93715590D01*
X121064180Y-93226466D01*
X121060496Y-93226756D01*
X120992119Y-93212392D01*
X120942362Y-93163340D01*
X120926767Y-93103138D01*
X120926767Y-92404758D01*
X120946452Y-92337719D01*
X120999256Y-92291964D01*
X121068414Y-92282020D01*
X121131970Y-92311045D01*
G37*
%TD.AperFunction*%
%TA.AperFunction,Conductor*%
G36*
X140845101Y-92288576D02*
G01*
X140901034Y-92330448D01*
X140925451Y-92395912D01*
X140925767Y-92404758D01*
X140925767Y-93103138D01*
X140906082Y-93170177D01*
X140853278Y-93215932D01*
X140792040Y-93226756D01*
X140788353Y-93226465D01*
X140299229Y-93715589D01*
X140282192Y-93652007D01*
X140216366Y-93537993D01*
X140123274Y-93444901D01*
X140009260Y-93379075D01*
X139945675Y-93362037D01*
X140434800Y-92872913D01*
X140418994Y-92861429D01*
X140287536Y-92794447D01*
X140236741Y-92746473D01*
X140219946Y-92678651D01*
X140242484Y-92612517D01*
X140297199Y-92569066D01*
X140305483Y-92566043D01*
X140334679Y-92556557D01*
X140524083Y-92460051D01*
X140600188Y-92404758D01*
X140696053Y-92335109D01*
X140696055Y-92335106D01*
X140696059Y-92335104D01*
X140714086Y-92317077D01*
X140775409Y-92283592D01*
X140845101Y-92288576D01*
G37*
%TD.AperFunction*%
%TA.AperFunction,Conductor*%
G36*
X128830452Y-92097550D02*
G01*
X128839414Y-92096262D01*
X128863454Y-92107240D01*
X128888806Y-92114685D01*
X128894733Y-92121525D01*
X128902970Y-92125287D01*
X128917259Y-92147521D01*
X128934561Y-92167489D01*
X128936848Y-92178003D01*
X128940744Y-92184065D01*
X128945767Y-92218799D01*
X128945767Y-92329690D01*
X128945949Y-92332015D01*
X128945950Y-92332019D01*
X128948623Y-92365991D01*
X128948624Y-92365997D01*
X128993770Y-92521389D01*
X128993772Y-92521393D01*
X128993773Y-92521395D01*
X128998999Y-92530233D01*
X129016267Y-92593352D01*
X129016267Y-92743638D01*
X128996582Y-92810677D01*
X128979948Y-92831319D01*
X128976267Y-92835000D01*
X128976267Y-93321000D01*
X128956582Y-93388039D01*
X128903778Y-93433794D01*
X128852267Y-93445000D01*
X128600267Y-93445000D01*
X128533228Y-93425315D01*
X128487473Y-93372511D01*
X128476267Y-93321000D01*
X128476267Y-92708439D01*
X128493535Y-92645318D01*
X128507180Y-92622246D01*
X128559136Y-92534393D01*
X128596798Y-92404758D01*
X128603931Y-92380208D01*
X128603932Y-92380202D01*
X128605050Y-92365993D01*
X128606767Y-92344181D01*
X128606766Y-92218998D01*
X128626450Y-92151961D01*
X128679254Y-92106206D01*
X128730766Y-92095000D01*
X128821767Y-92095000D01*
X128830452Y-92097550D01*
G37*
%TD.AperFunction*%
%TA.AperFunction,Conductor*%
G36*
X137072620Y-89564838D02*
G01*
X137116389Y-89619299D01*
X137125766Y-89666601D01*
X137125766Y-89684046D01*
X137125767Y-89684059D01*
X137125767Y-90694901D01*
X137106082Y-90761940D01*
X137089448Y-90782582D01*
X137013947Y-90858083D01*
X136952624Y-90891568D01*
X136882932Y-90886584D01*
X136838585Y-90858083D01*
X136563086Y-90582584D01*
X136529601Y-90521261D01*
X136526767Y-90494903D01*
X136526767Y-89729500D01*
X136546452Y-89662461D01*
X136599256Y-89616706D01*
X136650767Y-89605500D01*
X136750949Y-89605500D01*
X136750957Y-89605500D01*
X136787260Y-89602643D01*
X136787262Y-89602642D01*
X136787264Y-89602642D01*
X136828242Y-89590736D01*
X136942662Y-89557494D01*
X136942669Y-89557489D01*
X136949818Y-89554397D01*
X136950847Y-89556775D01*
X137006355Y-89542686D01*
X137072620Y-89564838D01*
G37*
%TD.AperFunction*%
%TA.AperFunction,Conductor*%
G36*
X137538642Y-87796872D02*
G01*
X137545180Y-87795674D01*
X137571750Y-87806593D01*
X137599306Y-87814685D01*
X137603657Y-87819706D01*
X137609805Y-87822233D01*
X137626253Y-87845784D01*
X137645061Y-87867489D01*
X137646711Y-87875075D01*
X137649812Y-87879515D01*
X137656261Y-87917763D01*
X137663761Y-88669763D01*
X137644746Y-88736996D01*
X137592401Y-88783275D01*
X137539767Y-88795000D01*
X137450767Y-88795000D01*
X137383728Y-88775315D01*
X137337973Y-88722511D01*
X137326767Y-88671000D01*
X137326767Y-88560317D01*
X137326766Y-88560302D01*
X137325600Y-88545490D01*
X137323910Y-88524007D01*
X137321214Y-88514729D01*
X137278762Y-88368609D01*
X137278761Y-88368606D01*
X137278761Y-88368605D01*
X137210337Y-88252907D01*
X137193155Y-88185184D01*
X137197992Y-88155197D01*
X137223910Y-88065993D01*
X137226767Y-88029690D01*
X137226767Y-87919000D01*
X137246452Y-87851961D01*
X137299256Y-87806206D01*
X137350767Y-87795000D01*
X137532267Y-87795000D01*
X137538642Y-87796872D01*
G37*
%TD.AperFunction*%
%TA.AperFunction,Conductor*%
G36*
X130807292Y-85011200D02*
G01*
X130812922Y-85014747D01*
X130947081Y-85104390D01*
X130947094Y-85104397D01*
X131033766Y-85140297D01*
X131092770Y-85164737D01*
X131244389Y-85194896D01*
X131247420Y-85195499D01*
X131247423Y-85195500D01*
X131247425Y-85195500D01*
X131405111Y-85195500D01*
X131405112Y-85195499D01*
X131559764Y-85164737D01*
X131705446Y-85104394D01*
X131742026Y-85079952D01*
X131837142Y-85016398D01*
X131903820Y-84995520D01*
X131906033Y-84995500D01*
X132101526Y-84995500D01*
X132168565Y-85015185D01*
X132214320Y-85067989D01*
X132225526Y-85119500D01*
X132225526Y-85176666D01*
X132256287Y-85331309D01*
X132256290Y-85331321D01*
X132316628Y-85476992D01*
X132316635Y-85477005D01*
X132404236Y-85608108D01*
X132404239Y-85608112D01*
X132451962Y-85655834D01*
X132485448Y-85717157D01*
X132485901Y-85767701D01*
X132484253Y-85775988D01*
X132484253Y-85933676D01*
X132515014Y-86088319D01*
X132515017Y-86088331D01*
X132575355Y-86234002D01*
X132575365Y-86234020D01*
X132664084Y-86366798D01*
X132684962Y-86433475D01*
X132666477Y-86500855D01*
X132648664Y-86523369D01*
X132545746Y-86626287D01*
X132502520Y-86701159D01*
X132502520Y-86701160D01*
X132466692Y-86763214D01*
X132453291Y-86813227D01*
X132425768Y-86915943D01*
X132425768Y-86915945D01*
X132425768Y-87011218D01*
X132406083Y-87078257D01*
X132404870Y-87080109D01*
X132317878Y-87210300D01*
X132317871Y-87210313D01*
X132257533Y-87355984D01*
X132257530Y-87355996D01*
X132226769Y-87510639D01*
X132226769Y-87668332D01*
X132257530Y-87822975D01*
X132257533Y-87822987D01*
X132299394Y-87924048D01*
X132306863Y-87993517D01*
X132275588Y-88055996D01*
X132215499Y-88091648D01*
X132184833Y-88095500D01*
X131511936Y-88095500D01*
X131511920Y-88095499D01*
X131504324Y-88095499D01*
X131346210Y-88095499D01*
X131193482Y-88136423D01*
X131147077Y-88163215D01*
X131056554Y-88215477D01*
X131056549Y-88215481D01*
X130944747Y-88327284D01*
X130944745Y-88327286D01*
X130830263Y-88441768D01*
X130778918Y-88493113D01*
X130717595Y-88526597D01*
X130667047Y-88527049D01*
X130664774Y-88526597D01*
X130650691Y-88523795D01*
X130605109Y-88514729D01*
X130447425Y-88514729D01*
X130447422Y-88514729D01*
X130292777Y-88545490D01*
X130292765Y-88545493D01*
X130147094Y-88605831D01*
X130147083Y-88605837D01*
X130113434Y-88628321D01*
X130046756Y-88649198D01*
X129979376Y-88630713D01*
X129932687Y-88578733D01*
X129930112Y-88572960D01*
X129930067Y-88572875D01*
X129842466Y-88441772D01*
X129842463Y-88441768D01*
X129730969Y-88330274D01*
X129730965Y-88330271D01*
X129599862Y-88242670D01*
X129599849Y-88242663D01*
X129454178Y-88182325D01*
X129454168Y-88182322D01*
X129360541Y-88163698D01*
X129298630Y-88131313D01*
X129267421Y-88082255D01*
X129264734Y-88074411D01*
X129252918Y-88015004D01*
X129203692Y-87896163D01*
X129202435Y-87892490D01*
X129201051Y-87861317D01*
X129197717Y-87830299D01*
X129199516Y-87826704D01*
X129199338Y-87822689D01*
X129215027Y-87795717D01*
X129228992Y-87767820D01*
X129232038Y-87764662D01*
X129293999Y-87702702D01*
X129381604Y-87571592D01*
X129384859Y-87563735D01*
X129441945Y-87425914D01*
X129441947Y-87425910D01*
X129472710Y-87271255D01*
X129472710Y-87113571D01*
X129472710Y-87113568D01*
X129472709Y-87113566D01*
X129466054Y-87080109D01*
X129441947Y-86958916D01*
X129441945Y-86958911D01*
X129381607Y-86813240D01*
X129381600Y-86813227D01*
X129293999Y-86682124D01*
X129293996Y-86682120D01*
X129244430Y-86632554D01*
X129210945Y-86571231D01*
X129210494Y-86520682D01*
X129220203Y-86471875D01*
X129220203Y-86314191D01*
X129220203Y-86314188D01*
X129219885Y-86312590D01*
X129219961Y-86311735D01*
X129219606Y-86308126D01*
X129220290Y-86308058D01*
X129226112Y-86242998D01*
X129268975Y-86187821D01*
X129272584Y-86185314D01*
X129336557Y-86142569D01*
X129448057Y-86031069D01*
X129535662Y-85899959D01*
X129596005Y-85754277D01*
X129624184Y-85612614D01*
X129627825Y-85594310D01*
X129660210Y-85532399D01*
X129720925Y-85497825D01*
X129747123Y-85494523D01*
X129748299Y-85494501D01*
X129798566Y-85494501D01*
X129802337Y-85493490D01*
X129813849Y-85493275D01*
X129820056Y-85494972D01*
X129833549Y-85495413D01*
X129833600Y-85494901D01*
X129839663Y-85495498D01*
X129839669Y-85495498D01*
X129997355Y-85495498D01*
X129997356Y-85495497D01*
X130152008Y-85464735D01*
X130297690Y-85404392D01*
X130428800Y-85316787D01*
X130540300Y-85205287D01*
X130627905Y-85074177D01*
X130629466Y-85070406D01*
X130673299Y-85016001D01*
X130739590Y-84993929D01*
X130807292Y-85011200D01*
G37*
%TD.AperFunction*%
%TA.AperFunction,Conductor*%
G36*
X124939413Y-85523950D02*
G01*
X124969448Y-85553985D01*
X124984151Y-85580912D01*
X125000744Y-85606731D01*
X125001462Y-85612614D01*
X125002933Y-85615308D01*
X125005767Y-85641666D01*
X125005767Y-85760884D01*
X124986082Y-85827923D01*
X124933278Y-85873678D01*
X124928668Y-85874340D01*
X124896267Y-85897330D01*
X124896267Y-85996645D01*
X124886491Y-86044903D01*
X124883241Y-86052595D01*
X124873773Y-86068605D01*
X124867819Y-86089097D01*
X124864991Y-86095792D01*
X124847290Y-86117443D01*
X124832236Y-86141016D01*
X124825476Y-86144125D01*
X124820768Y-86149886D01*
X124794169Y-86158531D01*
X124768763Y-86170221D01*
X124761396Y-86169183D01*
X124754320Y-86171483D01*
X124727267Y-86164375D01*
X124699576Y-86160474D01*
X124693940Y-86155618D01*
X124686744Y-86153728D01*
X124667829Y-86133123D01*
X124646643Y-86114870D01*
X124644526Y-86107737D01*
X124639495Y-86102256D01*
X124634722Y-86074696D01*
X124626768Y-86047887D01*
X124626767Y-86047534D01*
X124626767Y-85628999D01*
X124646452Y-85561960D01*
X124699256Y-85516205D01*
X124750767Y-85504999D01*
X124759267Y-85504999D01*
X124788987Y-85502213D01*
X124788990Y-85502213D01*
X124810775Y-85494590D01*
X124880554Y-85491027D01*
X124939413Y-85523950D01*
G37*
%TD.AperFunction*%
%TA.AperFunction,Conductor*%
G36*
X135913309Y-81481569D02*
G01*
X135920883Y-81480036D01*
X135946686Y-81490087D01*
X135973521Y-81496936D01*
X135982827Y-81504166D01*
X135985988Y-81505397D01*
X135988027Y-81508205D01*
X135997930Y-81515898D01*
X137089448Y-82607416D01*
X137122933Y-82668739D01*
X137125767Y-82695097D01*
X137125767Y-83386399D01*
X137106082Y-83453438D01*
X137053278Y-83499193D01*
X136984120Y-83509137D01*
X136928133Y-83486169D01*
X136854187Y-83431594D01*
X136756267Y-83397330D01*
X136756267Y-84592669D01*
X136767005Y-84600289D01*
X136810289Y-84655136D01*
X136817049Y-84724678D01*
X136785138Y-84786835D01*
X136782931Y-84789099D01*
X136555553Y-85016478D01*
X136443748Y-85128282D01*
X136443744Y-85128287D01*
X136399290Y-85205286D01*
X136399290Y-85205287D01*
X136364690Y-85265214D01*
X136364690Y-85265215D01*
X136323766Y-85417943D01*
X136323766Y-85417945D01*
X136323766Y-85570500D01*
X136304081Y-85637539D01*
X136251277Y-85683294D01*
X136199766Y-85694500D01*
X136104464Y-85694500D01*
X136037425Y-85674815D01*
X135991670Y-85622011D01*
X135989903Y-85617952D01*
X135928833Y-85470515D01*
X135928826Y-85470502D01*
X135841225Y-85339399D01*
X135841222Y-85339395D01*
X135729728Y-85227901D01*
X135729724Y-85227898D01*
X135598621Y-85140297D01*
X135598608Y-85140290D01*
X135452937Y-85079952D01*
X135452925Y-85079949D01*
X135401576Y-85069735D01*
X135339665Y-85037350D01*
X135305091Y-84976635D01*
X135301767Y-84948118D01*
X135301767Y-84929500D01*
X135321452Y-84862461D01*
X135374256Y-84816706D01*
X135425767Y-84805500D01*
X135750949Y-84805500D01*
X135750957Y-84805500D01*
X135787260Y-84802643D01*
X135787262Y-84802642D01*
X135787264Y-84802642D01*
X135848820Y-84784758D01*
X135942662Y-84757494D01*
X136081954Y-84675117D01*
X136133121Y-84623949D01*
X136194442Y-84590465D01*
X136254210Y-84594127D01*
X136256267Y-84592668D01*
X136256267Y-84493352D01*
X136273534Y-84430233D01*
X136278761Y-84421395D01*
X136279634Y-84418392D01*
X136323909Y-84265997D01*
X136323910Y-84265991D01*
X136326766Y-84229697D01*
X136326767Y-84229690D01*
X136326767Y-83760310D01*
X136323910Y-83724007D01*
X136321142Y-83714480D01*
X136278762Y-83568608D01*
X136278759Y-83568600D01*
X136273533Y-83559763D01*
X136256267Y-83496645D01*
X136256267Y-83397330D01*
X136204022Y-83360261D01*
X136204272Y-83359908D01*
X136181314Y-83346757D01*
X136149088Y-83284763D01*
X136146767Y-83260884D01*
X136146767Y-82795943D01*
X136146766Y-82795936D01*
X136146380Y-82794497D01*
X136146380Y-82794496D01*
X136146372Y-82794472D01*
X136144382Y-82787046D01*
X136123067Y-82707494D01*
X136105844Y-82643216D01*
X136072373Y-82585242D01*
X136026791Y-82506290D01*
X136026788Y-82506286D01*
X136026787Y-82506284D01*
X135914983Y-82394480D01*
X135914982Y-82394479D01*
X135910652Y-82390149D01*
X135910641Y-82390139D01*
X135551957Y-82031455D01*
X135518472Y-81970132D01*
X135523456Y-81900440D01*
X135551955Y-81856095D01*
X135605980Y-81802071D01*
X135605983Y-81802070D01*
X135717787Y-81690266D01*
X135767906Y-81603454D01*
X135796844Y-81553335D01*
X135797412Y-81551213D01*
X135802288Y-81542584D01*
X135822149Y-81523288D01*
X135839527Y-81501724D01*
X135846859Y-81499283D01*
X135852403Y-81493898D01*
X135879546Y-81488403D01*
X135905821Y-81479658D01*
X135913309Y-81481569D01*
G37*
%TD.AperFunction*%
%TA.AperFunction,Conductor*%
G36*
X124831970Y-81650384D02*
G01*
X124838443Y-81656411D01*
X125257551Y-82075520D01*
X125257553Y-82075521D01*
X125257557Y-82075524D01*
X125329544Y-82117085D01*
X125394483Y-82154577D01*
X125547210Y-82195501D01*
X125547212Y-82195501D01*
X125712921Y-82195501D01*
X125712937Y-82195500D01*
X127601767Y-82195500D01*
X127668806Y-82215185D01*
X127714561Y-82267989D01*
X127725767Y-82319500D01*
X127725767Y-82664308D01*
X127706082Y-82731347D01*
X127653278Y-82777102D01*
X127584120Y-82787046D01*
X127532877Y-82767410D01*
X127410457Y-82685612D01*
X127410439Y-82685602D01*
X127264768Y-82625264D01*
X127264756Y-82625261D01*
X127110112Y-82594500D01*
X127110109Y-82594500D01*
X126952425Y-82594500D01*
X126952422Y-82594500D01*
X126797777Y-82625261D01*
X126797765Y-82625264D01*
X126652094Y-82685602D01*
X126652081Y-82685609D01*
X126520978Y-82773210D01*
X126520974Y-82773213D01*
X126409480Y-82884707D01*
X126409477Y-82884711D01*
X126321876Y-83015814D01*
X126321869Y-83015827D01*
X126259199Y-83167130D01*
X126257063Y-83166245D01*
X126224388Y-83216080D01*
X126160570Y-83244522D01*
X126091505Y-83233946D01*
X126068049Y-83219610D01*
X126061955Y-83214883D01*
X125922660Y-83132505D01*
X125922657Y-83132504D01*
X125767264Y-83087357D01*
X125767258Y-83087356D01*
X125730964Y-83084500D01*
X125730957Y-83084500D01*
X125321577Y-83084500D01*
X125321569Y-83084500D01*
X125285275Y-83087356D01*
X125285269Y-83087357D01*
X125129876Y-83132504D01*
X125129873Y-83132505D01*
X124990585Y-83214879D01*
X124990579Y-83214883D01*
X124939411Y-83266051D01*
X124878087Y-83299535D01*
X124830709Y-83300573D01*
X124729745Y-83283205D01*
X124707498Y-83272294D01*
X124683728Y-83265315D01*
X124676679Y-83257180D01*
X124667013Y-83252440D01*
X124654195Y-83231233D01*
X124637973Y-83212511D01*
X124635213Y-83199825D01*
X124630873Y-83192644D01*
X124631185Y-83181310D01*
X124626767Y-83161000D01*
X124626767Y-81744097D01*
X124646452Y-81677058D01*
X124699256Y-81631303D01*
X124768414Y-81621359D01*
X124831970Y-81650384D01*
G37*
%TD.AperFunction*%
%TA.AperFunction,Conductor*%
G36*
X140788351Y-81763532D02*
G01*
X140792039Y-81763242D01*
X140860416Y-81777606D01*
X140910172Y-81826658D01*
X140925767Y-81886860D01*
X140925767Y-82585242D01*
X140906082Y-82652281D01*
X140853278Y-82698036D01*
X140784120Y-82707980D01*
X140720564Y-82678955D01*
X140714086Y-82672923D01*
X140696053Y-82654890D01*
X140524087Y-82529951D01*
X140334681Y-82433444D01*
X140334680Y-82433443D01*
X140334679Y-82433443D01*
X140305513Y-82423966D01*
X140247838Y-82384529D01*
X140220640Y-82320171D01*
X140232555Y-82251324D01*
X140279799Y-82199849D01*
X140287537Y-82195551D01*
X140418999Y-82128566D01*
X140434799Y-82117085D01*
X139945676Y-81627962D01*
X140009260Y-81610925D01*
X140123274Y-81545099D01*
X140216366Y-81452007D01*
X140282192Y-81337993D01*
X140299229Y-81274410D01*
X140788351Y-81763532D01*
G37*
%TD.AperFunction*%
%TA.AperFunction,Conductor*%
G36*
X121570342Y-81337993D02*
G01*
X121636168Y-81452007D01*
X121729260Y-81545099D01*
X121843274Y-81610925D01*
X121906856Y-81627962D01*
X121417733Y-82117085D01*
X121417733Y-82117086D01*
X121433534Y-82128566D01*
X121433542Y-82128571D01*
X121564996Y-82195551D01*
X121615792Y-82243526D01*
X121632587Y-82311347D01*
X121610049Y-82377482D01*
X121555334Y-82420933D01*
X121547028Y-82423964D01*
X121536983Y-82427227D01*
X121517850Y-82433444D01*
X121328446Y-82529951D01*
X121156480Y-82654890D01*
X121156476Y-82654894D01*
X121138448Y-82672923D01*
X121077125Y-82706408D01*
X121007433Y-82701424D01*
X120951500Y-82659552D01*
X120927083Y-82594088D01*
X120926767Y-82585242D01*
X120926767Y-81886861D01*
X120946452Y-81819822D01*
X120999256Y-81774067D01*
X121060496Y-81763243D01*
X121064180Y-81763533D01*
X121553304Y-81274409D01*
X121570342Y-81337993D01*
G37*
%TD.AperFunction*%
%TA.AperFunction,Conductor*%
G36*
X134438811Y-80748382D02*
G01*
X134450761Y-80747241D01*
X134471715Y-80758043D01*
X134494333Y-80764685D01*
X134503745Y-80774555D01*
X134512864Y-80779257D01*
X134531734Y-80802155D01*
X134533269Y-80804553D01*
X134545747Y-80826166D01*
X134549510Y-80829929D01*
X134589948Y-80870367D01*
X134623433Y-80931690D01*
X134626267Y-80958048D01*
X134626267Y-81031952D01*
X134606582Y-81098991D01*
X134589948Y-81119633D01*
X134571400Y-81138181D01*
X134510077Y-81171666D01*
X134483719Y-81174500D01*
X134391569Y-81174500D01*
X134355275Y-81177356D01*
X134355269Y-81177357D01*
X134199872Y-81222505D01*
X134199870Y-81222506D01*
X134172474Y-81238707D01*
X134104750Y-81255887D01*
X134060943Y-81243018D01*
X134059824Y-81245605D01*
X134052658Y-81242504D01*
X133897264Y-81197357D01*
X133897258Y-81197356D01*
X133860964Y-81194500D01*
X133860957Y-81194500D01*
X133750267Y-81194500D01*
X133683228Y-81174815D01*
X133637473Y-81122011D01*
X133626267Y-81070500D01*
X133626267Y-80889000D01*
X133645952Y-80821961D01*
X133698756Y-80776206D01*
X133750267Y-80765000D01*
X133899834Y-80765000D01*
X133931271Y-80747834D01*
X133957629Y-80745000D01*
X134427294Y-80745000D01*
X134438811Y-80748382D01*
G37*
%TD.AperFunction*%
%TA.AperFunction,Conductor*%
G36*
X121131970Y-79611045D02*
G01*
X121138448Y-79617077D01*
X121156480Y-79635109D01*
X121328446Y-79760048D01*
X121328448Y-79760049D01*
X121328451Y-79760051D01*
X121517855Y-79856557D01*
X121547020Y-79866033D01*
X121604693Y-79905468D01*
X121631892Y-79969826D01*
X121619979Y-80038673D01*
X121572736Y-80090149D01*
X121564997Y-80094447D01*
X121433536Y-80161431D01*
X121417733Y-80172912D01*
X121417733Y-80172913D01*
X121906857Y-80662037D01*
X121843274Y-80679075D01*
X121729260Y-80744901D01*
X121636168Y-80837993D01*
X121570342Y-80952007D01*
X121553304Y-81015590D01*
X121064180Y-80526466D01*
X121060496Y-80526756D01*
X120992119Y-80512392D01*
X120942362Y-80463340D01*
X120926767Y-80403138D01*
X120926767Y-79704758D01*
X120946452Y-79637719D01*
X120999256Y-79591964D01*
X121068414Y-79582020D01*
X121131970Y-79611045D01*
G37*
%TD.AperFunction*%
%TA.AperFunction,Conductor*%
G36*
X140845101Y-79588576D02*
G01*
X140901034Y-79630448D01*
X140925451Y-79695912D01*
X140925767Y-79704758D01*
X140925767Y-80403138D01*
X140906082Y-80470177D01*
X140853278Y-80515932D01*
X140792040Y-80526756D01*
X140788353Y-80526465D01*
X140299229Y-81015589D01*
X140282192Y-80952007D01*
X140216366Y-80837993D01*
X140123274Y-80744901D01*
X140009260Y-80679075D01*
X139945675Y-80662037D01*
X140434800Y-80172913D01*
X140418994Y-80161429D01*
X140287536Y-80094447D01*
X140236741Y-80046473D01*
X140219946Y-79978651D01*
X140242484Y-79912517D01*
X140297199Y-79869066D01*
X140305483Y-79866043D01*
X140334679Y-79856557D01*
X140524083Y-79760051D01*
X140600188Y-79704758D01*
X140696053Y-79635109D01*
X140696055Y-79635106D01*
X140696059Y-79635104D01*
X140714086Y-79617077D01*
X140775409Y-79583592D01*
X140845101Y-79588576D01*
G37*
%TD.AperFunction*%
%TA.AperFunction,Conductor*%
G36*
X138597587Y-74145185D02*
G01*
X138641032Y-74193205D01*
X138661214Y-74232814D01*
X138661215Y-74232815D01*
X138786157Y-74404786D01*
X138936480Y-74555109D01*
X139108449Y-74680050D01*
X139117213Y-74684516D01*
X139168009Y-74732491D01*
X139184803Y-74800312D01*
X139162265Y-74866447D01*
X139117213Y-74905484D01*
X139108449Y-74909949D01*
X138936480Y-75034890D01*
X138786157Y-75185213D01*
X138661218Y-75357179D01*
X138564711Y-75546585D01*
X138499020Y-75748760D01*
X138465767Y-75958713D01*
X138465767Y-76171286D01*
X138499020Y-76381239D01*
X138499020Y-76381241D01*
X138499021Y-76381243D01*
X138561395Y-76573211D01*
X138564711Y-76583414D01*
X138661218Y-76772820D01*
X138786157Y-76944786D01*
X138936480Y-77095109D01*
X139108449Y-77220050D01*
X139117213Y-77224516D01*
X139168009Y-77272491D01*
X139184803Y-77340312D01*
X139162265Y-77406447D01*
X139117213Y-77445484D01*
X139108449Y-77449949D01*
X138936480Y-77574890D01*
X138786157Y-77725213D01*
X138661218Y-77897179D01*
X138564711Y-78086585D01*
X138499020Y-78288760D01*
X138465767Y-78498713D01*
X138465767Y-78711286D01*
X138499020Y-78921239D01*
X138564711Y-79123414D01*
X138661215Y-79312815D01*
X138684793Y-79345267D01*
X138708272Y-79411074D01*
X138692446Y-79479128D01*
X138642340Y-79527822D01*
X138608667Y-79539769D01*
X138506698Y-79560053D01*
X138506689Y-79560055D01*
X138361018Y-79620393D01*
X138361005Y-79620400D01*
X138229902Y-79708001D01*
X138229898Y-79708004D01*
X138118404Y-79819498D01*
X138118401Y-79819502D01*
X138030800Y-79950605D01*
X138030793Y-79950618D01*
X137970455Y-80096289D01*
X137970452Y-80096301D01*
X137939691Y-80250944D01*
X137939691Y-80408632D01*
X137946987Y-80445315D01*
X137940758Y-80514907D01*
X137897894Y-80570084D01*
X137832004Y-80593327D01*
X137764008Y-80577258D01*
X137737688Y-80557186D01*
X135863086Y-78682584D01*
X135829601Y-78621261D01*
X135826767Y-78594903D01*
X135826767Y-76495097D01*
X135846452Y-76428058D01*
X135863086Y-76407416D01*
X138108683Y-74161819D01*
X138170006Y-74128334D01*
X138196364Y-74125500D01*
X138530548Y-74125500D01*
X138597587Y-74145185D01*
G37*
%TD.AperFunction*%
%TA.AperFunction,Conductor*%
G36*
X123377939Y-74199361D02*
G01*
X123416966Y-74257314D01*
X123422767Y-74294796D01*
X123422767Y-74439530D01*
X123422766Y-74439548D01*
X123422766Y-74605254D01*
X123422765Y-74605254D01*
X123463690Y-74757985D01*
X123473814Y-74775520D01*
X123542744Y-74894912D01*
X123542748Y-74894917D01*
X123661616Y-75013785D01*
X123661622Y-75013790D01*
X123688447Y-75040615D01*
X123721932Y-75101938D01*
X123724766Y-75128296D01*
X123724766Y-75140154D01*
X123724765Y-75140154D01*
X123724766Y-75140157D01*
X123765690Y-75292885D01*
X123774830Y-75308716D01*
X123774831Y-75308719D01*
X123774832Y-75308719D01*
X123844744Y-75429812D01*
X123844748Y-75429817D01*
X123963616Y-75548685D01*
X123963622Y-75548690D01*
X123989259Y-75574327D01*
X124008965Y-75600008D01*
X124045744Y-75663712D01*
X124045746Y-75663715D01*
X124045747Y-75663716D01*
X124157551Y-75775520D01*
X124157552Y-75775521D01*
X124657551Y-76275520D01*
X124657553Y-76275521D01*
X124657557Y-76275524D01*
X124773546Y-76342489D01*
X124794483Y-76354577D01*
X124947210Y-76395501D01*
X124947212Y-76395501D01*
X125112921Y-76395501D01*
X125112937Y-76395500D01*
X125597671Y-76395500D01*
X125664710Y-76415185D01*
X125710465Y-76467989D01*
X125720409Y-76537147D01*
X125691384Y-76600703D01*
X125685352Y-76607181D01*
X125575136Y-76717396D01*
X125575130Y-76717404D01*
X125493398Y-76855606D01*
X125493396Y-76855611D01*
X125448602Y-77009791D01*
X125448601Y-77009797D01*
X125445767Y-77045811D01*
X125445767Y-77544169D01*
X125445768Y-77544191D01*
X125448602Y-77580205D01*
X125493396Y-77734388D01*
X125493398Y-77734393D01*
X125506992Y-77757379D01*
X125524175Y-77825103D01*
X125502015Y-77891366D01*
X125447549Y-77935129D01*
X125400260Y-77944500D01*
X125362936Y-77944500D01*
X125362920Y-77944499D01*
X125355324Y-77944499D01*
X125197210Y-77944499D01*
X125044482Y-77985423D01*
X125044480Y-77985424D01*
X125017658Y-78000908D01*
X125017659Y-78000909D01*
X124907554Y-78064477D01*
X124907549Y-78064481D01*
X124838449Y-78133582D01*
X124777126Y-78167067D01*
X124707434Y-78162083D01*
X124651501Y-78120211D01*
X124627084Y-78054747D01*
X124626768Y-78045901D01*
X124626768Y-77975945D01*
X124626768Y-77975943D01*
X124585844Y-77823215D01*
X124537499Y-77739480D01*
X124506787Y-77686284D01*
X124394983Y-77574480D01*
X124394982Y-77574479D01*
X124390652Y-77570149D01*
X124390641Y-77570139D01*
X123370024Y-76549522D01*
X123336539Y-76488199D01*
X123339774Y-76423523D01*
X123353513Y-76381243D01*
X123386767Y-76171287D01*
X123386767Y-75958713D01*
X123353513Y-75748757D01*
X123287824Y-75546588D01*
X123191318Y-75357184D01*
X123191316Y-75357181D01*
X123191315Y-75357179D01*
X123066376Y-75185213D01*
X122916053Y-75034890D01*
X122744087Y-74909951D01*
X122743382Y-74909591D01*
X122735321Y-74905485D01*
X122684526Y-74857512D01*
X122667730Y-74789692D01*
X122690266Y-74723556D01*
X122735321Y-74684515D01*
X122744083Y-74680051D01*
X122826737Y-74620000D01*
X122916053Y-74555109D01*
X122916055Y-74555106D01*
X122916059Y-74555104D01*
X123066371Y-74404792D01*
X123066373Y-74404788D01*
X123066376Y-74404786D01*
X123173519Y-74257314D01*
X123191318Y-74232816D01*
X123191324Y-74232803D01*
X123193036Y-74230012D01*
X123193969Y-74229167D01*
X123194182Y-74228875D01*
X123194243Y-74228919D01*
X123244845Y-74183134D01*
X123313774Y-74171707D01*
X123377939Y-74199361D01*
G37*
%TD.AperFunction*%
%TA.AperFunction,Conductor*%
G36*
X132235454Y-73841537D02*
G01*
X132265540Y-73849216D01*
X132268391Y-73852278D01*
X132272370Y-73853576D01*
X132291996Y-73877632D01*
X132313151Y-73900353D01*
X132314217Y-73904868D01*
X132316539Y-73907713D01*
X132318066Y-73921154D01*
X132326267Y-73955858D01*
X132326267Y-76270000D01*
X132360991Y-76270000D01*
X132428030Y-76289685D01*
X132473785Y-76342489D01*
X132483729Y-76411647D01*
X132454704Y-76475203D01*
X132429882Y-76497102D01*
X132315979Y-76573209D01*
X132290364Y-76598825D01*
X132231006Y-76658182D01*
X132169686Y-76691666D01*
X132099994Y-76686682D01*
X132048976Y-76650961D01*
X132004515Y-76598825D01*
X131977041Y-76639688D01*
X131874138Y-76570500D01*
X131786457Y-76482819D01*
X131831164Y-76438111D01*
X131831167Y-76438107D01*
X131882325Y-76337705D01*
X131930299Y-76286909D01*
X131970132Y-76276134D01*
X131976267Y-76270000D01*
X131976267Y-75470000D01*
X131576705Y-75470000D01*
X131569472Y-75473949D01*
X131499781Y-75468960D01*
X131444748Y-75428269D01*
X131433133Y-75413132D01*
X131360219Y-75357184D01*
X131343471Y-75344333D01*
X131302270Y-75287908D01*
X131297342Y-75221769D01*
X131317586Y-75120000D01*
X131585297Y-75120000D01*
X131976267Y-75120000D01*
X131976267Y-74970000D01*
X131585297Y-74970000D01*
X131590640Y-75003745D01*
X131591598Y-75006692D01*
X131591705Y-75010468D01*
X131592166Y-75013376D01*
X131591790Y-75013435D01*
X131593588Y-75076533D01*
X131591598Y-75083308D01*
X131590640Y-75086254D01*
X131585297Y-75120000D01*
X131317586Y-75120000D01*
X131326767Y-75073844D01*
X131326767Y-74916155D01*
X131326766Y-74916153D01*
X131316879Y-74866447D01*
X131296004Y-74761503D01*
X131264115Y-74684516D01*
X131235664Y-74615827D01*
X131235657Y-74615814D01*
X131183435Y-74537658D01*
X131179566Y-74525302D01*
X131175113Y-74520131D01*
X131172802Y-74503700D01*
X131162557Y-74470980D01*
X131166288Y-74457379D01*
X131165383Y-74450942D01*
X131171991Y-74436588D01*
X131181042Y-74403600D01*
X131191511Y-74394195D01*
X131194605Y-74387477D01*
X131209763Y-74377801D01*
X131233021Y-74356910D01*
X131247636Y-74353626D01*
X131253499Y-74349884D01*
X131274454Y-74347600D01*
X131287062Y-74344768D01*
X131294919Y-74344801D01*
X131300227Y-74345500D01*
X131459960Y-74345500D01*
X131460196Y-74345501D01*
X131493526Y-74355441D01*
X131526710Y-74365185D01*
X131526888Y-74365390D01*
X131527151Y-74365469D01*
X131549784Y-74391814D01*
X131572465Y-74417989D01*
X131572569Y-74418336D01*
X131572682Y-74418467D01*
X131572744Y-74418917D01*
X131582144Y-74450103D01*
X131590638Y-74503739D01*
X131591597Y-74506689D01*
X131591704Y-74510470D01*
X131592165Y-74513376D01*
X131591789Y-74513435D01*
X131593588Y-74576530D01*
X131591598Y-74583308D01*
X131590640Y-74586254D01*
X131585297Y-74620000D01*
X131976267Y-74620000D01*
X131976267Y-74162745D01*
X131989049Y-74107912D01*
X131994449Y-74096958D01*
X132027384Y-74054037D01*
X132086632Y-73910999D01*
X132086814Y-73909614D01*
X132091049Y-73901025D01*
X132112070Y-73878171D01*
X132131547Y-73854002D01*
X132135517Y-73852680D01*
X132138350Y-73849601D01*
X132168380Y-73841742D01*
X132197841Y-73831937D01*
X132201896Y-73832972D01*
X132205943Y-73831913D01*
X132235454Y-73841537D01*
G37*
%TD.AperFunction*%
%TA.AperFunction,Conductor*%
G36*
X125913148Y-49815185D02*
G01*
X125958903Y-49867989D01*
X125968847Y-49937147D01*
X125949211Y-49988391D01*
X125897319Y-50066051D01*
X125897314Y-50066060D01*
X125837010Y-50211648D01*
X125837008Y-50211656D01*
X125806267Y-50366202D01*
X125806267Y-50495000D01*
X126306267Y-50495000D01*
X126306267Y-50995000D01*
X125806267Y-50995000D01*
X125806267Y-51123797D01*
X125837008Y-51278343D01*
X125837010Y-51278351D01*
X125897314Y-51423939D01*
X125897319Y-51423948D01*
X125984865Y-51554969D01*
X125984868Y-51554973D01*
X126096293Y-51666398D01*
X126096301Y-51666404D01*
X126227314Y-51753944D01*
X126227332Y-51753954D01*
X126356266Y-51807360D01*
X126356267Y-51807360D01*
X126356267Y-51211988D01*
X126366207Y-51229205D01*
X126422062Y-51285060D01*
X126490471Y-51324556D01*
X126566771Y-51345000D01*
X126645763Y-51345000D01*
X126722063Y-51324556D01*
X126790472Y-51285060D01*
X126846327Y-51229205D01*
X126856267Y-51211988D01*
X126856267Y-51807360D01*
X126985201Y-51753954D01*
X126985219Y-51753944D01*
X127116232Y-51666404D01*
X127116240Y-51666398D01*
X127227665Y-51554973D01*
X127227668Y-51554969D01*
X127315214Y-51423948D01*
X127315219Y-51423939D01*
X127375523Y-51278351D01*
X127375525Y-51278343D01*
X127406266Y-51123797D01*
X127406267Y-51123794D01*
X127406267Y-50995000D01*
X126906267Y-50995000D01*
X126906267Y-50495000D01*
X127406267Y-50495000D01*
X127406267Y-50366206D01*
X127406266Y-50366202D01*
X127375525Y-50211656D01*
X127375523Y-50211648D01*
X127315219Y-50066060D01*
X127315214Y-50066051D01*
X127263323Y-49988391D01*
X127242445Y-49921714D01*
X127260929Y-49854333D01*
X127312908Y-49807643D01*
X127366425Y-49795500D01*
X134486109Y-49795500D01*
X134553148Y-49815185D01*
X134598903Y-49867989D01*
X134608847Y-49937147D01*
X134589211Y-49988391D01*
X134537319Y-50066051D01*
X134537314Y-50066060D01*
X134477010Y-50211648D01*
X134477008Y-50211656D01*
X134446267Y-50366202D01*
X134446267Y-50495000D01*
X134946267Y-50495000D01*
X134946267Y-50995000D01*
X134446267Y-50995000D01*
X134446267Y-51123797D01*
X134477008Y-51278343D01*
X134477010Y-51278351D01*
X134537314Y-51423939D01*
X134537319Y-51423948D01*
X134624865Y-51554969D01*
X134624868Y-51554973D01*
X134736293Y-51666398D01*
X134736297Y-51666401D01*
X134867318Y-51753947D01*
X134867327Y-51753952D01*
X134939657Y-51783912D01*
X134994060Y-51827753D01*
X135016125Y-51894047D01*
X134998846Y-51961746D01*
X134979885Y-51986154D01*
X133883859Y-53082181D01*
X133822536Y-53115666D01*
X133796178Y-53118500D01*
X129906936Y-53118500D01*
X129906920Y-53118499D01*
X129899324Y-53118499D01*
X129741210Y-53118499D01*
X129633854Y-53147265D01*
X129588477Y-53159424D01*
X129588476Y-53159425D01*
X129538363Y-53188359D01*
X129538362Y-53188360D01*
X129494956Y-53213420D01*
X129451552Y-53238479D01*
X129451549Y-53238481D01*
X128660270Y-54029761D01*
X128598947Y-54063246D01*
X128529255Y-54058262D01*
X128484908Y-54029761D01*
X128389634Y-53934487D01*
X128389632Y-53934485D01*
X128324017Y-53896602D01*
X128258403Y-53858719D01*
X128185217Y-53839109D01*
X128112033Y-53819500D01*
X127960501Y-53819500D01*
X127814130Y-53858719D01*
X127682902Y-53934485D01*
X127682899Y-53934487D01*
X127575754Y-54041632D01*
X127575748Y-54041641D01*
X127560766Y-54067589D01*
X127510198Y-54115803D01*
X127441591Y-54129024D01*
X127376727Y-54103054D01*
X127338820Y-54053038D01*
X127315221Y-53996064D01*
X127315214Y-53996051D01*
X127227668Y-53865030D01*
X127227665Y-53865026D01*
X127116240Y-53753601D01*
X127116236Y-53753598D01*
X126985215Y-53666052D01*
X126985205Y-53666047D01*
X126856267Y-53612639D01*
X126856267Y-54208011D01*
X126846327Y-54190795D01*
X126790472Y-54134940D01*
X126722063Y-54095444D01*
X126645763Y-54075000D01*
X126566771Y-54075000D01*
X126490471Y-54095444D01*
X126422062Y-54134940D01*
X126366207Y-54190795D01*
X126356267Y-54208011D01*
X126356267Y-53612639D01*
X126356266Y-53612639D01*
X126227328Y-53666047D01*
X126227318Y-53666052D01*
X126096297Y-53753598D01*
X126096293Y-53753601D01*
X125984868Y-53865026D01*
X125984865Y-53865030D01*
X125897319Y-53996051D01*
X125897314Y-53996060D01*
X125837010Y-54141648D01*
X125837008Y-54141656D01*
X125806267Y-54296202D01*
X125806267Y-54675000D01*
X126306267Y-54675000D01*
X126306267Y-55175000D01*
X125806267Y-55175000D01*
X125806267Y-55553797D01*
X125837008Y-55708343D01*
X125837010Y-55708351D01*
X125897314Y-55853939D01*
X125897319Y-55853948D01*
X125984865Y-55984969D01*
X125984868Y-55984973D01*
X126096293Y-56096398D01*
X126096301Y-56096404D01*
X126227314Y-56183944D01*
X126227332Y-56183954D01*
X126356266Y-56237360D01*
X126356267Y-56237360D01*
X126356267Y-55641988D01*
X126366207Y-55659205D01*
X126422062Y-55715060D01*
X126490471Y-55754556D01*
X126566771Y-55775000D01*
X126645763Y-55775000D01*
X126722063Y-55754556D01*
X126790472Y-55715060D01*
X126846327Y-55659205D01*
X126856267Y-55641988D01*
X126856267Y-56237359D01*
X126904814Y-56217251D01*
X126974284Y-56209782D01*
X127036763Y-56241057D01*
X127072415Y-56301146D01*
X127076267Y-56331812D01*
X127076267Y-56609785D01*
X127076269Y-56609808D01*
X127079175Y-56634869D01*
X127079176Y-56634873D01*
X127124478Y-56737474D01*
X127124481Y-56737479D01*
X127203787Y-56816785D01*
X127203792Y-56816788D01*
X127306390Y-56862089D01*
X127331473Y-56864999D01*
X127426267Y-56864998D01*
X127426267Y-55964000D01*
X127445952Y-55896961D01*
X127498756Y-55851206D01*
X127550267Y-55840000D01*
X127551768Y-55840000D01*
X127618807Y-55859685D01*
X127664562Y-55912489D01*
X127675768Y-55964000D01*
X127675768Y-56612876D01*
X127682175Y-56672483D01*
X127732469Y-56807328D01*
X127732470Y-56807330D01*
X127801034Y-56898919D01*
X127825451Y-56964383D01*
X127825767Y-56973230D01*
X127825767Y-57186691D01*
X127806082Y-57253730D01*
X127789448Y-57274372D01*
X127758190Y-57305629D01*
X127758183Y-57305638D01*
X127712065Y-57383621D01*
X127660996Y-57431305D01*
X127605333Y-57444500D01*
X126766271Y-57444500D01*
X126699232Y-57424815D01*
X126660732Y-57385596D01*
X126649235Y-57366956D01*
X126529311Y-57247032D01*
X126529307Y-57247029D01*
X126384972Y-57158001D01*
X126384966Y-57157998D01*
X126384964Y-57157997D01*
X126384961Y-57157996D01*
X126223976Y-57104651D01*
X126124613Y-57094500D01*
X125527929Y-57094500D01*
X125527911Y-57094501D01*
X125428559Y-57104650D01*
X125428556Y-57104651D01*
X125267572Y-57157996D01*
X125267561Y-57158001D01*
X125123226Y-57247029D01*
X125123222Y-57247032D01*
X125003299Y-57366955D01*
X125003296Y-57366959D01*
X124914268Y-57511294D01*
X124914263Y-57511305D01*
X124860918Y-57672290D01*
X124850767Y-57771647D01*
X124850767Y-58318337D01*
X124850768Y-58318355D01*
X124860917Y-58417707D01*
X124860918Y-58417710D01*
X124914263Y-58578694D01*
X124914268Y-58578705D01*
X125003296Y-58723040D01*
X125003299Y-58723044D01*
X125123223Y-58842968D01*
X125139074Y-58852745D01*
X125185799Y-58904693D01*
X125197022Y-58973655D01*
X125172782Y-59033209D01*
X125114344Y-59110270D01*
X125061398Y-59244531D01*
X125061398Y-59244532D01*
X125051267Y-59328897D01*
X125051267Y-59345000D01*
X126601267Y-59345000D01*
X126601267Y-59328897D01*
X126591135Y-59244532D01*
X126591135Y-59244531D01*
X126538189Y-59110270D01*
X126479752Y-59033210D01*
X126454928Y-58967899D01*
X126469356Y-58899535D01*
X126513459Y-58852745D01*
X126529311Y-58842968D01*
X126649235Y-58723044D01*
X126660732Y-58704403D01*
X126712679Y-58657679D01*
X126766271Y-58645500D01*
X127501767Y-58645500D01*
X127568806Y-58665185D01*
X127614561Y-58717989D01*
X127625767Y-58769500D01*
X127625767Y-58948201D01*
X127628668Y-58985067D01*
X127628669Y-58985073D01*
X127674521Y-59142893D01*
X127674522Y-59142896D01*
X127674523Y-59142898D01*
X127708999Y-59201194D01*
X127726267Y-59264314D01*
X127726267Y-59920000D01*
X128076266Y-59920000D01*
X128076266Y-59656572D01*
X128095951Y-59589533D01*
X128148755Y-59543778D01*
X128208119Y-59533290D01*
X128208135Y-59532904D01*
X128209911Y-59532973D01*
X128210012Y-59532956D01*
X128210559Y-59532999D01*
X128210562Y-59532999D01*
X128210573Y-59533000D01*
X128451767Y-59533000D01*
X128518806Y-59552685D01*
X128564561Y-59605489D01*
X128575767Y-59657000D01*
X128575767Y-60069902D01*
X128556082Y-60136941D01*
X128539448Y-60157583D01*
X128264330Y-60432700D01*
X128203007Y-60466185D01*
X128133315Y-60461201D01*
X128088968Y-60432700D01*
X128076268Y-60420000D01*
X127726267Y-60420000D01*
X127726267Y-61210681D01*
X127749071Y-61239577D01*
X127755831Y-61309119D01*
X127730387Y-61363909D01*
X127726298Y-61368956D01*
X127703299Y-61391956D01*
X127689348Y-61414572D01*
X127684337Y-61420760D01*
X127661869Y-61436276D01*
X127641569Y-61454534D01*
X127633540Y-61455840D01*
X127626845Y-61460464D01*
X127599552Y-61461369D01*
X127572607Y-61465754D01*
X127564680Y-61462527D01*
X127557014Y-61462782D01*
X127539225Y-61452166D01*
X127513056Y-61441515D01*
X127435994Y-61383076D01*
X127309556Y-61333216D01*
X127310683Y-61330356D01*
X127264916Y-61306903D01*
X127229834Y-61246480D01*
X127226267Y-61216952D01*
X127226267Y-60420000D01*
X126876268Y-60420000D01*
X126876268Y-60811696D01*
X126879118Y-60842106D01*
X126923920Y-60970145D01*
X127004474Y-61079292D01*
X127113620Y-61159845D01*
X127118221Y-61161455D01*
X127174997Y-61202177D01*
X127200745Y-61267129D01*
X127201267Y-61278497D01*
X127201267Y-62870000D01*
X127217369Y-62870000D01*
X127301734Y-62859868D01*
X127301735Y-62859868D01*
X127435996Y-62806922D01*
X127513056Y-62748485D01*
X127578367Y-62723661D01*
X127646731Y-62738088D01*
X127693520Y-62782190D01*
X127703298Y-62798043D01*
X127823222Y-62917967D01*
X127823226Y-62917970D01*
X127967561Y-63006998D01*
X127967564Y-63006999D01*
X127967570Y-63007003D01*
X128128559Y-63060349D01*
X128227922Y-63070500D01*
X128651767Y-63070499D01*
X128718806Y-63090183D01*
X128764561Y-63142987D01*
X128775767Y-63194499D01*
X128775767Y-70074941D01*
X128756082Y-70141980D01*
X128703278Y-70187735D01*
X128634120Y-70197679D01*
X128570564Y-70168654D01*
X128537206Y-70122393D01*
X128483393Y-69992476D01*
X128483386Y-69992463D01*
X128395785Y-69861360D01*
X128395782Y-69861356D01*
X128284288Y-69749862D01*
X128284284Y-69749859D01*
X128153181Y-69662258D01*
X128153168Y-69662251D01*
X128007497Y-69601913D01*
X128007485Y-69601910D01*
X127852841Y-69571149D01*
X127852838Y-69571149D01*
X127695154Y-69571149D01*
X127695151Y-69571149D01*
X127540506Y-69601910D01*
X127540494Y-69601913D01*
X127394823Y-69662251D01*
X127394810Y-69662258D01*
X127263707Y-69749859D01*
X127263703Y-69749862D01*
X127152209Y-69861356D01*
X127152206Y-69861360D01*
X127064605Y-69992463D01*
X127064598Y-69992476D01*
X127004259Y-70138149D01*
X127004257Y-70138157D01*
X126990378Y-70207931D01*
X126957993Y-70269842D01*
X126903357Y-70302815D01*
X126836876Y-70322129D01*
X126836875Y-70322130D01*
X126698671Y-70403863D01*
X126698663Y-70403869D01*
X126585136Y-70517396D01*
X126585130Y-70517404D01*
X126503398Y-70655606D01*
X126503396Y-70655611D01*
X126458602Y-70809791D01*
X126458601Y-70809797D01*
X126455767Y-70845811D01*
X126455767Y-71344169D01*
X126455768Y-71344191D01*
X126458602Y-71380205D01*
X126503396Y-71534388D01*
X126503398Y-71534393D01*
X126585130Y-71672595D01*
X126585136Y-71672603D01*
X126698663Y-71786130D01*
X126698672Y-71786137D01*
X126777472Y-71832739D01*
X126825155Y-71883808D01*
X126837659Y-71952550D01*
X126811014Y-72017139D01*
X126787986Y-72039240D01*
X126691626Y-72110358D01*
X126612863Y-72217077D01*
X126578599Y-72315000D01*
X127844905Y-72315000D01*
X127911944Y-72334685D01*
X127912335Y-72335000D01*
X128302267Y-72335000D01*
X128369306Y-72354685D01*
X128415061Y-72407489D01*
X128426267Y-72459000D01*
X128426267Y-72640500D01*
X128406582Y-72707539D01*
X128353778Y-72753294D01*
X128302267Y-72764500D01*
X128191569Y-72764500D01*
X128155275Y-72767356D01*
X128155269Y-72767357D01*
X127999877Y-72812503D01*
X127999872Y-72812506D01*
X127991033Y-72817732D01*
X127927915Y-72835000D01*
X127757629Y-72835000D01*
X127690590Y-72815315D01*
X127690199Y-72815000D01*
X127674619Y-72815000D01*
X127611500Y-72797732D01*
X127602662Y-72792506D01*
X127602660Y-72792505D01*
X127602656Y-72792503D01*
X127447264Y-72747357D01*
X127447258Y-72747356D01*
X127410964Y-72744500D01*
X127410957Y-72744500D01*
X126941577Y-72744500D01*
X126941569Y-72744500D01*
X126905275Y-72747356D01*
X126905269Y-72747357D01*
X126749877Y-72792503D01*
X126749872Y-72792506D01*
X126741033Y-72797732D01*
X126677915Y-72815000D01*
X126578598Y-72815000D01*
X126577067Y-72817157D01*
X126580238Y-72879289D01*
X126547318Y-72938144D01*
X126496150Y-72989312D01*
X126496146Y-72989318D01*
X126413772Y-73128606D01*
X126413771Y-73128609D01*
X126368624Y-73284002D01*
X126368623Y-73284008D01*
X126365767Y-73320302D01*
X126365767Y-73570500D01*
X126346082Y-73637539D01*
X126293278Y-73683294D01*
X126241767Y-73694500D01*
X125950767Y-73694500D01*
X125883728Y-73674815D01*
X125837973Y-73622011D01*
X125826767Y-73570500D01*
X125826767Y-68416945D01*
X125826767Y-68416943D01*
X125785844Y-68264216D01*
X125778795Y-68252007D01*
X125706791Y-68127290D01*
X125706785Y-68127282D01*
X125594982Y-68015479D01*
X125584019Y-68009150D01*
X125572305Y-68002386D01*
X125524090Y-67951822D01*
X125510866Y-67883215D01*
X125536833Y-67818350D01*
X125572304Y-67787613D01*
X125594983Y-67774520D01*
X125706787Y-67662716D01*
X125785844Y-67525784D01*
X125826767Y-67373057D01*
X125826767Y-65683059D01*
X125826768Y-65683046D01*
X125826768Y-65514945D01*
X125826768Y-65514943D01*
X125785844Y-65362215D01*
X125771759Y-65337821D01*
X125752521Y-65304498D01*
X125752521Y-65304497D01*
X125706791Y-65225290D01*
X125706788Y-65225286D01*
X125706787Y-65225284D01*
X125594983Y-65113480D01*
X125594982Y-65113479D01*
X125590652Y-65109149D01*
X125590641Y-65109139D01*
X124964086Y-64482584D01*
X124930601Y-64421261D01*
X124927767Y-64394903D01*
X124927767Y-62386102D01*
X126201267Y-62386102D01*
X126211398Y-62470467D01*
X126211398Y-62470468D01*
X126264344Y-62604729D01*
X126351545Y-62719721D01*
X126466537Y-62806922D01*
X126600799Y-62859868D01*
X126685165Y-62870000D01*
X126701267Y-62870000D01*
X126701267Y-62345000D01*
X126201267Y-62345000D01*
X126201267Y-62386102D01*
X124927767Y-62386102D01*
X124927767Y-61803897D01*
X126201267Y-61803897D01*
X126201267Y-61845000D01*
X126701267Y-61845000D01*
X126701267Y-61320000D01*
X126685165Y-61320000D01*
X126600799Y-61330131D01*
X126600798Y-61330131D01*
X126466537Y-61383077D01*
X126351545Y-61470278D01*
X126264344Y-61585270D01*
X126211398Y-61719531D01*
X126211398Y-61719532D01*
X126201267Y-61803897D01*
X124927767Y-61803897D01*
X124927767Y-60496943D01*
X124927766Y-60496940D01*
X124916873Y-60456285D01*
X124916873Y-60456284D01*
X124886844Y-60344215D01*
X124831904Y-60249057D01*
X124807787Y-60207284D01*
X124695983Y-60095480D01*
X124695980Y-60095478D01*
X124461604Y-59861102D01*
X125051267Y-59861102D01*
X125061398Y-59945467D01*
X125061398Y-59945468D01*
X125114344Y-60079729D01*
X125201545Y-60194721D01*
X125316537Y-60281922D01*
X125450799Y-60334868D01*
X125535165Y-60345000D01*
X125576267Y-60345000D01*
X126076267Y-60345000D01*
X126117369Y-60345000D01*
X126201734Y-60334868D01*
X126201735Y-60334868D01*
X126335996Y-60281922D01*
X126450988Y-60194721D01*
X126538189Y-60079729D01*
X126591135Y-59945468D01*
X126591135Y-59945467D01*
X126601267Y-59861102D01*
X126601267Y-59845000D01*
X126076267Y-59845000D01*
X126076267Y-60345000D01*
X125576267Y-60345000D01*
X125576267Y-59845000D01*
X125051267Y-59845000D01*
X125051267Y-59861102D01*
X124461604Y-59861102D01*
X124128795Y-59528293D01*
X126876267Y-59528293D01*
X126876267Y-59920000D01*
X127226267Y-59920000D01*
X127226267Y-59140737D01*
X127226266Y-59140737D01*
X127113622Y-59180153D01*
X127004474Y-59260707D01*
X126923920Y-59369854D01*
X126879117Y-59497895D01*
X126879117Y-59497899D01*
X126876267Y-59528293D01*
X124128795Y-59528293D01*
X123370024Y-58769522D01*
X123336539Y-58708199D01*
X123339774Y-58643523D01*
X123353513Y-58601243D01*
X123386767Y-58391287D01*
X123386767Y-58178713D01*
X123353513Y-57968757D01*
X123287824Y-57766588D01*
X123191318Y-57577184D01*
X123191316Y-57577181D01*
X123191315Y-57577179D01*
X123066376Y-57405213D01*
X122916053Y-57254890D01*
X122744087Y-57129951D01*
X122554681Y-57033444D01*
X122554680Y-57033443D01*
X122554679Y-57033443D01*
X122525513Y-57023966D01*
X122467838Y-56984529D01*
X122440640Y-56920171D01*
X122452555Y-56851324D01*
X122499799Y-56799849D01*
X122507537Y-56795551D01*
X122638999Y-56728566D01*
X122654799Y-56717085D01*
X122654800Y-56717085D01*
X122165677Y-56227962D01*
X122229260Y-56210925D01*
X122343274Y-56145099D01*
X122436366Y-56052007D01*
X122502192Y-55937993D01*
X122519229Y-55874410D01*
X123008352Y-56363533D01*
X123008352Y-56363532D01*
X123019835Y-56347730D01*
X123102012Y-56186452D01*
X123102015Y-56186444D01*
X123157949Y-56014293D01*
X123186267Y-55835506D01*
X123186267Y-55654493D01*
X123157949Y-55475706D01*
X123102015Y-55303555D01*
X123102014Y-55303552D01*
X123039026Y-55179933D01*
X123019838Y-55142275D01*
X123019833Y-55142267D01*
X123008352Y-55126466D01*
X122519229Y-55615589D01*
X122502192Y-55552007D01*
X122436366Y-55437993D01*
X122343274Y-55344901D01*
X122229260Y-55279075D01*
X122165676Y-55262037D01*
X122654800Y-54772913D01*
X122638994Y-54761429D01*
X122507536Y-54694447D01*
X122456741Y-54646473D01*
X122439946Y-54578651D01*
X122462484Y-54512517D01*
X122517199Y-54469066D01*
X122525483Y-54466043D01*
X122554679Y-54456557D01*
X122744083Y-54360051D01*
X122831959Y-54296206D01*
X122916053Y-54235109D01*
X122916055Y-54235106D01*
X122916059Y-54235104D01*
X123066371Y-54084792D01*
X123066373Y-54084788D01*
X123066376Y-54084786D01*
X123191315Y-53912820D01*
X123191314Y-53912820D01*
X123191318Y-53912816D01*
X123287824Y-53723412D01*
X123353513Y-53521243D01*
X123386767Y-53311287D01*
X123386767Y-53098713D01*
X123353513Y-52888757D01*
X123287824Y-52686588D01*
X123191318Y-52497184D01*
X123191316Y-52497181D01*
X123191315Y-52497179D01*
X123066376Y-52325213D01*
X122952836Y-52211673D01*
X122919351Y-52150350D01*
X122924335Y-52080658D01*
X122966207Y-52024725D01*
X122997182Y-52007810D01*
X123128598Y-51958796D01*
X123243813Y-51872546D01*
X123330063Y-51757331D01*
X123380358Y-51622483D01*
X123386767Y-51562873D01*
X123386766Y-50495000D01*
X123386766Y-49919500D01*
X123406450Y-49852461D01*
X123459254Y-49806706D01*
X123510766Y-49795500D01*
X125846109Y-49795500D01*
X125913148Y-49815185D01*
G37*
%TD.AperFunction*%
%TA.AperFunction,Conductor*%
G36*
X130927164Y-60132437D02*
G01*
X130962816Y-60192526D01*
X130966668Y-60223192D01*
X130966668Y-69567429D01*
X130966667Y-69567447D01*
X130966667Y-69733153D01*
X130966666Y-69733153D01*
X131007590Y-69885883D01*
X131007591Y-69885884D01*
X131012560Y-69894490D01*
X131012563Y-69894502D01*
X131012567Y-69894501D01*
X131069132Y-69992476D01*
X131086647Y-70022813D01*
X131086649Y-70022816D01*
X131205517Y-70141684D01*
X131205523Y-70141689D01*
X132605490Y-71541656D01*
X132638975Y-71602979D01*
X132636267Y-71640845D01*
X132636267Y-72892667D01*
X132660812Y-72884080D01*
X132730591Y-72880518D01*
X132791218Y-72915246D01*
X132823446Y-72977240D01*
X132825767Y-73001121D01*
X132825767Y-73347129D01*
X132806082Y-73414168D01*
X132753278Y-73459923D01*
X132684120Y-73469867D01*
X132620564Y-73440842D01*
X132614086Y-73434810D01*
X132569378Y-73390102D01*
X132569374Y-73390099D01*
X132459999Y-73334370D01*
X132369263Y-73320000D01*
X132326267Y-73320000D01*
X132302896Y-73343371D01*
X132241572Y-73376855D01*
X132171880Y-73371870D01*
X132115947Y-73329999D01*
X132097427Y-73294443D01*
X132093794Y-73283401D01*
X132086632Y-73229001D01*
X132034430Y-73102975D01*
X132032979Y-73098563D01*
X132032689Y-73089581D01*
X132026767Y-73059809D01*
X132026767Y-73029114D01*
X132046452Y-72962075D01*
X132099256Y-72916320D01*
X132103867Y-72915656D01*
X132136267Y-72892668D01*
X132136267Y-72793352D01*
X132153534Y-72730233D01*
X132158761Y-72721395D01*
X132182264Y-72640500D01*
X132203909Y-72565997D01*
X132203910Y-72565991D01*
X132206767Y-72529690D01*
X132206767Y-72060310D01*
X132203910Y-72024007D01*
X132202083Y-72017719D01*
X132158762Y-71868608D01*
X132158759Y-71868600D01*
X132153533Y-71859763D01*
X132136267Y-71796645D01*
X132136267Y-71697330D01*
X132134109Y-71695799D01*
X132071977Y-71698971D01*
X132013119Y-71666048D01*
X131961959Y-71614887D01*
X131961951Y-71614881D01*
X131838134Y-71541656D01*
X131822662Y-71532506D01*
X131822661Y-71532505D01*
X131822660Y-71532505D01*
X131822657Y-71532504D01*
X131667264Y-71487357D01*
X131667258Y-71487356D01*
X131630964Y-71484500D01*
X131630957Y-71484500D01*
X131221577Y-71484500D01*
X131221569Y-71484500D01*
X131185275Y-71487356D01*
X131185269Y-71487357D01*
X131029876Y-71532504D01*
X131029873Y-71532505D01*
X130890582Y-71614881D01*
X130890574Y-71614887D01*
X130818676Y-71686786D01*
X130757353Y-71720271D01*
X130690040Y-71716146D01*
X130636267Y-71697330D01*
X130636267Y-72171000D01*
X130616582Y-72238039D01*
X130563778Y-72283794D01*
X130512267Y-72295000D01*
X130330767Y-72295000D01*
X130263728Y-72275315D01*
X130217973Y-72222511D01*
X130206767Y-72171000D01*
X130206767Y-72060317D01*
X130206766Y-72060302D01*
X130203910Y-72024008D01*
X130203909Y-72024002D01*
X130158762Y-71868608D01*
X130158759Y-71868600D01*
X130153533Y-71859763D01*
X130136267Y-71796645D01*
X130136267Y-71697330D01*
X130134109Y-71695799D01*
X130071977Y-71698971D01*
X130013120Y-71666049D01*
X130013086Y-71666015D01*
X129979601Y-71604692D01*
X129976767Y-71578334D01*
X129976767Y-61278308D01*
X129996452Y-61211269D01*
X130013087Y-61190626D01*
X130044343Y-61159370D01*
X130044348Y-61159365D01*
X130128011Y-61017898D01*
X130173865Y-60860069D01*
X130176767Y-60823194D01*
X130176767Y-60545097D01*
X130196452Y-60478058D01*
X130213086Y-60457416D01*
X130325502Y-60345000D01*
X130440932Y-60229570D01*
X130502251Y-60196088D01*
X130504418Y-60195637D01*
X130505107Y-60195500D01*
X130505109Y-60195500D01*
X130659764Y-60164737D01*
X130795217Y-60108630D01*
X130864684Y-60101162D01*
X130927164Y-60132437D01*
G37*
%TD.AperFunction*%
%TA.AperFunction,Conductor*%
G36*
X123377939Y-71659361D02*
G01*
X123416966Y-71717314D01*
X123422767Y-71754796D01*
X123422767Y-72755203D01*
X123403082Y-72822242D01*
X123350278Y-72867997D01*
X123281120Y-72877941D01*
X123217564Y-72848916D01*
X123193040Y-72819994D01*
X123191314Y-72817177D01*
X123066376Y-72645213D01*
X122916053Y-72494890D01*
X122744087Y-72369951D01*
X122743382Y-72369591D01*
X122735321Y-72365485D01*
X122684526Y-72317512D01*
X122667730Y-72249692D01*
X122690266Y-72183556D01*
X122735321Y-72144515D01*
X122744083Y-72140051D01*
X122820188Y-72084758D01*
X122916053Y-72015109D01*
X122916055Y-72015106D01*
X122916059Y-72015104D01*
X123066371Y-71864792D01*
X123066373Y-71864788D01*
X123066376Y-71864786D01*
X123146287Y-71754796D01*
X123191318Y-71692816D01*
X123191324Y-71692803D01*
X123193036Y-71690012D01*
X123193969Y-71689167D01*
X123194182Y-71688875D01*
X123194243Y-71688919D01*
X123244845Y-71643134D01*
X123313774Y-71631707D01*
X123377939Y-71659361D01*
G37*
%TD.AperFunction*%
%TA.AperFunction,Conductor*%
G36*
X123022569Y-69077749D02*
G01*
X123037834Y-69080956D01*
X123066862Y-69102524D01*
X123087101Y-69122763D01*
X123087103Y-69122764D01*
X123094172Y-69129833D01*
X123386448Y-69422109D01*
X123419933Y-69483432D01*
X123422767Y-69509790D01*
X123422767Y-70215203D01*
X123403082Y-70282242D01*
X123350278Y-70327997D01*
X123281120Y-70337941D01*
X123217564Y-70308916D01*
X123193040Y-70279994D01*
X123191314Y-70277177D01*
X123066376Y-70105213D01*
X122916053Y-69954890D01*
X122744087Y-69829951D01*
X122554681Y-69733444D01*
X122554680Y-69733443D01*
X122554679Y-69733443D01*
X122525513Y-69723966D01*
X122467838Y-69684529D01*
X122440640Y-69620171D01*
X122452555Y-69551324D01*
X122499799Y-69499849D01*
X122507537Y-69495551D01*
X122638999Y-69428566D01*
X122654799Y-69417085D01*
X122654800Y-69417085D01*
X122165677Y-68927962D01*
X122229260Y-68910925D01*
X122343274Y-68845099D01*
X122436366Y-68752007D01*
X122502192Y-68637993D01*
X122519229Y-68574409D01*
X123022569Y-69077749D01*
G37*
%TD.AperFunction*%
%TA.AperFunction,Conductor*%
G36*
X140788351Y-69063532D02*
G01*
X140792039Y-69063242D01*
X140860416Y-69077606D01*
X140910172Y-69126658D01*
X140925767Y-69186860D01*
X140925767Y-69885242D01*
X140906082Y-69952281D01*
X140853278Y-69998036D01*
X140784120Y-70007980D01*
X140720564Y-69978955D01*
X140714086Y-69972923D01*
X140696053Y-69954890D01*
X140524087Y-69829951D01*
X140334681Y-69733444D01*
X140334680Y-69733443D01*
X140334679Y-69733443D01*
X140305513Y-69723966D01*
X140247838Y-69684529D01*
X140220640Y-69620171D01*
X140232555Y-69551324D01*
X140279799Y-69499849D01*
X140287537Y-69495551D01*
X140418999Y-69428566D01*
X140434799Y-69417085D01*
X139945676Y-68927962D01*
X140009260Y-68910925D01*
X140123274Y-68845099D01*
X140216366Y-68752007D01*
X140282192Y-68637993D01*
X140299229Y-68574410D01*
X140788351Y-69063532D01*
G37*
%TD.AperFunction*%
%TA.AperFunction,Conductor*%
G36*
X121570342Y-68637993D02*
G01*
X121636168Y-68752007D01*
X121729260Y-68845099D01*
X121843274Y-68910925D01*
X121906857Y-68927962D01*
X121417733Y-69417085D01*
X121417733Y-69417086D01*
X121433534Y-69428566D01*
X121433542Y-69428571D01*
X121564996Y-69495551D01*
X121615792Y-69543526D01*
X121632587Y-69611347D01*
X121610049Y-69677482D01*
X121555334Y-69720933D01*
X121547028Y-69723964D01*
X121536983Y-69727227D01*
X121517850Y-69733444D01*
X121328446Y-69829951D01*
X121156480Y-69954890D01*
X121156476Y-69954894D01*
X121138448Y-69972923D01*
X121077125Y-70006408D01*
X121007433Y-70001424D01*
X120951500Y-69959552D01*
X120927083Y-69894088D01*
X120926767Y-69885242D01*
X120926767Y-69186861D01*
X120946452Y-69119822D01*
X120999256Y-69074067D01*
X121060496Y-69063243D01*
X121064180Y-69063533D01*
X121553304Y-68574409D01*
X121570342Y-68637993D01*
G37*
%TD.AperFunction*%
%TA.AperFunction,Conductor*%
G36*
X138479701Y-63816731D02*
G01*
X138491003Y-63817142D01*
X138510912Y-63830984D01*
X138532970Y-63841058D01*
X138540570Y-63851604D01*
X138548370Y-63857028D01*
X138562265Y-63878501D01*
X138564611Y-63883108D01*
X138564710Y-63883412D01*
X138661216Y-64072816D01*
X138661222Y-64072824D01*
X138661223Y-64072826D01*
X138786157Y-64244786D01*
X138936480Y-64395109D01*
X139108449Y-64520050D01*
X139117213Y-64524516D01*
X139168009Y-64572491D01*
X139184803Y-64640312D01*
X139162265Y-64706447D01*
X139117213Y-64745484D01*
X139108449Y-64749949D01*
X138936480Y-64874890D01*
X138786157Y-65025213D01*
X138661218Y-65197179D01*
X138564711Y-65386585D01*
X138499020Y-65588760D01*
X138484087Y-65683046D01*
X138465767Y-65798713D01*
X138465767Y-66011287D01*
X138471043Y-66044595D01*
X138495897Y-66201524D01*
X138499021Y-66221243D01*
X138530259Y-66317384D01*
X138564711Y-66423414D01*
X138661218Y-66612820D01*
X138786157Y-66784786D01*
X138936480Y-66935109D01*
X139108446Y-67060048D01*
X139108448Y-67060049D01*
X139108451Y-67060051D01*
X139297855Y-67156557D01*
X139327020Y-67166033D01*
X139384693Y-67205468D01*
X139411892Y-67269826D01*
X139399979Y-67338673D01*
X139352736Y-67390149D01*
X139344997Y-67394447D01*
X139213536Y-67461431D01*
X139197733Y-67472912D01*
X139197733Y-67472913D01*
X139686858Y-67962037D01*
X139623274Y-67979075D01*
X139509260Y-68044901D01*
X139416168Y-68137993D01*
X139350342Y-68252007D01*
X139333304Y-68315590D01*
X138844180Y-67826466D01*
X138844179Y-67826466D01*
X138832699Y-67842269D01*
X138750521Y-68003547D01*
X138750518Y-68003555D01*
X138694584Y-68175706D01*
X138666267Y-68354493D01*
X138666267Y-68535506D01*
X138694584Y-68714295D01*
X138734056Y-68835780D01*
X138736051Y-68905621D01*
X138699970Y-68965454D01*
X138640317Y-68995714D01*
X138491775Y-69025261D01*
X138491765Y-69025264D01*
X138346094Y-69085602D01*
X138346081Y-69085609D01*
X138214392Y-69173602D01*
X138147714Y-69194480D01*
X138145501Y-69194500D01*
X136836743Y-69194500D01*
X136769704Y-69174815D01*
X136723949Y-69122011D01*
X136714005Y-69052853D01*
X136715126Y-69046309D01*
X136721767Y-69012917D01*
X136721768Y-69012915D01*
X136721768Y-68855226D01*
X136709976Y-68795951D01*
X136700438Y-68747997D01*
X136706665Y-68678408D01*
X136734371Y-68636129D01*
X137506786Y-67863716D01*
X137585844Y-67726785D01*
X137586903Y-67722830D01*
X137597692Y-67682572D01*
X137613886Y-67622132D01*
X137626768Y-67574057D01*
X137626768Y-67415943D01*
X137585844Y-67263215D01*
X137581390Y-67255500D01*
X137578379Y-67250284D01*
X137561767Y-67188286D01*
X137561767Y-66044595D01*
X137581452Y-65977556D01*
X137598085Y-65956914D01*
X137602402Y-65952598D01*
X137684136Y-65814393D01*
X137728932Y-65660204D01*
X137731767Y-65624181D01*
X137731766Y-65505095D01*
X137751450Y-65438057D01*
X137768076Y-65417425D01*
X138207787Y-64977716D01*
X138286844Y-64840784D01*
X138327768Y-64688057D01*
X138327768Y-64529942D01*
X138327768Y-64522347D01*
X138327767Y-64522329D01*
X138327767Y-63934771D01*
X138330953Y-63923919D01*
X138329752Y-63912674D01*
X138340620Y-63890997D01*
X138347452Y-63867732D01*
X138355998Y-63860326D01*
X138361068Y-63850216D01*
X138381930Y-63837856D01*
X138400256Y-63821977D01*
X138411450Y-63820367D01*
X138421180Y-63814603D01*
X138445412Y-63815484D01*
X138469414Y-63812033D01*
X138479701Y-63816731D01*
G37*
%TD.AperFunction*%
%TA.AperFunction,Conductor*%
G36*
X121131970Y-66911045D02*
G01*
X121138448Y-66917077D01*
X121156480Y-66935109D01*
X121328446Y-67060048D01*
X121328448Y-67060049D01*
X121328451Y-67060051D01*
X121517855Y-67156557D01*
X121547020Y-67166033D01*
X121604693Y-67205468D01*
X121631892Y-67269826D01*
X121619979Y-67338673D01*
X121572736Y-67390149D01*
X121564997Y-67394447D01*
X121433536Y-67461431D01*
X121417733Y-67472912D01*
X121417733Y-67472913D01*
X121906857Y-67962037D01*
X121843274Y-67979075D01*
X121729260Y-68044901D01*
X121636168Y-68137993D01*
X121570342Y-68252007D01*
X121553304Y-68315590D01*
X121064180Y-67826466D01*
X121060496Y-67826756D01*
X120992119Y-67812392D01*
X120942362Y-67763340D01*
X120926767Y-67703138D01*
X120926767Y-67004758D01*
X120946452Y-66937719D01*
X120999256Y-66891964D01*
X121068414Y-66882020D01*
X121131970Y-66911045D01*
G37*
%TD.AperFunction*%
%TA.AperFunction,Conductor*%
G36*
X140845101Y-66888576D02*
G01*
X140901034Y-66930448D01*
X140925451Y-66995912D01*
X140925767Y-67004758D01*
X140925767Y-67703138D01*
X140906082Y-67770177D01*
X140853278Y-67815932D01*
X140792040Y-67826756D01*
X140788353Y-67826465D01*
X140299229Y-68315589D01*
X140282192Y-68252007D01*
X140216366Y-68137993D01*
X140123274Y-68044901D01*
X140009260Y-67979075D01*
X139945676Y-67962037D01*
X140434800Y-67472913D01*
X140418994Y-67461429D01*
X140287536Y-67394447D01*
X140236741Y-67346473D01*
X140219946Y-67278651D01*
X140242484Y-67212517D01*
X140297199Y-67169066D01*
X140305483Y-67166043D01*
X140334679Y-67156557D01*
X140524083Y-67060051D01*
X140600188Y-67004758D01*
X140696053Y-66935109D01*
X140696055Y-66935106D01*
X140696059Y-66935104D01*
X140714086Y-66917077D01*
X140775409Y-66883592D01*
X140845101Y-66888576D01*
G37*
%TD.AperFunction*%
%TA.AperFunction,Conductor*%
G36*
X138350453Y-51268050D02*
G01*
X138359415Y-51266762D01*
X138383455Y-51277740D01*
X138408807Y-51285185D01*
X138414734Y-51292025D01*
X138422971Y-51295787D01*
X138437260Y-51318021D01*
X138454562Y-51337989D01*
X138456849Y-51348503D01*
X138460745Y-51354565D01*
X138465768Y-51389260D01*
X138465768Y-51562872D01*
X138466109Y-51566053D01*
X138466110Y-51566058D01*
X138472175Y-51622483D01*
X138522469Y-51757328D01*
X138522473Y-51757335D01*
X138608719Y-51872544D01*
X138608722Y-51872547D01*
X138723931Y-51958793D01*
X138723938Y-51958797D01*
X138855349Y-52007810D01*
X138911283Y-52049681D01*
X138935700Y-52115145D01*
X138920849Y-52183418D01*
X138899698Y-52211673D01*
X138786156Y-52325215D01*
X138661218Y-52497179D01*
X138564711Y-52686585D01*
X138499020Y-52888760D01*
X138468385Y-53082181D01*
X138465767Y-53098713D01*
X138465767Y-53311287D01*
X138499021Y-53521243D01*
X138526476Y-53605741D01*
X138564711Y-53723414D01*
X138661218Y-53912820D01*
X138786157Y-54084786D01*
X138936480Y-54235109D01*
X139108446Y-54360048D01*
X139108448Y-54360049D01*
X139108451Y-54360051D01*
X139297855Y-54456557D01*
X139327020Y-54466033D01*
X139384693Y-54505468D01*
X139411892Y-54569826D01*
X139399979Y-54638673D01*
X139352736Y-54690149D01*
X139344997Y-54694447D01*
X139213536Y-54761431D01*
X139197733Y-54772912D01*
X139197733Y-54772913D01*
X139686858Y-55262037D01*
X139623274Y-55279075D01*
X139509260Y-55344901D01*
X139416168Y-55437993D01*
X139350342Y-55552007D01*
X139333304Y-55615590D01*
X138844180Y-55126466D01*
X138844179Y-55126466D01*
X138832699Y-55142269D01*
X138750521Y-55303547D01*
X138750518Y-55303555D01*
X138694584Y-55475706D01*
X138666267Y-55654493D01*
X138666267Y-55835506D01*
X138694584Y-56014293D01*
X138750518Y-56186444D01*
X138750519Y-56186447D01*
X138832698Y-56347730D01*
X138844180Y-56363532D01*
X138844180Y-56363533D01*
X139333304Y-55874409D01*
X139350342Y-55937993D01*
X139416168Y-56052007D01*
X139509260Y-56145099D01*
X139623274Y-56210925D01*
X139686857Y-56227962D01*
X139197733Y-56717085D01*
X139197733Y-56717086D01*
X139213534Y-56728566D01*
X139213542Y-56728571D01*
X139344996Y-56795551D01*
X139395792Y-56843526D01*
X139412587Y-56911347D01*
X139390049Y-56977482D01*
X139335334Y-57020933D01*
X139327028Y-57023964D01*
X139316983Y-57027227D01*
X139297850Y-57033444D01*
X139108446Y-57129951D01*
X138936480Y-57254890D01*
X138786157Y-57405213D01*
X138661218Y-57577179D01*
X138564711Y-57766585D01*
X138499020Y-57968760D01*
X138465767Y-58178713D01*
X138465767Y-58391286D01*
X138499020Y-58601239D01*
X138499020Y-58601241D01*
X138499021Y-58601243D01*
X138558925Y-58785609D01*
X138564711Y-58803414D01*
X138661218Y-58992820D01*
X138786157Y-59164786D01*
X138936480Y-59315109D01*
X139108449Y-59440050D01*
X139117213Y-59444516D01*
X139168009Y-59492491D01*
X139184803Y-59560312D01*
X139162265Y-59626447D01*
X139117213Y-59665484D01*
X139108449Y-59669949D01*
X138936480Y-59794890D01*
X138786157Y-59945213D01*
X138661215Y-60117184D01*
X138661214Y-60117185D01*
X138641032Y-60156795D01*
X138593058Y-60207591D01*
X138530548Y-60224500D01*
X137952364Y-60224500D01*
X137885325Y-60204815D01*
X137864683Y-60188181D01*
X137156841Y-59480339D01*
X137123356Y-59419016D01*
X137122905Y-59416849D01*
X137097880Y-59291045D01*
X137092004Y-59261503D01*
X137091674Y-59260707D01*
X137031664Y-59115827D01*
X137031657Y-59115814D01*
X136944056Y-58984711D01*
X136944053Y-58984707D01*
X136832559Y-58873213D01*
X136832555Y-58873210D01*
X136701452Y-58785609D01*
X136701439Y-58785602D01*
X136555768Y-58725264D01*
X136555756Y-58725261D01*
X136401112Y-58694500D01*
X136401109Y-58694500D01*
X136243425Y-58694500D01*
X136243422Y-58694500D01*
X136088777Y-58725261D01*
X136088765Y-58725264D01*
X135943094Y-58785602D01*
X135943081Y-58785609D01*
X135811978Y-58873210D01*
X135811974Y-58873213D01*
X135700480Y-58984707D01*
X135700477Y-58984711D01*
X135612876Y-59115814D01*
X135612869Y-59115827D01*
X135552531Y-59261498D01*
X135552528Y-59261510D01*
X135521767Y-59416153D01*
X135521767Y-59573846D01*
X135552528Y-59728489D01*
X135552531Y-59728501D01*
X135612869Y-59874172D01*
X135612876Y-59874185D01*
X135700477Y-60005288D01*
X135700480Y-60005292D01*
X135811974Y-60116786D01*
X135811978Y-60116789D01*
X135943081Y-60204390D01*
X135943094Y-60204397D01*
X136076023Y-60259457D01*
X136088770Y-60264737D01*
X136153414Y-60277595D01*
X136244116Y-60295638D01*
X136306027Y-60328023D01*
X136307606Y-60329574D01*
X136614926Y-60636894D01*
X136648411Y-60698217D01*
X136643427Y-60767909D01*
X136601555Y-60823842D01*
X136564136Y-60842960D01*
X136536663Y-60851521D01*
X136391078Y-60939530D01*
X136270797Y-61059811D01*
X136182789Y-61205393D01*
X136132180Y-61367807D01*
X136125767Y-61438386D01*
X136125767Y-63151614D01*
X136128811Y-63185116D01*
X136115274Y-63253662D01*
X136066827Y-63304007D01*
X136029512Y-63317954D01*
X135992775Y-63325261D01*
X135992765Y-63325264D01*
X135847094Y-63385602D01*
X135847081Y-63385609D01*
X135715978Y-63473210D01*
X135715974Y-63473213D01*
X135604480Y-63584707D01*
X135604477Y-63584711D01*
X135516876Y-63715814D01*
X135516869Y-63715827D01*
X135456531Y-63861498D01*
X135456528Y-63861510D01*
X135425767Y-64016153D01*
X135425767Y-64173846D01*
X135455957Y-64325622D01*
X135449730Y-64395214D01*
X135406867Y-64450391D01*
X135340977Y-64473635D01*
X135272980Y-64457567D01*
X135269243Y-64455351D01*
X135151062Y-64382455D01*
X135151056Y-64382452D01*
X135151054Y-64382451D01*
X134991452Y-64329564D01*
X134991450Y-64329563D01*
X134892948Y-64319500D01*
X134892941Y-64319500D01*
X134359593Y-64319500D01*
X134359585Y-64319500D01*
X134261083Y-64329563D01*
X134261082Y-64329564D01*
X134181986Y-64355773D01*
X134101482Y-64382450D01*
X134101471Y-64382455D01*
X133958379Y-64470716D01*
X133958375Y-64470719D01*
X133839486Y-64589608D01*
X133839483Y-64589612D01*
X133814526Y-64630073D01*
X133762577Y-64676797D01*
X133693615Y-64688017D01*
X133634064Y-64663778D01*
X133526653Y-64582325D01*
X133393991Y-64530010D01*
X133310623Y-64520000D01*
X133301267Y-64520000D01*
X133301267Y-65171000D01*
X133281582Y-65238039D01*
X133228778Y-65283794D01*
X133177267Y-65295000D01*
X132925267Y-65295000D01*
X132858228Y-65275315D01*
X132812473Y-65222511D01*
X132801267Y-65171000D01*
X132801267Y-64520000D01*
X132791909Y-64520000D01*
X132765549Y-64523165D01*
X132696641Y-64511612D01*
X132644918Y-64464640D01*
X132626767Y-64400049D01*
X132626767Y-63594765D01*
X133076267Y-63594765D01*
X133133642Y-63588598D01*
X133268353Y-63538354D01*
X133268360Y-63538350D01*
X133383454Y-63452190D01*
X133383457Y-63452187D01*
X133469617Y-63337093D01*
X133469621Y-63337086D01*
X133519863Y-63202379D01*
X133519865Y-63202372D01*
X133526266Y-63142844D01*
X133526267Y-63142827D01*
X133526267Y-62545000D01*
X133076267Y-62545000D01*
X133076267Y-63594765D01*
X132626767Y-63594765D01*
X132626767Y-62419000D01*
X132646452Y-62351961D01*
X132699256Y-62306206D01*
X132750767Y-62295000D01*
X132826267Y-62295000D01*
X132826267Y-62169000D01*
X132845952Y-62101961D01*
X132898756Y-62056206D01*
X132950267Y-62045000D01*
X133526267Y-62045000D01*
X133526267Y-61447172D01*
X133526266Y-61447155D01*
X133519865Y-61387627D01*
X133519863Y-61387620D01*
X133469621Y-61252913D01*
X133469617Y-61252906D01*
X133383457Y-61137812D01*
X133383454Y-61137809D01*
X133268360Y-61051649D01*
X133268353Y-61051645D01*
X133133646Y-61001403D01*
X133133639Y-61001401D01*
X133074111Y-60995000D01*
X132950767Y-60995000D01*
X132883728Y-60975315D01*
X132837973Y-60922511D01*
X132826767Y-60871000D01*
X132826767Y-59073817D01*
X133176267Y-59073817D01*
X133193047Y-59072244D01*
X133316828Y-59028931D01*
X133422332Y-58951065D01*
X133500200Y-58845559D01*
X133500201Y-58845557D01*
X133531888Y-58755000D01*
X133176267Y-58755000D01*
X133176267Y-59073817D01*
X132826767Y-59073817D01*
X132826767Y-58629000D01*
X132846452Y-58561961D01*
X132899256Y-58516206D01*
X132919455Y-58511811D01*
X132926267Y-58505000D01*
X132926267Y-58379499D01*
X132945952Y-58312460D01*
X132998756Y-58266705D01*
X133049813Y-58255500D01*
X133050086Y-58255499D01*
X133175447Y-58255499D01*
X133181561Y-58255017D01*
X133186206Y-58255001D01*
X133186257Y-58255015D01*
X133186660Y-58255000D01*
X133531889Y-58255000D01*
X133531888Y-58254999D01*
X133516955Y-58212321D01*
X133513393Y-58142542D01*
X133546313Y-58083686D01*
X133617402Y-58012598D01*
X133699136Y-57874393D01*
X133743932Y-57720204D01*
X133746767Y-57684181D01*
X133746766Y-57285820D01*
X133743932Y-57249796D01*
X133729953Y-57201679D01*
X133730153Y-57131812D01*
X133768096Y-57073142D01*
X133805698Y-57050905D01*
X133918593Y-57008798D01*
X133918593Y-57008797D01*
X133918598Y-57008796D01*
X134033813Y-56922546D01*
X134120063Y-56807331D01*
X134170358Y-56672483D01*
X134176767Y-56612873D01*
X134176766Y-55963998D01*
X134196450Y-55896961D01*
X134249254Y-55851206D01*
X134300766Y-55840000D01*
X134302267Y-55840000D01*
X134369306Y-55859685D01*
X134415061Y-55912489D01*
X134426267Y-55964000D01*
X134426267Y-56864999D01*
X134521053Y-56864999D01*
X134521075Y-56864997D01*
X134546136Y-56862091D01*
X134546140Y-56862090D01*
X134648741Y-56816788D01*
X134648746Y-56816785D01*
X134728052Y-56737479D01*
X134728055Y-56737474D01*
X134773356Y-56634877D01*
X134773356Y-56634875D01*
X134776266Y-56609794D01*
X134776266Y-56331812D01*
X134795950Y-56264773D01*
X134848754Y-56219018D01*
X134917913Y-56209074D01*
X134947718Y-56217251D01*
X134996266Y-56237360D01*
X134996267Y-56237360D01*
X134996267Y-55641988D01*
X135006207Y-55659205D01*
X135062062Y-55715060D01*
X135130471Y-55754556D01*
X135206771Y-55775000D01*
X135285763Y-55775000D01*
X135362063Y-55754556D01*
X135430472Y-55715060D01*
X135486327Y-55659205D01*
X135496267Y-55641988D01*
X135496267Y-56237360D01*
X135625201Y-56183954D01*
X135625219Y-56183944D01*
X135756232Y-56096404D01*
X135756240Y-56096398D01*
X135867665Y-55984973D01*
X135867668Y-55984969D01*
X135955214Y-55853948D01*
X135955219Y-55853939D01*
X136015523Y-55708352D01*
X136032017Y-55625430D01*
X136032018Y-55625426D01*
X136046266Y-55553796D01*
X136046267Y-55553794D01*
X136046267Y-55175000D01*
X135546267Y-55175000D01*
X135546267Y-54675000D01*
X136046267Y-54675000D01*
X136046267Y-54296206D01*
X136046266Y-54296202D01*
X136015525Y-54141656D01*
X136015523Y-54141648D01*
X135955219Y-53996060D01*
X135955214Y-53996051D01*
X135867668Y-53865030D01*
X135867665Y-53865026D01*
X135756240Y-53753601D01*
X135756236Y-53753598D01*
X135625215Y-53666052D01*
X135625206Y-53666047D01*
X135479618Y-53605743D01*
X135479610Y-53605741D01*
X135356118Y-53581177D01*
X135294207Y-53548792D01*
X135259633Y-53488077D01*
X135263372Y-53418307D01*
X135292624Y-53371885D01*
X137362691Y-51301819D01*
X137424014Y-51268334D01*
X137450372Y-51265500D01*
X138341768Y-51265500D01*
X138350453Y-51268050D01*
G37*
%TD.AperFunction*%
%TA.AperFunction,Conductor*%
G36*
X129431970Y-57922384D02*
G01*
X129438448Y-57928416D01*
X129459406Y-57949374D01*
X129459416Y-57949385D01*
X129463746Y-57953715D01*
X129463747Y-57953716D01*
X129575551Y-58065520D01*
X129657093Y-58112598D01*
X129712482Y-58144577D01*
X129865210Y-58185501D01*
X129905194Y-58185501D01*
X129972233Y-58205186D01*
X130017988Y-58257990D01*
X130027932Y-58327148D01*
X130022235Y-58350456D01*
X130020645Y-58354999D01*
X130020645Y-58355000D01*
X130292479Y-58355000D01*
X130359518Y-58374685D01*
X130405273Y-58427489D01*
X130415217Y-58496647D01*
X130386192Y-58560203D01*
X130327414Y-58597977D01*
X130316670Y-58600617D01*
X130192777Y-58625261D01*
X130192765Y-58625264D01*
X130047094Y-58685602D01*
X130047081Y-58685609D01*
X129915978Y-58773210D01*
X129915974Y-58773213D01*
X129804484Y-58884704D01*
X129804481Y-58884706D01*
X129798302Y-58893954D01*
X129744686Y-58938755D01*
X129675361Y-58947458D01*
X129660610Y-58944133D01*
X129628834Y-58934901D01*
X129591968Y-58932000D01*
X129591961Y-58932000D01*
X129350767Y-58932000D01*
X129283728Y-58912315D01*
X129237973Y-58859511D01*
X129226767Y-58808000D01*
X129226767Y-58016097D01*
X129246452Y-57949058D01*
X129299256Y-57903303D01*
X129368414Y-57893359D01*
X129431970Y-57922384D01*
G37*
%TD.AperFunction*%
%TA.AperFunction,Conductor*%
G36*
X140788351Y-56363532D02*
G01*
X140792039Y-56363242D01*
X140860416Y-56377606D01*
X140910172Y-56426658D01*
X140925767Y-56486860D01*
X140925767Y-57185242D01*
X140906082Y-57252281D01*
X140853278Y-57298036D01*
X140784120Y-57307980D01*
X140720564Y-57278955D01*
X140714086Y-57272923D01*
X140696053Y-57254890D01*
X140524087Y-57129951D01*
X140334681Y-57033444D01*
X140334680Y-57033443D01*
X140334679Y-57033443D01*
X140305513Y-57023966D01*
X140247838Y-56984529D01*
X140220640Y-56920171D01*
X140232555Y-56851324D01*
X140279799Y-56799849D01*
X140287537Y-56795551D01*
X140418999Y-56728566D01*
X140434799Y-56717085D01*
X140434800Y-56717085D01*
X139945677Y-56227962D01*
X140009260Y-56210925D01*
X140123274Y-56145099D01*
X140216366Y-56052007D01*
X140282192Y-55937993D01*
X140299229Y-55874409D01*
X140788351Y-56363532D01*
G37*
%TD.AperFunction*%
%TA.AperFunction,Conductor*%
G36*
X121570342Y-55937993D02*
G01*
X121636168Y-56052007D01*
X121729260Y-56145099D01*
X121843274Y-56210925D01*
X121906857Y-56227962D01*
X121417733Y-56717085D01*
X121417733Y-56717086D01*
X121433534Y-56728566D01*
X121433542Y-56728571D01*
X121564996Y-56795551D01*
X121615792Y-56843526D01*
X121632587Y-56911347D01*
X121610049Y-56977482D01*
X121555334Y-57020933D01*
X121547028Y-57023964D01*
X121536983Y-57027227D01*
X121517850Y-57033444D01*
X121328446Y-57129951D01*
X121156480Y-57254890D01*
X121156476Y-57254894D01*
X121138448Y-57272923D01*
X121077125Y-57306408D01*
X121007433Y-57301424D01*
X120951500Y-57259552D01*
X120927083Y-57194088D01*
X120926767Y-57185242D01*
X120926767Y-56486861D01*
X120946452Y-56419822D01*
X120999256Y-56374067D01*
X121060496Y-56363243D01*
X121064180Y-56363533D01*
X121553304Y-55874409D01*
X121570342Y-55937993D01*
G37*
%TD.AperFunction*%
%TA.AperFunction,Conductor*%
G36*
X121131970Y-54211045D02*
G01*
X121138448Y-54217077D01*
X121156480Y-54235109D01*
X121328446Y-54360048D01*
X121328448Y-54360049D01*
X121328451Y-54360051D01*
X121517855Y-54456557D01*
X121547020Y-54466033D01*
X121604693Y-54505468D01*
X121631892Y-54569826D01*
X121619979Y-54638673D01*
X121572736Y-54690149D01*
X121564997Y-54694447D01*
X121433536Y-54761431D01*
X121417733Y-54772912D01*
X121417733Y-54772913D01*
X121906858Y-55262037D01*
X121843274Y-55279075D01*
X121729260Y-55344901D01*
X121636168Y-55437993D01*
X121570342Y-55552007D01*
X121553304Y-55615590D01*
X121064180Y-55126466D01*
X121060496Y-55126756D01*
X120992119Y-55112392D01*
X120942362Y-55063340D01*
X120926767Y-55003138D01*
X120926767Y-54304758D01*
X120946452Y-54237719D01*
X120999256Y-54191964D01*
X121068414Y-54182020D01*
X121131970Y-54211045D01*
G37*
%TD.AperFunction*%
%TA.AperFunction,Conductor*%
G36*
X140845101Y-54188576D02*
G01*
X140901034Y-54230448D01*
X140925451Y-54295912D01*
X140925767Y-54304758D01*
X140925767Y-55003138D01*
X140906082Y-55070177D01*
X140853278Y-55115932D01*
X140792040Y-55126756D01*
X140788353Y-55126465D01*
X140299229Y-55615589D01*
X140282192Y-55552007D01*
X140216366Y-55437993D01*
X140123274Y-55344901D01*
X140009260Y-55279075D01*
X139945676Y-55262037D01*
X140434800Y-54772913D01*
X140418994Y-54761429D01*
X140287536Y-54694447D01*
X140236741Y-54646473D01*
X140219946Y-54578651D01*
X140242484Y-54512517D01*
X140297199Y-54469066D01*
X140305483Y-54466043D01*
X140334679Y-54456557D01*
X140524083Y-54360051D01*
X140611959Y-54296206D01*
X140696053Y-54235109D01*
X140696055Y-54235106D01*
X140696059Y-54235104D01*
X140714086Y-54217077D01*
X140775409Y-54183592D01*
X140845101Y-54188576D01*
G37*
%TD.AperFunction*%
%TA.AperFunction,Conductor*%
G36*
X138408806Y-49815185D02*
G01*
X138454561Y-49867989D01*
X138465767Y-49919500D01*
X138465767Y-49940500D01*
X138446082Y-50007539D01*
X138393278Y-50053294D01*
X138341767Y-50064500D01*
X137229332Y-50064500D01*
X137071217Y-50064500D01*
X136918490Y-50105423D01*
X136918489Y-50105423D01*
X136918487Y-50105424D01*
X136918484Y-50105425D01*
X136868371Y-50134359D01*
X136868370Y-50134360D01*
X136849941Y-50145000D01*
X136781560Y-50184479D01*
X136781557Y-50184481D01*
X136007358Y-50958681D01*
X135946035Y-50992166D01*
X135919677Y-50995000D01*
X135546267Y-50995000D01*
X135546267Y-50495000D01*
X136046267Y-50495000D01*
X136046267Y-50366206D01*
X136046266Y-50366202D01*
X136015525Y-50211656D01*
X136015523Y-50211648D01*
X135955219Y-50066060D01*
X135955214Y-50066051D01*
X135903323Y-49988391D01*
X135882445Y-49921714D01*
X135900929Y-49854333D01*
X135952908Y-49807643D01*
X136006425Y-49795500D01*
X138341767Y-49795500D01*
X138408806Y-49815185D01*
G37*
%TD.AperFunction*%
%TD*%
M02*
